SplineFontDB: 3.2
FontName: Samaano-Bold-Slanted
FullName: Samaano Bold Slanted
FamilyName: Samaano
Weight: Bold
Copyright: Copyright 2024 The Samaano Project Authors (https://github.com/mitradranirban/samaano-fonts)
UComments: "2024-8-27: Created with FontForge (http://fontforge.org)"
Version: 1.600
StyleMapFamilyName: Samaano
ItalicAngle: -20
UnderlinePosition: 0
UnderlineWidth: 102
Ascent: 1638
Descent: 410
InvalidEm: 0
UFOAscent: 1638
UFODescent: -410
LayerCount: 2
Layer: 0 1 "Back" 1
Layer: 1 1 "public.default" 0 "glyphs"
StyleMap: 0x0021
FSType: 0
OS2Version: 0
OS2_WeightWidthSlopeOnly: 0
OS2_UseTypoMetrics: 0
CreationTime: 1731342365
ModificationTime: 1731342730
PfmFamily: 16
TTFWeight: 700
TTFWidth: 5
LineGap: 0
VLineGap: 0
Panose: 2 7 8 9 2 2 5 2 4 4
OS2TypoAscent: 2457
OS2TypoAOffset: 0
OS2TypoDescent: -615
OS2TypoDOffset: 0
OS2TypoLinegap: 0
OS2WinAscent: 3225
OS2WinAOffset: 0
OS2WinDescent: 978
OS2WinDOffset: 0
HheadAscent: 2457
HheadAOffset: 0
HheadDescent: -615
HheadDOffset: 0
OS2CapHeight: 1548
OS2XHeight: 1023
OS2FamilyClass: 1031
OS2Vendor: 'anir'
Lookup: 4 0 1 "ligaStandardLigaturesinLatinlookup0" { "ligaStandardLigaturesinLatinlookup0 subtable"  } ['liga' ('latn' <'dflt' > 'DFLT' <'dflt' > ) ]
Lookup: 4 0 0 "nuktNuktaFormsinDevanagari2lookup0" { "nuktNuktaFormsinDevanagari2lookup0 subtable"  } ['nukt' ('dev2' <'dflt' > 'DFLT' <'dflt' > ) ]
Lookup: 4 0 0 "akhnAkhandinDevanagari2lookup0" { "akhnAkhandinDevanagari2lookup0 subtable"  } ['akhn' ('dev2' <'dflt' > 'DFLT' <'dflt' > ) ]
Lookup: 4 0 0 "rphfRephForminDevanagari2lookup0" { "rphfRephForminDevanagari2lookup0 subtable"  } ['rphf' ('dev2' <'dflt' > 'DFLT' <'dflt' > ) ]
Lookup: 4 0 0 "rkrfRakarVariantsinDevanagari2lookup0" { "rkrfRakarVariantsinDevanagari2lookup0 subtable"  } ['rkrf' ('dev2' <'dflt' > 'DFLT' <'dflt' > ) ]
Lookup: 4 0 0 "blwfBelowBaseFormsinDevanagari2lookup0" { "blwfBelowBaseFormsinDevanagari2lookup0 subtable"  } ['blwf' ('dev2' <'dflt' > 'DFLT' <'dflt' > ) ]

StartChar: .notdef
Encoding: 0 0 0
GlifName: _notdef
Width: 1024
VWidth: 0
Flags: W
LayerCount: 2
Fore
SplineSet
-285 -26 m 257,0,-1
 713 -26 l 257,1,-1
 1309 1614 l 257,2,-1
 311 1614 l 257,3,-1
 -285 -26 l 257,0,-1
-182 54 m 257,4,-1
 357 1537 l 257,5,-1
 488 817 l 257,6,-1
 -182 54 l 257,4,-1
-90 54 m 257,7,-1
 498 740 l 257,8,-1
 590 54 l 257,9,-1
 -90 54 l 257,7,-1
481 1548 m 257,10,-1
 1112 1548 l 257,11,-1
 558 899 l 257,12,-1
 481 1548 l 257,10,-1
568 822 m 257,13,-1
 1208 1548 l 257,14,-1
 665 54 l 257,15,-1
 568 822 l 257,13,-1
EndSplineSet
EndChar

StartChar: A
Encoding: 65 65 1
GlifName: A_
Width: 1024
VWidth: 0
GlyphClass: 2
Flags: W
AnchorPoint: "top" 809 1641 basechar 0
AnchorPoint: "base" 546 0 basechar 0
LayerCount: 2
Fore
SplineSet
-168 0 m 257,0,-1
 31 0 l 257,1,-1
 594 1548 l 257,2,-1
 395 1548 l 257,3,-1
 -168 0 l 257,0,-1
378 1332 m 257,4,-1
 1039 1332 l 257,5,-1
 1117 1548 l 257,6,-1
 456 1548 l 257,7,-1
 378 1332 l 257,4,-1
283 1023 m 257,8,-1
 220 849 l 257,9,-1
 851 849 l 257,10,-1
 914 1023 l 257,11,-1
 283 1023 l 257,8,-1
429 0 m 257,12,-1
 629 0 l 257,13,-1
 1192 1548 l 257,14,-1
 992 1548 l 257,15,-1
 429 0 l 257,12,-1
EndSplineSet
EndChar

StartChar: AE
Encoding: 198 198 2
GlifName: A_E_
Width: 1024
VWidth: 0
GlyphClass: 2
Flags: W
LayerCount: 2
Fore
SplineSet
713 185 m 257,0,-1
 646 0 l 257,1,-1
 996 0 l 257,2,-1
 1063 185 l 257,3,-1
 713 185 l 257,0,-1
125 0 m 257,4,-1
 324 0 l 257,5,-1
 887 1548 l 257,6,-1
 688 1548 l 257,7,-1
 125 0 l 257,4,-1
671 1332 m 257,8,-1
 1459 1332 l 257,9,-1
 1537 1548 l 257,10,-1
 749 1548 l 257,11,-1
 671 1332 l 257,8,-1
576 1023 m 257,12,-1
 513 849 l 257,13,-1
 1231 849 l 257,14,-1
 1294 1023 l 257,15,-1
 576 1023 l 257,12,-1
551 0 m 257,16,-1
 751 0 l 257,17,-1
 1314 1548 l 257,18,-1
 1114 1548 l 257,19,-1
 551 0 l 257,16,-1
EndSplineSet
EndChar

StartChar: B
Encoding: 66 66 14
GlifName: B_
Width: 1024
VWidth: 0
GlyphClass: 2
Flags: W
AnchorPoint: "top" 668 1657 basechar 0
AnchorPoint: "base" 250 -67 basechar 0
LayerCount: 2
Fore
SplineSet
-128 0 m 257,0,-1
 80 0 l 257,1,-1
 639 1537 l 257,2,-1
 431 1537 l 257,3,-1
 -128 0 l 257,0,-1
680 1331 m 257,4,-1
 1069 989 l 257,5,-1
 1151 1215 l 257,6,-1
 755 1537 l 257,7,-1
 680 1331 l 257,4,-1
493 820 m 257,8,-1
 1071 991 l 257,9,-1
 1152 1215 l 257,10,-1
 567 1023 l 257,11,-1
 493 820 l 257,8,-1
210 201 m 257,12,-1
 137 0 l 257,13,-1
 823 364 l 257,14,-1
 905 588 l 257,15,-1
 210 201 l 257,12,-1
410 567 m 257,16,-1
 823 364 l 257,17,-1
 904 586 l 257,18,-1
 483 766 l 257,19,-1
 410 567 l 257,16,-1
405 1023 m 257,20,-1
 331 820 l 257,21,-1
 493 820 l 257,22,-1
 567 1023 l 257,23,-1
 405 1023 l 257,20,-1
311 766 m 257,24,-1
 238 567 l 257,25,-1
 410 567 l 257,26,-1
 483 766 l 257,27,-1
 311 766 l 257,24,-1
43 200 m 257,28,-1
 -30 0 l 257,29,-1
 137 0 l 257,30,-1
 210 200 l 257,31,-1
 43 200 l 257,28,-1
591 1537 m 257,32,-1
 516 1331 l 257,33,-1
 679 1331 l 257,34,-1
 754 1537 l 257,35,-1
 591 1537 l 257,32,-1
EndSplineSet
EndChar

StartChar: C
Encoding: 67 67 15
GlifName: C_
Width: 1024
VWidth: 0
GlyphClass: 2
Flags: W
AnchorPoint: "top" 470 1637 basechar 0
AnchorPoint: "base" 518 -47 basechar 0
LayerCount: 2
Fore
SplineSet
351 1537 m 257,0,-1
 -209 0 l 257,1,-1
 -9 0 l 257,2,-1
 551 1537 l 257,3,-1
 351 1537 l 257,0,-1
450 1537 m 257,4,-1
 377 1338 l 257,5,-1
 1160 1338 l 257,6,-1
 1233 1537 l 257,7,-1
 450 1537 l 257,4,-1
-51 199 m 257,8,-1
 -124 0 l 257,9,-1
 671 0 l 257,10,-1
 744 199 l 257,11,-1
 -51 199 l 257,8,-1
EndSplineSet
EndChar

StartChar: D
Encoding: 68 68 21
GlifName: D_
Width: 1024
VWidth: 0
GlyphClass: 2
Flags: W
AnchorPoint: "base" 124 -108 basechar 0
AnchorPoint: "top" 685 1660 basechar 0
LayerCount: 2
Fore
SplineSet
485 1548 m 257,0,-1
 -79 0 l 257,1,-1
 123 0 l 257,2,-1
 687 1548 l 257,3,-1
 485 1548 l 257,0,-1
811 1548 m 257,4,-1
 739 1350 l 257,5,-1
 1009 767 l 257,6,-1
 1103 1023 l 257,7,-1
 811 1548 l 257,4,-1
328 201 m 257,8,-1
 255 0 l 257,9,-1
 1007 769 l 257,10,-1
 1100 1023 l 257,11,-1
 328 201 l 257,8,-1
649 1548 m 257,12,-1
 576 1349 l 257,13,-1
 738 1349 l 257,14,-1
 811 1548 l 257,15,-1
 649 1548 l 257,12,-1
166 200 m 257,16,-1
 93 0 l 257,17,-1
 255 0 l 257,18,-1
 328 200 l 257,19,-1
 166 200 l 257,16,-1
EndSplineSet
EndChar

StartChar: Dcroat
Encoding: 272 272 23
GlifName: D_croat
Width: 1024
VWidth: 0
GlyphClass: 2
Flags: W
AnchorPoint: "top" 922 1631 basechar 0
AnchorPoint: "base" 248 -124 basechar 0
LayerCount: 2
Fore
SplineSet
340 935 m 257,0,-1
 266 730 l 257,1,-1
 742 730 l 257,2,-1
 816 935 l 257,3,-1
 340 935 l 257,0,-1
670 1548 m 257,4,-1
 107 0 l 257,5,-1
 309 0 l 257,6,-1
 872 1548 l 257,7,-1
 670 1548 l 257,4,-1
996 1548 m 257,8,-1
 924 1350 l 257,9,-1
 1195 767 l 257,10,-1
 1288 1023 l 257,11,-1
 996 1548 l 257,8,-1
514 201 m 257,12,-1
 441 0 l 257,13,-1
 1193 769 l 257,14,-1
 1285 1023 l 257,15,-1
 514 201 l 257,12,-1
834 1548 m 257,16,-1
 762 1349 l 257,17,-1
 924 1349 l 257,18,-1
 996 1548 l 257,19,-1
 834 1548 l 257,16,-1
352 200 m 257,20,-1
 279 0 l 257,21,-1
 441 0 l 257,22,-1
 514 200 l 257,23,-1
 352 200 l 257,20,-1
EndSplineSet
EndChar

StartChar: E
Encoding: 69 69 24
GlifName: E_
Width: 1024
VWidth: 0
GlyphClass: 2
Flags: W
AnchorPoint: "top" 822 1645 basechar 0
AnchorPoint: "base" 294 -84 basechar 0
LayerCount: 2
Fore
SplineSet
393 1537 m 257,0,-1
 -166 0 l 257,1,-1
 34 0 l 257,2,-1
 593 1537 l 257,3,-1
 393 1537 l 257,0,-1
471 1537 m 257,4,-1
 397 1333 l 257,5,-1
 1116 1333 l 257,6,-1
 1190 1537 l 257,7,-1
 471 1537 l 257,4,-1
-25 203 m 257,8,-1
 -99 0 l 257,9,-1
 647 0 l 257,10,-1
 721 203 l 257,11,-1
 -25 203 l 257,8,-1
224 888 m 257,12,-1
 151 688 l 257,13,-1
 650 688 l 257,14,-1
 723 888 l 257,15,-1
 224 888 l 257,12,-1
EndSplineSet
EndChar

StartChar: Eng
Encoding: 330 330 33
GlifName: E_ng
Width: 1024
VWidth: 0
GlyphClass: 2
Flags: W
AnchorPoint: "top" 498 1627 basechar 0
AnchorPoint: "base" 524 -511 basechar 0
LayerCount: 2
Fore
SplineSet
524 -211 m 257,0,-1
 524 -406 l 257,1,-1
 911 -406 l 257,2,-1
 911 -211 l 257,3,-1
 524 -211 l 257,0,-1
112 1490 m 257,4,-1
 112 0 l 257,5,-1
 313 0 l 257,6,-1
 313 1490 l 257,7,-1
 112 1490 l 257,4,-1
711 1476 m 257,8,-1
 711 -406 l 257,9,-1
 912 -406 l 257,10,-1
 912 1476 l 257,11,-1
 711 1476 l 257,8,-1
112 1548 m 257,12,-1
 112 1353 l 257,13,-1
 911 1353 l 257,14,-1
 911 1548 l 257,15,-1
 112 1548 l 257,12,-1
EndSplineSet
EndChar

StartChar: Eth
Encoding: 208 208 35
GlifName: E_th
Width: 1024
VWidth: 0
GlyphClass: 2
Flags: W
AnchorPoint: "top" 958 1645 basechar 0
AnchorPoint: "base" 292 -132 basechar 0
LayerCount: 2
Fore
SplineSet
340 935 m 257,0,-1
 266 730 l 257,1,-1
 742 730 l 257,2,-1
 816 935 l 257,3,-1
 340 935 l 257,0,-1
670 1548 m 257,4,-1
 107 0 l 257,5,-1
 309 0 l 257,6,-1
 872 1548 l 257,7,-1
 670 1548 l 257,4,-1
996 1548 m 257,8,-1
 924 1350 l 257,9,-1
 1195 767 l 257,10,-1
 1288 1023 l 257,11,-1
 996 1548 l 257,8,-1
514 201 m 257,12,-1
 441 0 l 257,13,-1
 1193 769 l 257,14,-1
 1285 1023 l 257,15,-1
 514 201 l 257,12,-1
834 1548 m 257,16,-1
 762 1349 l 257,17,-1
 924 1349 l 257,18,-1
 996 1548 l 257,19,-1
 834 1548 l 257,16,-1
352 200 m 257,20,-1
 279 0 l 257,21,-1
 441 0 l 257,22,-1
 514 200 l 257,23,-1
 352 200 l 257,20,-1
EndSplineSet
EndChar

StartChar: Euro
Encoding: 8364 8364 36
GlifName: E_uro
Width: 1024
VWidth: 0
GlyphClass: 2
Flags: W
LayerCount: 2
Fore
SplineSet
303 520 m 257,0,-1
 249 372 l 257,1,-1
 1045 372 l 257,2,-1
 1099 520 l 257,3,-1
 303 520 l 257,0,-1
466 935 m 257,4,-1
 413 788 l 257,5,-1
 1193 788 l 257,6,-1
 1246 935 l 257,7,-1
 466 935 l 257,4,-1
754 1023 m 257,8,-1
 447 179 l 257,9,-1
 637 179 l 257,10,-1
 944 1023 l 257,11,-1
 754 1023 l 257,8,-1
1294 1633 m 257,12,-1
 753 1023 l 257,13,-1
 944 1023 l 257,14,-1
 1403 1601 l 257,15,-1
 1294 1633 l 257,12,-1
447 179 m 257,16,-1
 578 -406 l 257,17,-1
 730 -406 l 257,18,-1
 637 179 l 257,19,-1
 447 179 l 257,16,-1
EndSplineSet
EndChar

StartChar: F
Encoding: 70 70 37
GlifName: F_
Width: 1024
VWidth: 0
GlyphClass: 2
Flags: W
AnchorPoint: "top" 815 1648 basechar 0
AnchorPoint: "base" 266 -71 basechar 0
LayerCount: 2
Fore
SplineSet
426 1548 m 257,0,-1
 -138 0 l 257,1,-1
 62 0 l 257,2,-1
 626 1548 l 257,3,-1
 426 1548 l 257,0,-1
528 1548 m 257,4,-1
 455 1347 l 257,5,-1
 1089 1347 l 257,6,-1
 1162 1548 l 257,7,-1
 528 1548 l 257,4,-1
271 875 m 257,8,-1
 197 672 l 257,9,-1
 746 672 l 257,10,-1
 820 875 l 257,11,-1
 271 875 l 257,8,-1
EndSplineSet
EndChar

StartChar: G
Encoding: 71 71 38
GlifName: G_
Width: 1024
VWidth: 0
GlyphClass: 2
Flags: W
AnchorPoint: "top" 826 1637 basechar 0
AnchorPoint: "base" 268 -58 basechar 0
LayerCount: 2
Fore
SplineSet
415 1548 m 257,0,-1
 -149 0 l 257,1,-1
 53 0 l 257,2,-1
 617 1548 l 257,3,-1
 415 1548 l 257,0,-1
473 1548 m 257,4,-1
 400 1347 l 257,5,-1
 1100 1347 l 257,6,-1
 1173 1548 l 257,7,-1
 473 1548 l 257,4,-1
-44 202 m 257,8,-1
 -118 0 l 257,9,-1
 645 0 l 257,10,-1
 719 202 l 257,11,-1
 -44 202 l 257,8,-1
650 561 m 257,12,-1
 453 18 l 257,13,-1
 652 18 l 257,14,-1
 849 561 l 257,15,-1
 650 561 l 257,12,-1
EndSplineSet
EndChar

StartChar: H
Encoding: 72 72 42
GlifName: H_
Width: 1024
VWidth: 0
GlyphClass: 2
Flags: W
AnchorPoint: "top" 820 1642 basechar 0
AnchorPoint: "base" 208 -46 basechar 0
LayerCount: 2
Fore
SplineSet
394 1537 m 257,0,-1
 -166 0 l 257,1,-1
 34 0 l 257,2,-1
 594 1537 l 257,3,-1
 394 1537 l 257,0,-1
980 1537 m 257,4,-1
 420 0 l 257,5,-1
 630 0 l 257,6,-1
 1190 1537 l 257,7,-1
 980 1537 l 257,4,-1
327 1023 m 257,8,-1
 252 818 l 257,9,-1
 798 818 l 257,10,-1
 873 1023 l 257,11,-1
 327 1023 l 257,8,-1
EndSplineSet
EndChar

StartChar: Hbar
Encoding: 294 294 43
GlifName: H_bar
Width: 1024
VWidth: 0
GlyphClass: 2
Flags: W
LayerCount: 2
Fore
SplineSet
648 1537 m 257,0,-1
 89 0 l 257,1,-1
 289 0 l 257,2,-1
 848 1537 l 257,3,-1
 648 1537 l 257,0,-1
1234 1537 m 257,4,-1
 675 0 l 257,5,-1
 885 0 l 257,6,-1
 1444 1537 l 257,7,-1
 1234 1537 l 257,4,-1
581 1023 m 257,8,-1
 507 818 l 257,9,-1
 1053 818 l 257,10,-1
 1127 1023 l 257,11,-1
 581 1023 l 257,8,-1
550 1434 m 257,12,-1
 474 1226 l 257,13,-1
 1399 1226 l 257,14,-1
 1475 1434 l 257,15,-1
 550 1434 l 257,12,-1
EndSplineSet
EndChar

StartChar: I
Encoding: 73 73 45
GlifName: I_
Width: 1024
VWidth: 0
GlyphClass: 2
Flags: W
AnchorPoint: "top" 790 1645 basechar 0
AnchorPoint: "base" 236 -50 basechar 0
LayerCount: 2
Fore
SplineSet
450 1537 m 257,0,-1
 377 1335 l 257,1,-1
 1078 1335 l 257,2,-1
 1151 1537 l 257,3,-1
 450 1537 l 257,0,-1
658 1468 m 257,4,-1
 154 84 l 257,5,-1
 354 84 l 257,6,-1
 858 1468 l 257,7,-1
 658 1468 l 257,4,-1
-55 204 m 257,8,-1
 -127 6 l 257,9,-1
 629 6 l 257,10,-1
 701 204 l 257,11,-1
 -55 204 l 257,8,-1
EndSplineSet
EndChar

StartChar: J
Encoding: 74 74 56
GlifName: J_
Width: 1024
VWidth: 0
GlyphClass: 2
Flags: W
AnchorPoint: "base" 534 -67 basechar 0
AnchorPoint: "top" 1071 1602 basechar 0
LayerCount: 2
Fore
SplineSet
977 1527 m 257,0,-1
 421 0 l 257,1,-1
 621 0 l 257,2,-1
 1177 1527 l 257,3,-1
 977 1527 l 257,0,-1
-77 208 m 257,4,-1
 -153 0 l 257,5,-1
 462 0 l 257,6,-1
 538 208 l 257,7,-1
 -77 208 l 257,4,-1
29 503 m 257,8,-1
 -135 52 l 257,9,-1
 63 52 l 257,10,-1
 227 503 l 257,11,-1
 29 503 l 257,8,-1
EndSplineSet
EndChar

StartChar: K
Encoding: 75 75 58
GlifName: K_
Width: 1024
VWidth: 0
GlyphClass: 2
Flags: W
AnchorPoint: "base" 202 -86 basechar 0
AnchorPoint: "top" 524 1642 basechar 0
LayerCount: 2
Fore
SplineSet
382 1537 m 257,0,-1
 -176 5 l 257,1,-1
 25 5 l 257,2,-1
 583 1537 l 257,3,-1
 382 1537 l 257,0,-1
231 999 m 257,4,-1
 290 835 l 257,5,-1
 1200 1529 l 257,6,-1
 933 1529 l 257,7,-1
 231 999 l 257,4,-1
288 798 m 257,8,-1
 94 643 l 257,9,-1
 415 0 l 257,10,-1
 696 0 l 257,11,-1
 288 798 l 257,8,-1
EndSplineSet
EndChar

StartChar: L
Encoding: 76 76 59
GlifName: L_
Width: 1024
VWidth: 0
GlyphClass: 2
Flags: W
AnchorPoint: "base" 498 -43 basechar 0
AnchorPoint: "top" 780 1663 basechar 0
LayerCount: 2
Fore
SplineSet
619 1542 m 257,0,-1
 58 0 l 257,1,-1
 256 0 l 257,2,-1
 817 1542 l 257,3,-1
 619 1542 l 257,0,-1
240 202 m 257,4,-1
 167 0 l 257,5,-1
 893 0 l 257,6,-1
 966 202 l 257,7,-1
 240 202 l 257,4,-1
EndSplineSet
EndChar

StartChar: Lcaron
Encoding: 317 317 61
GlifName: L_caron
Width: 1024
VWidth: 0
GlyphClass: 2
Flags: W
LayerCount: 2
Fore
SplineSet
614 1542 m 257,0,-1
 53 0 l 257,1,-1
 251 0 l 257,2,-1
 812 1542 l 257,3,-1
 614 1542 l 257,0,-1
236 202 m 257,4,-1
 162 0 l 257,5,-1
 888 0 l 257,6,-1
 962 202 l 257,7,-1
 236 202 l 257,4,-1
991 1496 m 257,8,-1
 907 1264 l 257,9,-1
 1037 1264 l 257,10,-1
 1122 1496 l 257,11,-1
 991 1496 l 257,8,-1
EndSplineSet
EndChar

StartChar: Lslash
Encoding: 321 321 63
GlifName: L_slash
Width: 1024
VWidth: 0
GlyphClass: 2
Flags: W
LayerCount: 2
Fore
SplineSet
732 1542 m 257,0,-1
 171 0 l 257,1,-1
 369 0 l 257,2,-1
 930 1542 l 257,3,-1
 732 1542 l 257,0,-1
354 202 m 257,4,-1
 280 0 l 257,5,-1
 1006 0 l 257,6,-1
 1080 202 l 257,7,-1
 354 202 l 257,4,-1
344 902 m 257,8,-1
 362 730 l 257,9,-1
 869 932 l 257,10,-1
 852 1104 l 257,11,-1
 344 902 l 257,8,-1
EndSplineSet
EndChar

StartChar: M
Encoding: 77 77 64
GlifName: M_
Width: 1024
VWidth: 0
GlyphClass: 2
Flags: W
AnchorPoint: "base" 288 -67 basechar 0
AnchorPoint: "top" 814 1620 basechar 0
LayerCount: 2
Fore
SplineSet
384 1548 m 257,0,-1
 -179 0 l 257,1,-1
 24 0 l 257,2,-1
 587 1548 l 257,3,-1
 384 1548 l 257,0,-1
1001 1537 m 257,4,-1
 442 0 l 257,5,-1
 644 0 l 257,6,-1
 1203 1537 l 257,7,-1
 1001 1537 l 257,4,-1
378 1429 m 257,8,-1
 523 1031 l 257,9,-1
 711 1031 l 257,10,-1
 563 1548 l 257,11,-1
 378 1429 l 257,8,-1
1028 1537 m 257,12,-1
 519 1023 l 257,13,-1
 706 1023 l 257,14,-1
 1176 1488 l 257,15,-1
 1028 1537 l 257,12,-1
EndSplineSet
EndChar

StartChar: N
Encoding: 78 78 65
GlifName: N_
Width: 1024
VWidth: 0
GlyphClass: 2
Flags: W
AnchorPoint: "top" 820 1617 basechar 0
AnchorPoint: "base" 256 -55 basechar 0
LayerCount: 2
Fore
SplineSet
379 1548 m 257,0,-1
 -184 0 l 257,1,-1
 21 0 l 257,2,-1
 584 1548 l 257,3,-1
 379 1548 l 257,0,-1
1006 1548 m 257,4,-1
 443 0 l 257,5,-1
 645 0 l 257,6,-1
 1208 1548 l 257,7,-1
 1006 1548 l 257,4,-1
380 1548 m 257,8,-1
 444 0 l 257,9,-1
 647 0 l 257,10,-1
 585 1548 l 257,11,-1
 380 1548 l 257,8,-1
EndSplineSet
EndChar

StartChar: O
Encoding: 79 79 69
GlifName: O_
Width: 1024
VWidth: 0
GlyphClass: 2
Flags: W
AnchorPoint: "top" 857 1630 basechar 0
AnchorPoint: "base" 524 -109 basechar 0
LayerCount: 2
Fore
SplineSet
392 1537 m 257,0,-1
 -168 0 l 257,1,-1
 33 0 l 257,2,-1
 593 1537 l 257,3,-1
 392 1537 l 257,0,-1
989 1537 m 257,4,-1
 429 0 l 257,5,-1
 632 0 l 257,6,-1
 1192 1537 l 257,7,-1
 989 1537 l 257,4,-1
456 1537 m 257,8,-1
 383 1337 l 257,9,-1
 1026 1337 l 257,10,-1
 1099 1537 l 257,11,-1
 456 1537 l 257,8,-1
-53 204 m 257,12,-1
 -128 0 l 257,13,-1
 545 0 l 257,14,-1
 620 204 l 257,15,-1
 -53 204 l 257,12,-1
EndSplineSet
EndChar

StartChar: OE
Encoding: 338 338 70
GlifName: O_E_
Width: 1024
VWidth: 0
GlyphClass: 2
Flags: W
AnchorPoint: "top" 755 1650 basechar 0
AnchorPoint: "base" 126 -78 basechar 0
LayerCount: 2
Fore
SplineSet
393 1548 m 257,0,-1
 -171 0 l 257,1,-1
 30 0 l 257,2,-1
 594 1548 l 257,3,-1
 393 1548 l 257,0,-1
785 1548 m 257,4,-1
 221 0 l 257,5,-1
 422 0 l 257,6,-1
 986 1548 l 257,7,-1
 785 1548 l 257,4,-1
430 1548 m 257,8,-1
 357 1349 l 257,9,-1
 1089 1349 l 257,10,-1
 1162 1548 l 257,11,-1
 430 1548 l 257,8,-1
-59 200 m 257,12,-1
 -132 0 l 257,13,-1
 606 0 l 257,14,-1
 679 200 l 257,15,-1
 -59 200 l 257,12,-1
637 859 m 257,16,-1
 564 659 l 257,17,-1
 808 659 l 257,18,-1
 881 859 l 257,19,-1
 637 859 l 257,16,-1
EndSplineSet
EndChar

StartChar: Oslash
Encoding: 216 216 79
GlifName: O_slash
Width: 1024
VWidth: 0
GlyphClass: 2
Flags: W
AnchorPoint: "top" 1137 1639 basechar 0
AnchorPoint: "base" 553 -87 basechar 0
LayerCount: 2
Fore
SplineSet
1395 1667 m 257,0,-1
 19 -45 l 257,1,-1
 180 -118 l 257,2,-1
 1556 1594 l 257,3,-1
 1395 1667 l 257,0,-1
669 1537 m 257,4,-1
 110 0 l 257,5,-1
 311 0 l 257,6,-1
 870 1537 l 257,7,-1
 669 1537 l 257,4,-1
1266 1537 m 257,8,-1
 707 0 l 257,9,-1
 910 0 l 257,10,-1
 1469 1537 l 257,11,-1
 1266 1537 l 257,8,-1
733 1537 m 257,12,-1
 661 1337 l 257,13,-1
 1304 1337 l 257,14,-1
 1376 1537 l 257,15,-1
 733 1537 l 257,12,-1
224 204 m 257,16,-1
 150 0 l 257,17,-1
 823 0 l 257,18,-1
 897 204 l 257,19,-1
 224 204 l 257,16,-1
EndSplineSet
EndChar

StartChar: P
Encoding: 80 80 82
GlifName: P_
Width: 1024
VWidth: 0
GlyphClass: 2
Flags: W
AnchorPoint: "base" 508 -19 basechar 0
AnchorPoint: "top" 730 1658 basechar 0
LayerCount: 2
Fore
SplineSet
415 1548 m 257,0,-1
 -146 9 l 257,1,-1
 44 9 l 257,2,-1
 605 1548 l 257,3,-1
 415 1548 l 257,0,-1
494 1548 m 257,4,-1
 420 1346 l 257,5,-1
 1076 1346 l 257,6,-1
 1150 1548 l 257,7,-1
 494 1548 l 257,4,-1
970 1548 m 257,8,-1
 727 881 l 257,9,-1
 927 881 l 257,10,-1
 1170 1548 l 257,11,-1
 970 1548 l 257,8,-1
303 1068 m 257,12,-1
 230 868 l 257,13,-1
 917 868 l 257,14,-1
 990 1068 l 257,15,-1
 303 1068 l 257,12,-1
EndSplineSet
EndChar

StartChar: Q
Encoding: 81 81 83
GlifName: Q_
Width: 1024
VWidth: 0
GlyphClass: 2
Flags: W
AnchorPoint: "base" 226 -35 basechar 0
AnchorPoint: "top" 765 1626 basechar 0
LayerCount: 2
Fore
SplineSet
391 1537 m 257,0,-1
 -167 5 l 257,1,-1
 32 5 l 257,2,-1
 590 1537 l 257,3,-1
 391 1537 l 257,0,-1
990 1537 m 257,4,-1
 430 0 l 257,5,-1
 631 0 l 257,6,-1
 1191 1537 l 257,7,-1
 990 1537 l 257,4,-1
455 1537 m 257,8,-1
 382 1337 l 257,9,-1
 1025 1337 l 257,10,-1
 1098 1537 l 257,11,-1
 455 1537 l 257,8,-1
-54 205 m 257,12,-1
 -129 0 l 257,13,-1
 544 0 l 257,14,-1
 619 205 l 257,15,-1
 -54 205 l 257,12,-1
287 21 m 257,16,-1
 362 -285 l 257,17,-1
 595 -169 l 257,18,-1
 520 137 l 257,19,-1
 287 21 l 257,16,-1
EndSplineSet
EndChar

StartChar: R
Encoding: 82 82 84
GlifName: R_
Width: 1024
VWidth: 0
GlyphClass: 2
Flags: W
AnchorPoint: "base" 275 -59 basechar 0
AnchorPoint: "top" 803 1636 basechar 0
LayerCount: 2
Fore
SplineSet
411 1537 m 257,0,-1
 -149 0 l 257,1,-1
 52 0 l 257,2,-1
 612 1537 l 257,3,-1
 411 1537 l 257,0,-1
490 1537 m 257,4,-1
 416 1335 l 257,5,-1
 1072 1335 l 257,6,-1
 1146 1537 l 257,7,-1
 490 1537 l 257,4,-1
973 1537 m 257,8,-1
 731 872 l 257,9,-1
 931 872 l 257,10,-1
 1173 1537 l 257,11,-1
 973 1537 l 257,8,-1
307 1079 m 257,12,-1
 230 868 l 257,13,-1
 917 868 l 257,14,-1
 994 1079 l 257,15,-1
 307 1079 l 257,12,-1
371 874 m 257,16,-1
 455 0 l 257,17,-1
 695 0 l 257,18,-1
 598 872 l 257,19,-1
 371 874 l 257,16,-1
EndSplineSet
EndChar

StartChar: S
Encoding: 83 83 87
GlifName: S_
Width: 1024
VWidth: 0
GlyphClass: 2
Flags: W
AnchorPoint: "top" 834 1644 basechar 0
AnchorPoint: "base" 330 -77 basechar 0
LayerCount: 2
Fore
SplineSet
479 1537 m 257,0,-1
 406 1336 l 257,1,-1
 1004 1336 l 257,2,-1
 1077 1537 l 257,3,-1
 479 1537 l 257,0,-1
481 1542 m 257,4,-1
 293 1028 l 257,5,-1
 495 1028 l 257,6,-1
 683 1542 l 257,7,-1
 481 1542 l 257,4,-1
20 199 m 257,8,-1
 -53 0 l 257,9,-1
 655 0 l 257,10,-1
 728 199 l 257,11,-1
 20 199 l 257,8,-1
490 0 m 257,12,-1
 691 0 l 257,13,-1
 820 355 l 257,14,-1
 619 355 l 257,15,-1
 490 0 l 257,12,-1
293 1028 m 257,16,-1
 619 355 l 257,17,-1
 820 355 l 257,18,-1
 495 1028 l 257,19,-1
 293 1028 l 257,16,-1
EndSplineSet
EndChar

StartChar: T
Encoding: 84 84 92
GlifName: T_
Width: 1024
VWidth: 0
GlyphClass: 2
Flags: W
AnchorPoint: "top" 704 1629 basechar 0
AnchorPoint: "base" 100 -79 basechar 0
LayerCount: 2
Fore
SplineSet
262 1548 m 257,0,-1
 189 1348 l 257,1,-1
 963 1348 l 257,2,-1
 1036 1548 l 257,3,-1
 262 1548 l 257,0,-1
508 1436 m 257,4,-1
 -12 6 l 257,5,-1
 188 6 l 257,6,-1
 708 1436 l 257,7,-1
 508 1436 l 257,4,-1
EndSplineSet
EndChar

StartChar: Thorn
Encoding: 222 222 94
GlifName: T_horn
Width: 1024
VWidth: 0
GlyphClass: 2
Flags: W
LayerCount: 2
Fore
SplineSet
673 1542 m 257,0,-1
 115 9 l 257,1,-1
 305 9 l 257,2,-1
 863 1542 l 257,3,-1
 673 1542 l 257,0,-1
640 1234 m 257,4,-1
 568 1035 l 257,5,-1
 1224 1035 l 257,6,-1
 1296 1234 l 257,7,-1
 640 1234 l 257,4,-1
1116 1233 m 257,8,-1
 874 569 l 257,9,-1
 1074 569 l 257,10,-1
 1316 1233 l 257,11,-1
 1116 1233 l 257,8,-1
428 684 m 257,12,-1
 355 484 l 257,13,-1
 1042 484 l 257,14,-1
 1115 684 l 257,15,-1
 428 684 l 257,12,-1
EndSplineSet
EndChar

StartChar: U
Encoding: 85 85 95
GlifName: U_
Width: 1024
VWidth: 0
GlyphClass: 2
Flags: W
AnchorPoint: "top" 778 1642 basechar 0
AnchorPoint: "base" 201 -100 basechar 0
LayerCount: 2
Fore
SplineSet
437 1537 m 257,0,-1
 -123 0 l 257,1,-1
 77 0 l 257,2,-1
 637 1537 l 257,3,-1
 437 1537 l 257,0,-1
948 1537 m 257,4,-1
 388 0 l 257,5,-1
 587 0 l 257,6,-1
 1147 1537 l 257,7,-1
 948 1537 l 257,4,-1
-3 200 m 257,8,-1
 -76 0 l 257,9,-1
 544 0 l 257,10,-1
 617 200 l 257,11,-1
 -3 200 l 257,8,-1
EndSplineSet
EndChar

StartChar: V
Encoding: 86 86 107
GlifName: V_
Width: 1024
VWidth: 0
GlyphClass: 2
Flags: W
AnchorPoint: "top" 681 1642 basechar 0
AnchorPoint: "base" 103 -82 basechar 0
LayerCount: 2
Fore
SplineSet
258 1548 m 257,0,-1
 -45 0 l 257,1,-1
 176 0 l 257,2,-1
 459 1548 l 257,3,-1
 258 1548 l 257,0,-1
868 1548 m 257,4,-1
 80 0 l 257,5,-1
 303 0 l 257,6,-1
 1069 1548 l 257,7,-1
 868 1548 l 257,4,-1
EndSplineSet
EndChar

StartChar: W
Encoding: 87 87 108
GlifName: W_
Width: 1024
VWidth: 0
GlyphClass: 2
Flags: W
AnchorPoint: "base" 234 -67 basechar 0
AnchorPoint: "top" 822 1627 basechar 0
LayerCount: 2
Fore
SplineSet
385 1548 m 257,0,-1
 -178 0 l 257,1,-1
 23 0 l 257,2,-1
 586 1548 l 257,3,-1
 385 1548 l 257,0,-1
1002 1548 m 257,4,-1
 443 12 l 257,5,-1
 644 12 l 257,6,-1
 1203 1548 l 257,7,-1
 1002 1548 l 257,4,-1
505 1028 m 257,8,-1
 131 0 l 257,9,-1
 332 0 l 257,10,-1
 706 1028 l 257,11,-1
 505 1028 l 257,8,-1
-106 201 m 257,12,-1
 -179 0 l 257,13,-1
 640 0 l 257,14,-1
 713 201 l 257,15,-1
 -106 201 l 257,12,-1
EndSplineSet
EndChar

StartChar: X
Encoding: 88 88 113
GlifName: X_
Width: 1024
VWidth: 0
GlyphClass: 2
Flags: W
AnchorPoint: "top" 811 1627 basechar 0
AnchorPoint: "base" 288 -32 basechar 0
LayerCount: 2
Fore
SplineSet
374 1548 m 257,0,-1
 453 0 l 257,1,-1
 653 0 l 257,2,-1
 573 1548 l 257,3,-1
 374 1548 l 257,0,-1
-184 6 m 257,4,-1
 17 6 l 257,5,-1
 1208 1548 l 257,6,-1
 1009 1548 l 257,7,-1
 -184 6 l 257,4,-1
EndSplineSet
EndChar

StartChar: Y
Encoding: 89 89 114
GlifName: Y_
Width: 1024
VWidth: 0
GlyphClass: 2
Flags: W
AnchorPoint: "top" 662 1638 basechar 0
AnchorPoint: "base" 75 -123 basechar 0
LayerCount: 2
Fore
SplineSet
330 897 m 257,0,-1
 4 0 l 257,1,-1
 206 0 l 257,2,-1
 532 897 l 257,3,-1
 330 897 l 257,0,-1
316 1548 m 257,4,-1
 65 859 l 257,5,-1
 265 859 l 257,6,-1
 516 1548 l 257,7,-1
 316 1548 l 257,4,-1
821 1548 m 257,8,-1
 570 859 l 257,9,-1
 769 859 l 257,10,-1
 1020 1548 l 257,11,-1
 821 1548 l 257,8,-1
193 1023 m 257,12,-1
 133 859 l 257,13,-1
 679 859 l 257,14,-1
 739 1023 l 257,15,-1
 193 1023 l 257,12,-1
EndSplineSet
EndChar

StartChar: Z
Encoding: 90 90 119
GlifName: Z_
Width: 1024
VWidth: 0
GlyphClass: 2
Flags: W
AnchorPoint: "top" 784 1649 basechar 0
AnchorPoint: "base" 178 -84 basechar 0
LayerCount: 2
Fore
SplineSet
376 1548 m 257,0,-1
 299 1336 l 257,1,-1
 1133 1336 l 257,2,-1
 1210 1548 l 257,3,-1
 376 1548 l 257,0,-1
-109 212 m 257,4,-1
 -186 0 l 257,5,-1
 642 0 l 257,6,-1
 719 212 l 257,7,-1
 -109 212 l 257,4,-1
872 1335 m 257,8,-1
 -109 211 l 257,9,-1
 98 211 l 257,10,-1
 1117 1335 l 257,11,-1
 872 1335 l 257,8,-1
EndSplineSet
EndChar

StartChar: a
Encoding: 97 97 123
GlifName: a
Width: 1024
VWidth: 0
GlyphClass: 2
Flags: W
AnchorPoint: "top" 659 1144 basechar 0
AnchorPoint: "base" 347 -76 basechar 0
LayerCount: 2
Fore
SplineSet
354 1023 m 257,0,-1
 281 824 l 257,1,-1
 887 824 l 257,2,-1
 960 1023 l 257,3,-1
 354 1023 l 257,0,-1
847 1023 m 257,4,-1
 474 0 l 257,5,-1
 668 0 l 257,6,-1
 1041 1023 l 257,7,-1
 847 1023 l 257,4,-1
203 599 m 257,8,-1
 131 400 l 257,9,-1
 755 400 l 257,10,-1
 827 599 l 257,11,-1
 203 599 l 257,8,-1
195 575 m 257,12,-1
 -15 0 l 257,13,-1
 186 0 l 257,14,-1
 396 575 l 257,15,-1
 195 575 l 257,12,-1
56 201 m 257,16,-1
 -17 0 l 257,17,-1
 673 0 l 257,18,-1
 746 201 l 257,19,-1
 56 201 l 257,16,-1
EndSplineSet
EndChar

StartChar: acute
Encoding: 180 180 127
GlifName: acute
Width: 1024
VWidth: 0
GlyphClass: 2
Flags: W
LayerCount: 2
Fore
SplineSet
587 1556 m 257,0,-1
 364 1302 l 257,1,-1
 436 1256 l 257,2,-1
 660 1511 l 257,3,-1
 587 1556 l 257,0,-1
EndSplineSet
EndChar

StartChar: acutecomb
Encoding: 769 769 128
GlifName: acutecomb
Width: 0
VWidth: 0
GlyphClass: 4
Flags: W
AnchorPoint: "top" -8 779 mark 0
LayerCount: 2
Fore
SplineSet
172 1077 m 257,0,-1
 -50 823 l 257,1,-1
 21 777 l 257,2,-1
 245 1032 l 257,3,-1
 172 1077 l 257,0,-1
EndSplineSet
EndChar

StartChar: ae
Encoding: 230 230 130
GlifName: ae
Width: 1024
VWidth: 0
GlyphClass: 2
Flags: W
AnchorPoint: "top" 955 1125 basechar 0
AnchorPoint: "base" 507 -102 basechar 0
LayerCount: 2
Fore
SplineSet
420 1023 m 257,0,-1
 348 824 l 257,1,-1
 1167 824 l 257,2,-1
 1239 1023 l 257,3,-1
 420 1023 l 257,0,-1
821 1023 m 257,4,-1
 449 0 l 257,5,-1
 643 0 l 257,6,-1
 1015 1023 l 257,7,-1
 821 1023 l 257,4,-1
289 599 m 257,8,-1
 217 400 l 257,9,-1
 1014 400 l 257,10,-1
 1086 599 l 257,11,-1
 289 599 l 257,8,-1
280 575 m 257,12,-1
 71 0 l 257,13,-1
 272 0 l 257,14,-1
 481 575 l 257,15,-1
 280 575 l 257,12,-1
142 201 m 257,16,-1
 69 0 l 257,17,-1
 989 0 l 257,18,-1
 1062 201 l 257,19,-1
 142 201 l 257,16,-1
1145 1023 m 257,20,-1
 919 400 l 257,21,-1
 1114 400 l 257,22,-1
 1340 1023 l 257,23,-1
 1145 1023 l 257,20,-1
EndSplineSet
EndChar

StartChar: ampersand
Encoding: 38 38 134
GlifName: ampersand
Width: 1024
VWidth: 0
GlyphClass: 2
Flags: W
LayerCount: 2
Fore
SplineSet
595 1537 m 257,0,-1
 488 12 l 257,1,-1
 650 56 l 257,2,-1
 757 1537 l 257,3,-1
 595 1537 l 257,0,-1
1089 1401 m 257,4,-1
 1139 1537 l 257,5,-1
 673 1537 l 257,6,-1
 623 1401 l 257,7,-1
 1089 1401 l 257,4,-1
945 1446 m 257,8,-1
 753 917 l 257,9,-1
 913 917 l 257,10,-1
 1106 1446 l 257,11,-1
 945 1446 l 257,8,-1
264 1045 m 257,12,-1
 190 843 l 257,13,-1
 886 843 l 257,14,-1
 960 1045 l 257,15,-1
 264 1045 l 257,12,-1
264 1045 m 257,16,-1
 -108 24 l 257,17,-1
 102 24 l 257,18,-1
 474 1045 l 257,19,-1
 264 1045 l 257,16,-1
-48 190 m 257,20,-1
 -115 6 l 257,21,-1
 693 6 l 257,22,-1
 760 190 l 257,23,-1
 -48 190 l 257,20,-1
EndSplineSet
EndChar

StartChar: asciicircum
Encoding: 94 94 138
GlifName: asciicircum
Width: 1024
VWidth: 0
GlyphClass: 2
Flags: W
LayerCount: 2
Fore
SplineSet
813 1023 m 257,0,-1
 664 1023 l 257,1,-1
 175 407 l 257,2,-1
 302 345 l 257,3,-1
 813 1023 l 257,0,-1
627 904 m 257,4,-1
 678 343 l 257,5,-1
 849 400 l 257,6,-1
 813 1023 l 257,7,-1
 627 904 l 257,4,-1
EndSplineSet
EndChar

StartChar: asciitilde
Encoding: 126 126 139
GlifName: asciitilde
Width: 1024
VWidth: 0
GlyphClass: 2
Flags: W
LayerCount: 2
Fore
SplineSet
384 815 m 257,0,-1
 348 716 l 257,1,-1
 676 655 l 257,2,-1
 712 754 l 257,3,-1
 384 815 l 257,0,-1
125 757 m 257,4,-1
 105 659 l 257,5,-1
 348 716 l 257,6,-1
 384 815 l 257,7,-1
 125 757 l 257,4,-1
712 754 m 257,8,-1
 676 655 l 257,9,-1
 908 796 l 257,10,-1
 919 892 l 257,11,-1
 712 754 l 257,8,-1
EndSplineSet
EndChar

StartChar: asterisk
Encoding: 42 42 140
GlifName: asterisk
Width: 1024
VWidth: 0
GlyphClass: 2
Flags: W
LayerCount: 2
Fore
SplineSet
588 1297 m 257,0,-1
 225 300 l 257,1,-1
 455 300 l 257,2,-1
 818 1297 l 257,3,-1
 588 1297 l 257,0,-1
159 1099 m 257,4,-1
 618 360 l 257,5,-1
 829 504 l 257,6,-1
 365 1241 l 257,7,-1
 159 1099 l 257,4,-1
959 1232 m 257,8,-1
 -21 525 l 257,9,-1
 65 372 l 257,10,-1
 1045 1079 l 257,11,-1
 959 1232 l 257,8,-1
EndSplineSet
EndChar

StartChar: at
Encoding: 64 64 141
GlifName: at
Width: 1024
VWidth: 0
GlyphClass: 2
Flags: W
LayerCount: 2
Fore
SplineSet
336 1023 m 257,0,-1
 284 879 l 257,1,-1
 1103 879 l 257,2,-1
 1155 1023 l 257,3,-1
 336 1023 l 257,0,-1
715 592 m 257,4,-1
 500 0 l 257,5,-1
 653 0 l 257,6,-1
 868 592 l 257,7,-1
 715 592 l 257,4,-1
385 600 m 257,8,-1
 329 444 l 257,9,-1
 754 444 l 257,10,-1
 810 600 l 257,11,-1
 385 600 l 257,8,-1
378 589 m 257,12,-1
 168 12 l 257,13,-1
 342 12 l 257,14,-1
 552 589 l 257,15,-1
 378 589 l 257,12,-1
230 188 m 257,16,-1
 162 0 l 257,17,-1
 656 0 l 257,18,-1
 724 188 l 257,19,-1
 230 188 l 257,16,-1
248 1023 m 257,20,-1
 -205 -223 l 257,21,-1
 -29 -223 l 257,22,-1
 424 1023 l 257,23,-1
 248 1023 l 257,20,-1
-157 -86 m 257,24,-1
 -220 -258 l 257,25,-1
 728 -258 l 257,26,-1
 791 -86 l 257,27,-1
 -157 -86 l 257,24,-1
1093 1011 m 257,28,-1
 725 0 l 257,29,-1
 876 0 l 257,30,-1
 1244 1011 l 257,31,-1
 1093 1011 l 257,28,-1
661 175 m 257,32,-1
 597 0 l 257,33,-1
 806 0 l 257,34,-1
 870 175 l 257,35,-1
 661 175 l 257,32,-1
EndSplineSet
EndChar

StartChar: b
Encoding: 98 98 143
GlifName: b
Width: 1024
VWidth: 0
GlyphClass: 2
Flags: W
AnchorPoint: "base" 314 -60 basechar 0
AnchorPoint: "top" 632 1639 basechar 0
LayerCount: 2
Fore
SplineSet
506 1537 m 257,0,-1
 -53 0 l 257,1,-1
 146 0 l 257,2,-1
 705 1537 l 257,3,-1
 506 1537 l 257,0,-1
420 1033 m 257,4,-1
 348 834 l 257,5,-1
 866 834 l 257,6,-1
 938 1033 l 257,7,-1
 420 1033 l 257,4,-1
878 1033 m 257,8,-1
 502 0 l 257,9,-1
 701 0 l 257,10,-1
 1077 1033 l 257,11,-1
 878 1033 l 257,8,-1
147 207 m 257,12,-1
 72 0 l 257,13,-1
 622 0 l 257,14,-1
 697 207 l 257,15,-1
 147 207 l 257,12,-1
EndSplineSet
EndChar

StartChar: backslash
Encoding: 92 92 144
GlifName: backslash
Width: 1024
VWidth: 0
GlyphClass: 2
Flags: W
LayerCount: 2
Fore
SplineSet
353 1441 m 257,0,-1
 451 -13 l 257,1,-1
 671 65 l 257,2,-1
 574 1519 l 257,3,-1
 353 1441 l 257,0,-1
EndSplineSet
EndChar

StartChar: bar
Encoding: 124 124 145
GlifName: bar
Width: 1024
VWidth: 0
GlyphClass: 2
Flags: W
LayerCount: 2
Fore
SplineSet
688 1435 m 257,0,-1
 133 -90 l 257,1,-1
 336 -90 l 257,2,-1
 891 1435 l 257,3,-1
 688 1435 l 257,0,-1
EndSplineSet
EndChar

StartChar: braceleft
Encoding: 123 123 146
GlifName: braceleft
Width: 1024
VWidth: 0
GlyphClass: 2
Flags: W
LayerCount: 2
Fore
SplineSet
693 1548 m 257,0,-1
 435 838 l 257,1,-1
 581 838 l 257,2,-1
 839 1548 l 257,3,-1
 693 1548 l 257,0,-1
296 424 m 257,4,-1
 38 -286 l 257,5,-1
 184 -286 l 257,6,-1
 442 424 l 257,7,-1
 296 424 l 257,4,-1
92 690 m 257,8,-1
 70 630 l 257,9,-1
 581 838 l 257,10,-1
 435 838 l 257,11,-1
 92 690 l 257,8,-1
92 690 m 257,12,-1
 70 630 l 257,13,-1
 295 425 l 257,14,-1
 444 425 l 257,15,-1
 92 690 l 257,12,-1
714 1603 m 257,16,-1
 659 1452 l 257,17,-1
 972 1574 l 257,18,-1
 986 1603 l 257,19,-1
 714 1603 l 257,16,-1
92 -140 m 257,20,-1
 38 -287 l 257,21,-1
 314 -287 l 257,22,-1
 319 -274 l 257,23,-1
 92 -140 l 257,20,-1
EndSplineSet
EndChar

StartChar: braceright
Encoding: 125 125 147
GlifName: braceright
Width: 1024
VWidth: 0
GlyphClass: 2
Flags: W
LayerCount: 2
Fore
SplineSet
987 1548 m 257,0,-1
 825 1548 l 257,1,-1
 567 838 l 257,2,-1
 729 838 l 257,3,-1
 987 1548 l 257,0,-1
564 424 m 257,4,-1
 404 424 l 257,5,-1
 146 -286 l 257,6,-1
 306 -286 l 257,7,-1
 564 424 l 257,4,-1
948 690 m 257,8,-1
 724 838 l 257,9,-1
 563 838 l 257,10,-1
 926 630 l 257,11,-1
 948 690 l 257,8,-1
948 690 m 257,12,-1
 404 424 l 257,13,-1
 564 424 l 257,14,-1
 926 630 l 257,15,-1
 948 690 l 257,12,-1
1008 1603 m 257,16,-1
 733 1603 l 257,17,-1
 727 1574 l 257,18,-1
 953 1452 l 257,19,-1
 1008 1603 l 257,16,-1
344 -140 m 257,20,-1
 19 -274 l 257,21,-1
 16 -284 l 257,22,-1
 292 -284 l 257,23,-1
 344 -140 l 257,20,-1
EndSplineSet
EndChar

StartChar: bracketleft
Encoding: 91 91 148
GlifName: bracketleft
Width: 1024
VWidth: 0
GlyphClass: 2
Flags: W
LayerCount: 2
Fore
SplineSet
705 1542 m 257,0,-1
 56 -242 l 257,1,-1
 178 -242 l 257,2,-1
 827 1542 l 257,3,-1
 705 1542 l 257,0,-1
759 1543 m 257,4,-1
 713 1416 l 257,5,-1
 922 1416 l 257,6,-1
 968 1543 l 257,7,-1
 759 1543 l 257,4,-1
165 -91 m 257,8,-1
 110 -242 l 257,9,-1
 324 -242 l 257,10,-1
 379 -91 l 257,11,-1
 165 -91 l 257,8,-1
EndSplineSet
EndChar

StartChar: bracketright
Encoding: 93 93 149
GlifName: bracketright
Width: 1024
VWidth: 0
GlyphClass: 2
Flags: W
LayerCount: 2
Fore
SplineSet
851 1542 m 257,0,-1
 201 -242 l 257,1,-1
 323 -242 l 257,2,-1
 973 1542 l 257,3,-1
 851 1542 l 257,0,-1
701 1543 m 257,4,-1
 655 1416 l 257,5,-1
 864 1416 l 257,6,-1
 910 1543 l 257,7,-1
 701 1543 l 257,4,-1
106 -91 m 257,8,-1
 51 -242 l 257,9,-1
 265 -242 l 257,10,-1
 320 -91 l 257,11,-1
 106 -91 l 257,8,-1
EndSplineSet
EndChar

StartChar: breve
Encoding: 728 728 150
GlifName: breve
Width: 1024
VWidth: 0
GlyphClass: 2
Flags: W
LayerCount: 2
Fore
SplineSet
659 1548 m 257,0,-1
 635 1480 l 257,1,-1
 824 1548 l 257,2,-1
 860 1645 l 257,3,-1
 659 1548 l 257,0,-1
335 1548 m 257,4,-1
 311 1480 l 257,5,-1
 635 1480 l 257,6,-1
 659 1548 l 257,7,-1
 335 1548 l 257,4,-1
194 1630 m 257,8,-1
 164 1548 l 257,9,-1
 311 1480 l 257,10,-1
 335 1548 l 257,11,-1
 194 1630 l 257,8,-1
EndSplineSet
EndChar

StartChar: brokenbar
Encoding: 166 166 151
GlifName: brokenbar
Width: 1024
VWidth: 0
GlyphClass: 2
Flags: W
LayerCount: 2
Fore
SplineSet
97 -332 m 257,0,-1
 207 -332 l 257,1,-1
 576 682 l 257,2,-1
 466 682 l 257,3,-1
 97 -332 l 257,0,-1
509 790 m 257,4,-1
 619 790 l 257,5,-1
 927 1636 l 257,6,-1
 817 1636 l 257,7,-1
 509 790 l 257,4,-1
EndSplineSet
EndChar

StartChar: bullet
Encoding: 8226 8226 152
GlifName: bullet
Width: 1024
VWidth: 0
GlyphClass: 2
Flags: W
LayerCount: 2
Fore
SplineSet
416 1023 m 257,0,-1
 323 765 l 257,1,-1
 608 765 l 257,2,-1
 701 1023 l 257,3,-1
 416 1023 l 257,0,-1
EndSplineSet
EndChar

StartChar: c
Encoding: 99 99 153
GlifName: c
Width: 1024
VWidth: 0
GlyphClass: 2
Flags: W
AnchorPoint: "base" 352 -67 basechar 0
AnchorPoint: "top" 677 1116 basechar 0
LayerCount: 2
Fore
SplineSet
349 1023 m 257,0,-1
 277 826 l 257,1,-1
 973 826 l 257,2,-1
 1045 1023 l 257,3,-1
 349 1023 l 257,0,-1
337 984 m 257,4,-1
 -21 0 l 257,5,-1
 181 0 l 257,6,-1
 539 984 l 257,7,-1
 337 984 l 257,4,-1
158 201 m 257,8,-1
 85 0 l 257,9,-1
 667 0 l 257,10,-1
 740 201 l 257,11,-1
 158 201 l 257,8,-1
EndSplineSet
EndChar

StartChar: caron
Encoding: 711 711 155
GlifName: caron
Width: 1024
VWidth: 0
GlyphClass: 2
Flags: W
LayerCount: 2
Fore
SplineSet
434 1083 m 257,0,-1
 425 1437 l 257,1,-1
 335 1404 l 257,2,-1
 356 1083 l 257,3,-1
 434 1083 l 257,0,-1
382 1146 m 257,4,-1
 434 1083 l 257,5,-1
 689 1408 l 257,6,-1
 622 1437 l 257,7,-1
 382 1146 l 257,4,-1
EndSplineSet
EndChar

StartChar: cedilla
Encoding: 184 184 160
GlifName: cedilla
Width: 1024
VWidth: 0
GlyphClass: 2
Flags: W
LayerCount: 2
Fore
SplineSet
428 242 m 257,0,-1
 310 -82 l 257,1,-1
 466 -82 l 257,2,-1
 584 242 l 257,3,-1
 428 242 l 257,0,-1
258 -226 m 257,4,-1
 215 -346 l 257,5,-1
 661 -346 l 257,6,-1
 704 -226 l 257,7,-1
 258 -226 l 257,4,-1
657 62 m 257,8,-1
 522 -310 l 257,9,-1
 674 -310 l 257,10,-1
 809 62 l 257,11,-1
 657 62 l 257,8,-1
363 62 m 257,12,-1
 306 -94 l 257,13,-1
 752 -94 l 257,14,-1
 809 62 l 257,15,-1
 363 62 l 257,12,-1
EndSplineSet
EndChar

StartChar: cent
Encoding: 162 162 161
GlifName: cent
Width: 1024
VWidth: 0
GlyphClass: 2
Flags: W
LayerCount: 2
Fore
SplineSet
934 1183 m 257,0,-1
 787 1183 l 257,1,-1
 326 -86 l 257,2,-1
 473 -86 l 257,3,-1
 934 1183 l 257,0,-1
349 1023 m 257,4,-1
 277 826 l 257,5,-1
 973 826 l 257,6,-1
 1045 1023 l 257,7,-1
 349 1023 l 257,4,-1
337 984 m 257,8,-1
 -21 0 l 257,9,-1
 181 0 l 257,10,-1
 539 984 l 257,11,-1
 337 984 l 257,8,-1
158 201 m 257,12,-1
 85 0 l 257,13,-1
 667 0 l 257,14,-1
 740 201 l 257,15,-1
 158 201 l 257,12,-1
EndSplineSet
EndChar

StartChar: circumflex
Encoding: 710 710 162
GlifName: circumflex
Width: 1024
VWidth: 0
GlyphClass: 2
Flags: W
LayerCount: 2
Fore
SplineSet
633 1330 m 257,0,-1
 573 1330 l 257,1,-1
 377 1083 l 257,2,-1
 428 1058 l 257,3,-1
 633 1330 l 257,0,-1
557 1282 m 257,4,-1
 579 1058 l 257,5,-1
 647 1080 l 257,6,-1
 633 1330 l 257,7,-1
 557 1282 l 257,4,-1
EndSplineSet
EndChar

StartChar: colon
Encoding: 58 58 163
GlifName: colon
Width: 1024
VWidth: 0
GlyphClass: 2
Flags: W
LayerCount: 2
Fore
SplineSet
275 430 m 257,0,-1
 192 201 l 257,1,-1
 440 201 l 257,2,-1
 523 430 l 257,3,-1
 275 430 l 257,0,-1
566 1294 m 257,4,-1
 476 1047 l 257,5,-1
 742 1047 l 257,6,-1
 832 1294 l 257,7,-1
 566 1294 l 257,4,-1
EndSplineSet
EndChar

StartChar: comma
Encoding: 44 44 164
GlifName: comma
Width: 1024
VWidth: 0
GlyphClass: 2
Flags: W
LayerCount: 2
Fore
SplineSet
468 237 m 257,0,-1
 384 8 l 257,1,-1
 632 8 l 257,2,-1
 716 237 l 257,3,-1
 468 237 l 257,0,-1
529 135 m 257,4,-1
 308 -146 l 257,5,-1
 430 -206 l 257,6,-1
 627 0 l 257,7,-1
 529 135 l 257,4,-1
EndSplineSet
EndChar

StartChar: copyright
Encoding: 169 169 165
GlifName: copyright
Width: 1024
VWidth: 0
GlyphClass: 2
Flags: W
LayerCount: 2
Fore
SplineSet
291 1537 m 257,0,-1
 -268 0 l 257,1,-1
 -67 0 l 257,2,-1
 492 1537 l 257,3,-1
 291 1537 l 257,0,-1
1089 1537 m 257,4,-1
 530 0 l 257,5,-1
 733 0 l 257,6,-1
 1292 1537 l 257,7,-1
 1089 1537 l 257,4,-1
401 1537 m 257,8,-1
 328 1337 l 257,9,-1
 1019 1337 l 257,10,-1
 1092 1537 l 257,11,-1
 401 1537 l 257,8,-1
-60 204 m 257,12,-1
 -134 0 l 257,13,-1
 539 0 l 257,14,-1
 613 204 l 257,15,-1
 -60 204 l 257,12,-1
413 1197 m 257,16,-1
 340 996 l 257,17,-1
 775 996 l 257,18,-1
 848 1197 l 257,19,-1
 413 1197 l 257,16,-1
399 1154 m 257,20,-1
 103 340 l 257,21,-1
 272 340 l 257,22,-1
 568 1154 l 257,23,-1
 399 1154 l 257,20,-1
159 495 m 257,24,-1
 86 294 l 257,25,-1
 526 294 l 257,26,-1
 599 495 l 257,27,-1
 159 495 l 257,24,-1
EndSplineSet
EndChar

StartChar: currency
Encoding: 164 164 166
GlifName: currency
Width: 1024
VWidth: 0
GlyphClass: 2
Flags: W
LayerCount: 2
Fore
SplineSet
279 1202 m 257,0,-1
 -93 180 l 257,1,-1
 107 180 l 257,2,-1
 479 1202 l 257,3,-1
 279 1202 l 257,0,-1
894 1204 m 257,4,-1
 522 180 l 257,5,-1
 724 180 l 257,6,-1
 1096 1204 l 257,7,-1
 894 1204 l 257,4,-1
402 1204 m 257,8,-1
 329 1002 l 257,9,-1
 915 1002 l 257,10,-1
 988 1204 l 257,11,-1
 402 1204 l 257,8,-1
106 380 m 257,12,-1
 34 181 l 257,13,-1
 606 181 l 257,14,-1
 678 380 l 257,15,-1
 106 380 l 257,12,-1
256 1356 m 257,16,-1
 166 1109 l 257,17,-1
 434 1109 l 257,18,-1
 524 1356 l 257,19,-1
 256 1356 l 257,16,-1
945 1331 m 257,20,-1
 855 1084 l 257,21,-1
 1119 1084 l 257,22,-1
 1209 1331 l 257,23,-1
 945 1331 l 257,20,-1
-95 366 m 257,24,-1
 -185 119 l 257,25,-1
 79 119 l 257,26,-1
 169 366 l 257,27,-1
 -95 366 l 257,24,-1
577 371 m 257,28,-1
 487 124 l 257,29,-1
 751 124 l 257,30,-1
 841 371 l 257,31,-1
 577 371 l 257,28,-1
EndSplineSet
EndChar

StartChar: d
Encoding: 100 100 167
GlifName: d
Width: 1024
VWidth: 0
GlyphClass: 2
Flags: W
AnchorPoint: "base" 298 -63 basechar 0
AnchorPoint: "top" 1032 1632 basechar 0
LayerCount: 2
Fore
SplineSet
969 1527 m 257,0,-1
 414 0 l 257,1,-1
 615 0 l 257,2,-1
 1170 1527 l 257,3,-1
 969 1527 l 257,0,-1
322 1023 m 257,4,-1
 249 822 l 257,5,-1
 802 822 l 257,6,-1
 875 1023 l 257,7,-1
 322 1023 l 257,4,-1
226 1023 m 257,8,-1
 -146 0 l 257,9,-1
 55 0 l 257,10,-1
 427 1023 l 257,11,-1
 226 1023 l 257,8,-1
21 195 m 257,12,-1
 -50 0 l 257,13,-1
 567 0 l 257,14,-1
 638 195 l 257,15,-1
 21 195 l 257,12,-1
EndSplineSet
EndChar

StartChar: dagger
Encoding: 8224 8224 168
GlifName: dagger
Width: 1024
VWidth: 0
GlyphClass: 2
Flags: W
LayerCount: 2
Fore
SplineSet
325 1251 m 257,0,-1
 265 1086 l 257,1,-1
 871 1086 l 257,2,-1
 931 1251 l 257,3,-1
 325 1251 l 257,0,-1
657 1548 m 257,4,-1
 93 0 l 257,5,-1
 238 0 l 257,6,-1
 802 1548 l 257,7,-1
 657 1548 l 257,4,-1
EndSplineSet
EndChar

StartChar: daggerdbl
Encoding: 8225 8225 169
GlifName: daggerdbl
Width: 1024
VWidth: 0
GlyphClass: 2
Flags: W
LayerCount: 2
Fore
SplineSet
210 937 m 257,0,-1
 150 772 l 257,1,-1
 756 772 l 257,2,-1
 816 937 l 257,3,-1
 210 937 l 257,0,-1
325 1251 m 257,4,-1
 265 1086 l 257,5,-1
 871 1086 l 257,6,-1
 931 1251 l 257,7,-1
 325 1251 l 257,4,-1
657 1548 m 257,8,-1
 93 0 l 257,9,-1
 238 0 l 257,10,-1
 802 1548 l 257,11,-1
 657 1548 l 257,8,-1
EndSplineSet
EndChar

StartChar: dcaron
Encoding: 271 271 170
GlifName: dcaron
Width: 1024
VWidth: 0
GlyphClass: 2
Flags: W
LayerCount: 2
Fore
SplineSet
1169 1527 m 257,0,-1
 613 0 l 257,1,-1
 814 0 l 257,2,-1
 1370 1527 l 257,3,-1
 1169 1527 l 257,0,-1
521 1023 m 257,4,-1
 448 822 l 257,5,-1
 1001 822 l 257,6,-1
 1074 1023 l 257,7,-1
 521 1023 l 257,4,-1
425 1023 m 257,8,-1
 53 0 l 257,9,-1
 254 0 l 257,10,-1
 626 1023 l 257,11,-1
 425 1023 l 257,8,-1
220 195 m 257,12,-1
 149 0 l 257,13,-1
 766 0 l 257,14,-1
 837 195 l 257,15,-1
 220 195 l 257,12,-1
1404 1496 m 257,16,-1
 1320 1264 l 257,17,-1
 1450 1264 l 257,18,-1
 1534 1496 l 257,19,-1
 1404 1496 l 257,16,-1
EndSplineSet
EndChar

StartChar: dcroat
Encoding: 273 273 171
GlifName: dcroat
Width: 1024
VWidth: 0
GlyphClass: 2
Flags: W
AnchorPoint: "top" 1338 1627 basechar 0
AnchorPoint: "base" 522 -86 basechar 0
LayerCount: 2
Fore
SplineSet
1248 1527 m 257,0,-1
 692 0 l 257,1,-1
 893 0 l 257,2,-1
 1449 1527 l 257,3,-1
 1248 1527 l 257,0,-1
600 1023 m 257,4,-1
 527 822 l 257,5,-1
 1080 822 l 257,6,-1
 1153 1023 l 257,7,-1
 600 1023 l 257,4,-1
504 1023 m 257,8,-1
 132 0 l 257,9,-1
 333 0 l 257,10,-1
 705 1023 l 257,11,-1
 504 1023 l 257,8,-1
299 195 m 257,12,-1
 228 0 l 257,13,-1
 845 0 l 257,14,-1
 916 195 l 257,15,-1
 299 195 l 257,12,-1
1066 1403 m 257,16,-1
 992 1202 l 257,17,-1
 1436 1202 l 257,18,-1
 1510 1403 l 257,19,-1
 1066 1403 l 257,16,-1
EndSplineSet
EndChar

StartChar: degree
Encoding: 176 176 172
GlifName: degree
Width: 1024
VWidth: 0
GlyphClass: 2
Flags: W
LayerCount: 2
Fore
SplineSet
460 1456 m 257,0,-1
 608 1456 l 257,1,-1
 561 1326 l 257,2,-1
 413 1326 l 257,3,-1
 460 1456 l 257,0,-1
388 1548 m 257,4,-1
 276 1238 l 257,5,-1
 636 1238 l 257,6,-1
 748 1548 l 257,7,-1
 388 1548 l 257,4,-1
EndSplineSet
EndChar

StartChar: dieresis
Encoding: 168 168 173
GlifName: dieresis
Width: 1024
VWidth: 0
GlyphClass: 2
Flags: W
LayerCount: 2
Fore
SplineSet
353 1030 m 257,0,-1
 317 929 l 257,1,-1
 429 929 l 257,2,-1
 465 1030 l 257,3,-1
 353 1030 l 257,0,-1
595 1030 m 257,4,-1
 559 929 l 257,5,-1
 671 929 l 257,6,-1
 707 1030 l 257,7,-1
 595 1030 l 257,4,-1
EndSplineSet
EndChar

StartChar: divide
Encoding: 247 247 174
GlifName: divide
Width: 1024
VWidth: 0
GlyphClass: 2
Flags: W
LayerCount: 2
Fore
SplineSet
557 430 m 257,0,-1
 473 201 l 257,1,-1
 721 201 l 257,2,-1
 805 430 l 257,3,-1
 557 430 l 257,0,-1
847 1294 m 257,4,-1
 757 1047 l 257,5,-1
 1023 1047 l 257,6,-1
 1113 1294 l 257,7,-1
 847 1294 l 257,4,-1
393 808 m 257,8,-1
 317 600 l 257,9,-1
 1143 600 l 257,10,-1
 1219 808 l 257,11,-1
 393 808 l 257,8,-1
EndSplineSet
EndChar

StartChar: dollar
Encoding: 36 36 175
GlifName: dollar
Width: 1024
VWidth: 0
GlyphClass: 2
Flags: W
LayerCount: 2
Fore
SplineSet
479 1537 m 257,0,-1
 414 1358 l 257,1,-1
 1012 1358 l 257,2,-1
 1077 1537 l 257,3,-1
 479 1537 l 257,0,-1
481 1542 m 257,4,-1
 293 1028 l 257,5,-1
 498 1028 l 257,6,-1
 686 1542 l 257,7,-1
 481 1542 l 257,4,-1
7 163 m 257,8,-1
 -53 0 l 257,9,-1
 655 0 l 257,10,-1
 715 163 l 257,11,-1
 7 163 l 257,8,-1
485 0 m 257,12,-1
 691 0 l 257,13,-1
 820 355 l 257,14,-1
 614 355 l 257,15,-1
 485 0 l 257,12,-1
293 1028 m 257,16,-1
 614 355 l 257,17,-1
 820 355 l 257,18,-1
 498 1028 l 257,19,-1
 293 1028 l 257,16,-1
774 1636 m 257,20,-1
 100 -215 l 257,21,-1
 314 -215 l 257,22,-1
 988 1636 l 257,23,-1
 774 1636 l 257,20,-1
EndSplineSet
EndChar

StartChar: dotaccent
Encoding: 729 729 176
GlifName: dotaccent
Width: 1024
VWidth: 0
GlyphClass: 2
Flags: W
LayerCount: 2
Fore
SplineSet
455 1053 m 257,0,-1
 401 902 l 257,1,-1
 569 902 l 257,2,-1
 623 1053 l 257,3,-1
 455 1053 l 257,0,-1
EndSplineSet
EndChar

StartChar: dotbelowcomb
Encoding: 803 803 177
GlifName: dotbelowcomb
Width: 0
VWidth: 0
GlyphClass: 4
Flags: W
AnchorPoint: "base" -70 -191 mark 0
LayerCount: 2
Fore
SplineSet
-206 -204 m 257,0,-1
 -296 -451 l 257,1,-1
 -32 -451 l 257,2,-1
 58 -204 l 257,3,-1
 -206 -204 l 257,0,-1
EndSplineSet
EndChar

StartChar: dotlessi
Encoding: 305 305 178
GlifName: dotlessi
Width: 1024
VWidth: 0
GlyphClass: 2
Flags: W
AnchorPoint: "top" 925 1191 basechar 0
AnchorPoint: "base" 1179 -9 basechar 0
LayerCount: 2
Fore
SplineSet
782 1018 m 257,0,-1
 462 139 l 257,1,-1
 664 139 l 257,2,-1
 984 1018 l 257,3,-1
 782 1018 l 257,0,-1
215 204 m 257,4,-1
 143 6 l 257,5,-1
 885 6 l 257,6,-1
 957 204 l 257,7,-1
 215 204 l 257,4,-1
562 1018 m 257,8,-1
 489 818 l 257,9,-1
 865 818 l 257,10,-1
 938 1018 l 257,11,-1
 562 1018 l 257,8,-1
EndSplineSet
EndChar

StartChar: e
Encoding: 101 101 179
GlifName: e
Width: 1024
VWidth: 0
GlyphClass: 2
Flags: W
AnchorPoint: "top" 730 1156 basechar 0
AnchorPoint: "base" 329 -75 basechar 0
LayerCount: 2
Fore
SplineSet
406 1023 m 257,0,-1
 329 812 l 257,1,-1
 964 812 l 257,2,-1
 1041 1023 l 257,3,-1
 406 1023 l 257,0,-1
356 1023 m 257,4,-1
 -17 0 l 257,5,-1
 185 0 l 257,6,-1
 558 1023 l 257,7,-1
 356 1023 l 257,4,-1
158 201 m 257,8,-1
 85 0 l 257,9,-1
 667 0 l 257,10,-1
 740 201 l 257,11,-1
 158 201 l 257,8,-1
281 625 m 257,12,-1
 216 446 l 257,13,-1
 806 446 l 257,14,-1
 871 625 l 257,15,-1
 281 625 l 257,12,-1
833 993 m 257,16,-1
 633 445 l 257,17,-1
 828 445 l 257,18,-1
 1028 993 l 257,19,-1
 833 993 l 257,16,-1
EndSplineSet
EndChar

StartChar: eight
Encoding: 56 56 187
GlifName: eight
Width: 1024
VWidth: 0
GlyphClass: 2
Flags: W
LayerCount: 2
Fore
SplineSet
337 1548 m 257,0,-1
 -226 0 l 257,1,-1
 687 0 l 257,2,-1
 1250 1548 l 257,3,-1
 337 1548 l 257,0,-1
761 759 m 257,4,-1
 556 197 l 257,5,-1
 49 197 l 257,6,-1
 254 759 l 257,7,-1
 761 759 l 257,4,-1
835 959 m 257,8,-1
 327 959 l 257,9,-1
 469 1350 l 257,10,-1
 977 1350 l 257,11,-1
 835 959 l 257,8,-1
EndSplineSet
EndChar

StartChar: ellipsis
Encoding: 8230 8230 188
GlifName: ellipsis
Width: 1024
VWidth: 0
GlyphClass: 2
Flags: W
LayerCount: 2
Fore
SplineSet
201 114 m 257,0,-1
 159 0 l 257,1,-1
 301 0 l 257,2,-1
 343 114 l 257,3,-1
 201 114 l 257,0,-1
457 114 m 257,4,-1
 415 0 l 257,5,-1
 559 0 l 257,6,-1
 601 114 l 257,7,-1
 457 114 l 257,4,-1
723 114 m 257,8,-1
 681 0 l 257,9,-1
 823 0 l 257,10,-1
 865 114 l 257,11,-1
 723 114 l 257,8,-1
EndSplineSet
EndChar

StartChar: emdash
Encoding: 8212 8212 190
GlifName: emdash
Width: 1024
VWidth: 0
GlyphClass: 2
Flags: W
LayerCount: 2
Fore
SplineSet
-38 600 m 257,0,-1
 986 600 l 257,1,-1
 1062 808 l 257,2,-1
 38 808 l 257,3,-1
 -38 600 l 257,0,-1
EndSplineSet
EndChar

StartChar: endash
Encoding: 8211 8211 191
GlifName: endash
Width: 1024
VWidth: 0
GlyphClass: 2
Flags: W
LayerCount: 2
Fore
SplineSet
317 600 m 257,0,-1
 1143 600 l 257,1,-1
 1219 808 l 257,2,-1
 393 808 l 257,3,-1
 317 600 l 257,0,-1
EndSplineSet
EndChar

StartChar: eng
Encoding: 331 331 192
GlifName: eng
Width: 1024
VWidth: 0
GlyphClass: 2
Flags: W
AnchorPoint: "top" 800 1119 basechar 0
AnchorPoint: "base" 304 -441 basechar 0
LayerCount: 2
Fore
SplineSet
267 -211 m 257,0,-1
 196 -406 l 257,1,-1
 583 -406 l 257,2,-1
 654 -211 l 257,3,-1
 267 -211 l 257,0,-1
492 990 m 257,4,-1
 132 0 l 257,5,-1
 333 0 l 257,6,-1
 693 990 l 257,7,-1
 492 990 l 257,4,-1
886 976 m 257,8,-1
 383 -406 l 257,9,-1
 584 -406 l 257,10,-1
 1087 976 l 257,11,-1
 886 976 l 257,8,-1
325 1023 m 257,12,-1
 253 826 l 257,13,-1
 1031 826 l 257,14,-1
 1103 1023 l 257,15,-1
 325 1023 l 257,12,-1
EndSplineSet
EndChar

StartChar: equal
Encoding: 61 61 194
GlifName: equal
Width: 1024
VWidth: 0
GlyphClass: 2
Flags: W
LayerCount: 2
Fore
SplineSet
207 914 m 257,0,-1
 137 724 l 257,1,-1
 953 724 l 257,2,-1
 1023 914 l 257,3,-1
 207 914 l 257,0,-1
71 540 m 257,4,-1
 1 350 l 257,5,-1
 817 350 l 257,6,-1
 887 540 l 257,7,-1
 71 540 l 257,4,-1
EndSplineSet
EndChar

StartChar: eth
Encoding: 240 240 195
GlifName: eth
Width: 1024
VWidth: 0
GlyphClass: 2
Flags: W
AnchorPoint: "top" 869 1634 basechar 0
AnchorPoint: "base" 513 -132 basechar 0
LayerCount: 2
Fore
SplineSet
804 1548 m 257,0,-1
 692 0 l 257,1,-1
 893 0 l 257,2,-1
 1005 1548 l 257,3,-1
 804 1548 l 257,0,-1
600 1023 m 257,4,-1
 527 822 l 257,5,-1
 868 822 l 257,6,-1
 941 1023 l 257,7,-1
 600 1023 l 257,4,-1
504 1023 m 257,8,-1
 132 0 l 257,9,-1
 333 0 l 257,10,-1
 705 1023 l 257,11,-1
 504 1023 l 257,8,-1
299 195 m 257,12,-1
 228 0 l 257,13,-1
 845 0 l 257,14,-1
 916 195 l 257,15,-1
 299 195 l 257,12,-1
676 1416 m 257,16,-1
 608 1229 l 257,17,-1
 1140 1229 l 257,18,-1
 1208 1416 l 257,19,-1
 676 1416 l 257,16,-1
EndSplineSet
EndChar

StartChar: exclam
Encoding: 33 33 196
GlifName: exclam
Width: 1024
VWidth: 0
GlyphClass: 2
Flags: W
LayerCount: 2
Fore
SplineSet
169 17 m 257,0,-1
 313 17 l 257,1,-1
 404 265 l 257,2,-1
 260 265 l 257,3,-1
 169 17 l 257,0,-1
356 502 m 257,4,-1
 484 502 l 257,5,-1
 855 1520 l 257,6,-1
 727 1520 l 257,7,-1
 356 502 l 257,4,-1
EndSplineSet
EndChar

StartChar: exclamdown
Encoding: 161 161 197
GlifName: exclamdown
Width: 1024
VWidth: 0
GlyphClass: 2
Flags: W
LayerCount: 2
Fore
SplineSet
855 1520 m 257,0,-1
 711 1520 l 257,1,-1
 620 1272 l 257,2,-1
 764 1272 l 257,3,-1
 855 1520 l 257,0,-1
668 1035 m 257,4,-1
 540 1035 l 257,5,-1
 169 17 l 257,6,-1
 297 17 l 257,7,-1
 668 1035 l 257,4,-1
EndSplineSet
EndChar

StartChar: f
Encoding: 102 102 198
GlifName: f
Width: 1024
VWidth: 0
GlyphClass: 2
Flags: W
AnchorPoint: "top" 811 1647 basechar 0
AnchorPoint: "base" 95 -88 basechar 0
LayerCount: 2
Fore
SplineSet
503 1551 m 257,0,-1
 -20 -6 l 257,1,-1
 180 -6 l 257,2,-1
 703 1551 l 257,3,-1
 503 1551 l 257,0,-1
565 1551 m 257,4,-1
 495 1359 l 257,5,-1
 977 1359 l 257,6,-1
 1047 1551 l 257,7,-1
 565 1551 l 257,4,-1
147 959 m 257,8,-1
 73 756 l 257,9,-1
 704 756 l 257,10,-1
 778 959 l 257,11,-1
 147 959 l 257,8,-1
EndSplineSet
EndChar

StartChar: five
Encoding: 53 53 199
GlifName: five
Width: 1024
VWidth: 0
GlyphClass: 2
Flags: W
LayerCount: 2
Fore
SplineSet
756 759 m 257,0,-1
 551 198 l 257,1,-1
 -162 198 l 257,2,-1
 -234 0 l 257,3,-1
 684 0 l 257,4,-1
 1033 959 l 257,5,-1
 316 959 l 257,6,-1
 459 1352 l 257,7,-1
 1186 1352 l 257,8,-1
 1258 1548 l 257,9,-1
 331 1548 l 257,10,-1
 44 759 l 257,11,-1
 756 759 l 257,0,-1
EndSplineSet
EndChar

StartChar: four
Encoding: 52 52 200
GlifName: four
Width: 1024
VWidth: 0
GlyphClass: 2
Flags: W
LayerCount: 2
Fore
SplineSet
-50 761 m 257,0,-1
 592 761 l 257,1,-1
 317 7 l 257,2,-1
 513 7 l 257,3,-1
 1074 1548 l 257,4,-1
 875 1548 l 257,5,-1
 662 961 l 257,6,-1
 223 961 l 257,7,-1
 436 1548 l 257,8,-1
 236 1548 l 257,9,-1
 -50 761 l 257,0,-1
EndSplineSet
EndChar

StartChar: g
Encoding: 103 103 201
GlifName: g
Width: 1024
VWidth: 0
GlyphClass: 2
Flags: W
AnchorPoint: "top" 758 1134 basechar 0
AnchorPoint: "base" 237 -467 basechar 0
LayerCount: 2
Fore
SplineSet
487 1023 m 257,0,-1
 115 0 l 257,1,-1
 307 0 l 257,2,-1
 679 1023 l 257,3,-1
 487 1023 l 257,0,-1
527 1023 m 257,4,-1
 455 823 l 257,5,-1
 971 823 l 257,6,-1
 1043 1023 l 257,7,-1
 527 1023 l 257,4,-1
871 1023 m 257,8,-1
 349 -411 l 257,9,-1
 543 -411 l 257,10,-1
 1065 1023 l 257,11,-1
 871 1023 l 257,8,-1
250 198 m 257,12,-1
 178 0 l 257,13,-1
 635 0 l 257,14,-1
 707 198 l 257,15,-1
 250 198 l 257,12,-1
31 -214 m 257,16,-1
 -41 -413 l 257,17,-1
 494 -413 l 257,18,-1
 566 -214 l 257,19,-1
 31 -214 l 257,16,-1
EndSplineSet
EndChar

StartChar: germandbls
Encoding: 223 223 205
GlifName: germandbls
Width: 1024
VWidth: 0
GlyphClass: 2
Flags: W
LayerCount: 2
Fore
SplineSet
18 1221 m 257,0,-1
 18 1023 l 257,1,-1
 269 1023 l 257,2,-1
 269 1221 l 257,3,-1
 18 1221 l 257,0,-1
204 1548 m 257,4,-1
 204 0 l 257,5,-1
 410 0 l 257,6,-1
 410 1548 l 257,7,-1
 204 1548 l 257,4,-1
410 1548 m 257,8,-1
 410 1328 l 257,9,-1
 805 1328 l 257,10,-1
 805 1548 l 257,11,-1
 410 1548 l 257,8,-1
690 1548 m 257,12,-1
 690 1023 l 257,13,-1
 889 1023 l 257,14,-1
 889 1548 l 257,15,-1
 690 1548 l 257,12,-1
690 1062 m 257,16,-1
 490 1062 l 257,17,-1
 490 826 l 257,18,-1
 690 826 l 257,19,-1
 690 1062 l 257,16,-1
690 848 m 257,20,-1
 690 175 l 257,21,-1
 890 175 l 257,22,-1
 890 848 l 257,23,-1
 690 848 l 257,20,-1
547 251 m 257,24,-1
 547 40 l 257,25,-1
 890 40 l 257,26,-1
 890 251 l 257,27,-1
 547 251 l 257,24,-1
EndSplineSet
EndChar

StartChar: grave
Encoding: 96 96 206
GlifName: grave
Width: 1024
VWidth: 0
GlyphClass: 2
Flags: W
LayerCount: 2
Fore
SplineSet
407 1358 m 257,0,-1
 442 1057 l 257,1,-1
 617 1129 l 257,2,-1
 581 1430 l 257,3,-1
 407 1358 l 257,0,-1
EndSplineSet
EndChar

StartChar: gravecomb
Encoding: 768 768 207
GlifName: gravecomb
Width: 0
VWidth: 0
GlyphClass: 4
Flags: W
AnchorPoint: "top" 16 885 mark 0
LayerCount: 2
Fore
SplineSet
-68 1114 m 257,0,-1
 -34 878 l 257,1,-1
 69 929 l 257,2,-1
 36 1166 l 257,3,-1
 -68 1114 l 257,0,-1
EndSplineSet
EndChar

StartChar: greater
Encoding: 62 62 208
GlifName: greater
Width: 1024
VWidth: 0
GlyphClass: 2
Flags: W
LayerCount: 2
Fore
SplineSet
1041 777 m 257,0,-1
 305 1013 l 257,1,-1
 230 807 l 257,2,-1
 967 568 l 257,3,-1
 1041 777 l 257,0,-1
1041 777 m 257,4,-1
 55 319 l 257,5,-1
 -17 122 l 257,6,-1
 967 568 l 257,7,-1
 1041 777 l 257,4,-1
EndSplineSet
EndChar

StartChar: guillemotleft
Encoding: 171 171 209
GlifName: guillemotleft
Width: 1024
VWidth: 0
GlyphClass: 2
Flags: W
LayerCount: 2
Fore
SplineSet
116 609 m 257,0,-1
 60 454 l 257,1,-1
 493 631 l 257,2,-1
 549 784 l 257,3,-1
 116 609 l 257,0,-1
116 609 m 257,4,-1
 60 454 l 257,5,-1
 307 122 l 257,6,-1
 360 268 l 257,7,-1
 116 609 l 257,4,-1
531 609 m 257,8,-1
 475 454 l 257,9,-1
 908 631 l 257,10,-1
 964 784 l 257,11,-1
 531 609 l 257,8,-1
531 609 m 257,12,-1
 475 454 l 257,13,-1
 722 122 l 257,14,-1
 775 268 l 257,15,-1
 531 609 l 257,12,-1
EndSplineSet
EndChar

StartChar: guillemotright
Encoding: 187 187 210
GlifName: guillemotright
Width: 1024
VWidth: 0
GlyphClass: 2
Flags: W
LayerCount: 2
Fore
SplineSet
992 609 m 257,0,-1
 687 784 l 257,1,-1
 631 631 l 257,2,-1
 936 454 l 257,3,-1
 992 609 l 257,0,-1
992 609 m 257,4,-1
 500 268 l 257,5,-1
 447 122 l 257,6,-1
 936 454 l 257,7,-1
 992 609 l 257,4,-1
577 609 m 257,8,-1
 272 784 l 257,9,-1
 216 631 l 257,10,-1
 521 454 l 257,11,-1
 577 609 l 257,8,-1
577 609 m 257,12,-1
 85 268 l 257,13,-1
 32 122 l 257,14,-1
 521 454 l 257,15,-1
 577 609 l 257,12,-1
EndSplineSet
EndChar

StartChar: guilsinglleft
Encoding: 8249 8249 211
GlifName: guilsinglleft
Width: 1024
VWidth: 0
GlyphClass: 2
Flags: W
LayerCount: 2
Fore
SplineSet
98 777 m 257,0,-1
 22 569 l 257,1,-1
 927 807 l 257,2,-1
 1002 1013 l 257,3,-1
 98 777 l 257,0,-1
98 777 m 257,4,-1
 22 569 l 257,5,-1
 676 122 l 257,6,-1
 747 319 l 257,7,-1
 98 777 l 257,4,-1
EndSplineSet
EndChar

StartChar: guilsinglright
Encoding: 8250 8250 212
GlifName: guilsinglright
Width: 1024
VWidth: 0
GlyphClass: 2
Flags: W
LayerCount: 2
Fore
SplineSet
1041 777 m 257,0,-1
 305 1013 l 257,1,-1
 230 807 l 257,2,-1
 967 568 l 257,3,-1
 1041 777 l 257,0,-1
1041 777 m 257,4,-1
 55 319 l 257,5,-1
 -17 122 l 257,6,-1
 967 568 l 257,7,-1
 1041 777 l 257,4,-1
EndSplineSet
EndChar

StartChar: h
Encoding: 104 104 213
GlifName: h
Width: 1024
VWidth: 0
GlyphClass: 2
Flags: W
AnchorPoint: "top" 685 1636 basechar 0
AnchorPoint: "base" 321 -36 basechar 0
LayerCount: 2
Fore
SplineSet
546 1537 m 257,0,-1
 -11 6 l 257,1,-1
 189 6 l 257,2,-1
 746 1537 l 257,3,-1
 546 1537 l 257,0,-1
496 1023 m 257,4,-1
 424 826 l 257,5,-1
 955 826 l 257,6,-1
 1027 1023 l 257,7,-1
 496 1023 l 257,4,-1
836 1023 m 257,8,-1
 464 0 l 257,9,-1
 663 0 l 257,10,-1
 1035 1023 l 257,11,-1
 836 1023 l 257,8,-1
EndSplineSet
EndChar

StartChar: hbar
Encoding: 295 295 214
GlifName: hbar
Width: 1024
VWidth: 0
GlyphClass: 2
Flags: W
LayerCount: 2
Fore
SplineSet
733 1537 m 257,0,-1
 176 6 l 257,1,-1
 376 6 l 257,2,-1
 933 1537 l 257,3,-1
 733 1537 l 257,0,-1
683 1023 m 257,4,-1
 612 826 l 257,5,-1
 1143 826 l 257,6,-1
 1214 1023 l 257,7,-1
 683 1023 l 257,4,-1
1023 1023 m 257,8,-1
 651 0 l 257,9,-1
 850 0 l 257,10,-1
 1222 1023 l 257,11,-1
 1023 1023 l 257,8,-1
558 1429 m 257,12,-1
 482 1221 l 257,13,-1
 938 1221 l 257,14,-1
 1014 1429 l 257,15,-1
 558 1429 l 257,12,-1
EndSplineSet
EndChar

StartChar: hookabovecomb
Encoding: 777 777 216
GlifName: hookabovecomb
Width: 0
VWidth: 0
GlyphClass: 4
Flags: W
AnchorPoint: "top" -8 769 mark 0
LayerCount: 2
Fore
SplineSet
17 1075 m 257,0,-1
 -14 999 l 257,1,-1
 206 999 l 257,2,-1
 237 1075 l 257,3,-1
 17 1075 l 257,0,-1
139 1075 m 257,4,-1
 79 927 l 257,5,-1
 179 927 l 257,6,-1
 240 1075 l 257,7,-1
 139 1075 l 257,4,-1
3 936 m 257,8,-1
 -27 865 l 257,9,-1
 153 865 l 257,10,-1
 183 936 l 257,11,-1
 3 936 l 257,8,-1
3 936 m 257,12,-1
 -44 823 l 257,13,-1
 44 823 l 257,14,-1
 90 936 l 257,15,-1
 3 936 l 257,12,-1
EndSplineSet
EndChar

StartChar: hungarumlaut
Encoding: 733 733 217
GlifName: hungarumlaut
Width: 1024
VWidth: 0
GlyphClass: 2
Flags: W
LayerCount: 2
Fore
SplineSet
195 122 m 257,0,-1
 339 122 l 257,1,-1
 429 370 l 257,2,-1
 285 370 l 257,3,-1
 195 122 l 257,0,-1
595 122 m 257,4,-1
 739 122 l 257,5,-1
 829 370 l 257,6,-1
 685 370 l 257,7,-1
 595 122 l 257,4,-1
EndSplineSet
EndChar

StartChar: hyphen
Encoding: 45 45 218
GlifName: hyphen
Width: 1024
VWidth: 0
GlyphClass: 2
Flags: W
LayerCount: 2
Fore
SplineSet
137 808 m 257,0,-1
 61 600 l 257,1,-1
 887 600 l 257,2,-1
 963 808 l 257,3,-1
 137 808 l 257,0,-1
EndSplineSet
EndChar

StartChar: i
Encoding: 105 105 219
GlifName: i
Width: 1024
VWidth: 0
GlyphClass: 2
Flags: W
AnchorPoint: "top" 885 1457 basechar 0
AnchorPoint: "base" 486 -78 basechar 0
LayerCount: 2
Fore
SplineSet
700 1018 m 257,0,-1
 380 139 l 257,1,-1
 582 139 l 257,2,-1
 902 1018 l 257,3,-1
 700 1018 l 257,0,-1
134 204 m 257,4,-1
 62 6 l 257,5,-1
 804 6 l 257,6,-1
 876 204 l 257,7,-1
 134 204 l 257,4,-1
764 1369 m 257,8,-1
 691 1168 l 257,9,-1
 889 1168 l 257,10,-1
 962 1369 l 257,11,-1
 764 1369 l 257,8,-1
480 1018 m 257,12,-1
 407 818 l 257,13,-1
 783 818 l 257,14,-1
 856 1018 l 257,15,-1
 480 1018 l 257,12,-1
EndSplineSet
EndChar

StartChar: j
Encoding: 106 106 229
GlifName: j
Width: 1024
VWidth: 0
GlyphClass: 2
Flags: W
AnchorPoint: "top" 1070 1521 basechar 0
AnchorPoint: "base" 176 -455 basechar 0
LayerCount: 2
Fore
SplineSet
820 1023 m 257,0,-1
 298 -411 l 257,1,-1
 497 -411 l 257,2,-1
 1019 1023 l 257,3,-1
 820 1023 l 257,0,-1
-59 -209 m 257,4,-1
 -131 -406 l 257,5,-1
 399 -406 l 257,6,-1
 471 -209 l 257,7,-1
 -59 -209 l 257,4,-1
16 -6 m 257,8,-1
 -110 -351 l 257,9,-1
 90 -351 l 257,10,-1
 216 -6 l 257,11,-1
 16 -6 l 257,8,-1
954 1413 m 257,12,-1
 881 1214 l 257,13,-1
 1082 1214 l 257,14,-1
 1155 1413 l 257,15,-1
 954 1413 l 257,12,-1
EndSplineSet
EndChar

StartChar: k
Encoding: 107 107 231
GlifName: k
Width: 1024
VWidth: 0
GlyphClass: 2
Flags: W
AnchorPoint: "base" 328 -31 basechar 0
AnchorPoint: "top" 615 1621 basechar 0
LayerCount: 2
Fore
SplineSet
492 1537 m 257,0,-1
 -66 5 l 257,1,-1
 134 5 l 257,2,-1
 692 1537 l 257,3,-1
 492 1537 l 257,0,-1
169 516 m 257,4,-1
 139 298 l 257,5,-1
 1090 1023 l 257,6,-1
 873 1023 l 257,7,-1
 169 516 l 257,4,-1
468 631 m 257,8,-1
 262 483 l 257,9,-1
 536 0 l 257,10,-1
 774 0 l 257,11,-1
 468 631 l 257,8,-1
EndSplineSet
EndChar

StartChar: kgreenlandic
Encoding: 312 312 232
GlifName: kgreenlandic
Width: 1024
VWidth: 0
GlyphClass: 2
Flags: W
AnchorPoint: "base" 297 -89 basechar 0
AnchorPoint: "top" 329 1141 basechar 0
LayerCount: 2
Fore
SplineSet
228 1022 m 257,0,-1
 -142 5 l 257,1,-1
 58 5 l 257,2,-1
 428 1022 l 257,3,-1
 228 1022 l 257,0,-1
93 516 m 257,4,-1
 62 298 l 257,5,-1
 1198 1023 l 257,6,-1
 981 1023 l 257,7,-1
 93 516 l 257,4,-1
467 631 m 257,8,-1
 186 483 l 257,9,-1
 579 0 l 257,10,-1
 817 0 l 257,11,-1
 467 631 l 257,8,-1
EndSplineSet
EndChar

StartChar: l
Encoding: 108 108 233
GlifName: l
Width: 1024
VWidth: 0
GlyphClass: 2
Flags: W
AnchorPoint: "base" 347 -61 basechar 0
AnchorPoint: "top" 925 1640 basechar 0
LayerCount: 2
Fore
SplineSet
96 209 m 257,0,-1
 23 9 l 257,1,-1
 657 9 l 257,2,-1
 730 209 l 257,3,-1
 96 209 l 257,0,-1
801 1548 m 257,4,-1
 268 86 l 257,5,-1
 468 86 l 257,6,-1
 1001 1548 l 257,7,-1
 801 1548 l 257,4,-1
645 1548 m 257,8,-1
 572 1349 l 257,9,-1
 807 1349 l 257,10,-1
 880 1548 l 257,11,-1
 645 1548 l 257,8,-1
EndSplineSet
EndChar

StartChar: lcaron
Encoding: 318 318 235
GlifName: lcaron
Width: 1024
VWidth: 0
GlyphClass: 2
Flags: W
LayerCount: 2
Fore
SplineSet
209 209 m 257,0,-1
 136 9 l 257,1,-1
 770 9 l 257,2,-1
 843 209 l 257,3,-1
 209 209 l 257,0,-1
913 1548 m 257,4,-1
 381 86 l 257,5,-1
 581 86 l 257,6,-1
 1113 1548 l 257,7,-1
 913 1548 l 257,4,-1
757 1548 m 257,8,-1
 685 1349 l 257,9,-1
 920 1349 l 257,10,-1
 992 1548 l 257,11,-1
 757 1548 l 257,8,-1
1174 1496 m 257,12,-1
 1090 1264 l 257,13,-1
 1220 1264 l 257,14,-1
 1304 1496 l 257,15,-1
 1174 1496 l 257,12,-1
EndSplineSet
EndChar

StartChar: less
Encoding: 60 60 237
GlifName: less
Width: 1024
VWidth: 0
GlyphClass: 2
Flags: W
LayerCount: 2
Fore
SplineSet
98 777 m 257,0,-1
 22 569 l 257,1,-1
 927 807 l 257,2,-1
 1002 1013 l 257,3,-1
 98 777 l 257,0,-1
98 777 m 257,4,-1
 22 569 l 257,5,-1
 676 122 l 257,6,-1
 747 319 l 257,7,-1
 98 777 l 257,4,-1
EndSplineSet
EndChar

StartChar: logicalnot
Encoding: 172 172 238
GlifName: logicalnot
Width: 1024
VWidth: 0
GlyphClass: 2
Flags: W
LayerCount: 2
Fore
SplineSet
685 935 m 257,0,-1
 578 640 l 257,1,-1
 688 640 l 257,2,-1
 795 935 l 257,3,-1
 685 935 l 257,0,-1
255 935 m 257,4,-1
 219 835 l 257,5,-1
 769 835 l 257,6,-1
 805 935 l 257,7,-1
 255 935 l 257,4,-1
EndSplineSet
EndChar

StartChar: lslash
Encoding: 322 322 239
GlifName: lslash
Width: 1024
VWidth: 0
GlyphClass: 2
Flags: W
LayerCount: 2
Fore
SplineSet
271 209 m 257,0,-1
 198 9 l 257,1,-1
 832 9 l 257,2,-1
 905 209 l 257,3,-1
 271 209 l 257,0,-1
975 1548 m 257,4,-1
 443 86 l 257,5,-1
 643 86 l 257,6,-1
 1175 1548 l 257,7,-1
 975 1548 l 257,4,-1
819 1548 m 257,8,-1
 747 1349 l 257,9,-1
 982 1349 l 257,10,-1
 1054 1548 l 257,11,-1
 819 1548 l 257,8,-1
1256 1213 m 257,12,-1
 414 830 l 257,13,-1
 453 656 l 257,14,-1
 1295 1039 l 257,15,-1
 1256 1213 l 257,12,-1
EndSplineSet
EndChar

StartChar: m
Encoding: 109 109 240
GlifName: m
Width: 1024
VWidth: 0
GlyphClass: 2
Flags: W
AnchorPoint: "base" 321 -112 basechar 0
AnchorPoint: "top" 716 1110 basechar 0
LayerCount: 2
Fore
SplineSet
273 993 m 257,0,-1
 -89 0 l 257,1,-1
 111 0 l 257,2,-1
 473 993 l 257,3,-1
 273 993 l 257,0,-1
580 972 m 257,4,-1
 226 0 l 257,5,-1
 426 0 l 257,6,-1
 780 972 l 257,7,-1
 580 972 l 257,4,-1
897 976 m 257,8,-1
 541 0 l 257,9,-1
 741 0 l 257,10,-1
 1097 976 l 257,11,-1
 897 976 l 257,8,-1
207 1023 m 257,12,-1
 135 826 l 257,13,-1
 1041 826 l 257,14,-1
 1113 1023 l 257,15,-1
 207 1023 l 257,12,-1
EndSplineSet
EndChar

StartChar: macron
Encoding: 175 175 241
GlifName: macron
Width: 1024
VWidth: 0
GlyphClass: 2
Flags: W
LayerCount: 2
Fore
SplineSet
246 1023 m 257,0,-1
 218 944 l 257,1,-1
 778 944 l 257,2,-1
 806 1023 l 257,3,-1
 246 1023 l 257,0,-1
EndSplineSet
EndChar

StartChar: mu
Encoding: 181 181 243
GlifName: mu
Width: 1024
VWidth: 0
GlyphClass: 2
Flags: W
LayerCount: 2
Fore
SplineSet
973 935 m 257,0,-1
 633 0 l 257,1,-1
 743 0 l 257,2,-1
 1083 935 l 257,3,-1
 973 935 l 257,0,-1
241 120 m 257,4,-1
 198 0 l 257,5,-1
 713 0 l 257,6,-1
 756 120 l 257,7,-1
 241 120 l 257,4,-1
438 935 m 257,8,-1
 -59 -430 l 257,9,-1
 36 -430 l 257,10,-1
 533 935 l 257,11,-1
 438 935 l 257,8,-1
EndSplineSet
EndChar

StartChar: multiply
Encoding: 215 215 244
GlifName: multiply
Width: 1024
VWidth: 0
GlyphClass: 2
Flags: W
LayerCount: 2
Fore
SplineSet
91 302 m 257,0,-1
 292 302 l 257,1,-1
 927 1323 l 257,2,-1
 728 1323 l 257,3,-1
 91 302 l 257,0,-1
93 1325 m 257,4,-1
 735 298 l 257,5,-1
 934 298 l 257,6,-1
 295 1325 l 257,7,-1
 93 1325 l 257,4,-1
EndSplineSet
EndChar

StartChar: n
Encoding: 110 110 245
GlifName: n
Width: 1024
VWidth: 0
GlyphClass: 2
Flags: W
AnchorPoint: "base" 322 -33 basechar 0
AnchorPoint: "top" 724 1127 basechar 0
LayerCount: 2
Fore
SplineSet
387 990 m 257,0,-1
 26 0 l 257,1,-1
 227 0 l 257,2,-1
 588 990 l 257,3,-1
 387 990 l 257,0,-1
781 976 m 257,4,-1
 425 0 l 257,5,-1
 626 0 l 257,6,-1
 982 976 l 257,7,-1
 781 976 l 257,4,-1
220 1023 m 257,8,-1
 148 826 l 257,9,-1
 926 826 l 257,10,-1
 998 1023 l 257,11,-1
 220 1023 l 257,8,-1
EndSplineSet
EndChar

StartChar: nine
Encoding: 57 57 248
GlifName: nine
Width: 1024
VWidth: 0
GlyphClass: 2
Flags: W
LayerCount: 2
Fore
SplineSet
758 759 m 257,0,-1
 555 200 l 257,1,-1
 -147 200 l 257,2,-1
 -220 0 l 257,3,-1
 678 0 l 257,4,-1
 1244 1554 l 257,5,-1
 324 1554 l 257,6,-1
 318 1537 l 257,7,-1
 34 759 l 257,8,-1
 758 759 l 257,0,-1
828 959 m 257,9,-1
 307 959 l 257,10,-1
 451 1354 l 257,11,-1
 972 1354 l 257,12,-1
 828 959 l 257,9,-1
EndSplineSet
EndChar

StartChar: numbersign
Encoding: 35 35 250
GlifName: numbersign
Width: 1024
VWidth: 0
GlyphClass: 2
Flags: W
LayerCount: 2
Fore
SplineSet
405 1347 m 257,0,-1
 29 313 l 257,1,-1
 169 313 l 257,2,-1
 545 1347 l 257,3,-1
 405 1347 l 257,0,-1
816 1350 m 257,4,-1
 426 279 l 257,5,-1
 594 279 l 257,6,-1
 984 1350 l 257,7,-1
 816 1350 l 257,4,-1
206 1157 m 257,8,-1
 152 1010 l 257,9,-1
 970 1010 l 257,10,-1
 1024 1157 l 257,11,-1
 206 1157 l 257,8,-1
64 767 m 257,12,-1
 0 592 l 257,13,-1
 828 592 l 257,14,-1
 892 767 l 257,15,-1
 64 767 l 257,12,-1
EndSplineSet
EndChar

StartChar: o
Encoding: 111 111 251
GlifName: o
Width: 1024
VWidth: 0
GlyphClass: 2
Flags: W
AnchorPoint: "top" 695 1127 basechar 0
AnchorPoint: "base" 304 -69 basechar 0
LayerCount: 2
Fore
SplineSet
290 1023 m 257,0,-1
 -83 0 l 257,1,-1
 117 0 l 257,2,-1
 490 1023 l 257,3,-1
 290 1023 l 257,0,-1
905 1023 m 257,4,-1
 532 0 l 257,5,-1
 734 0 l 257,6,-1
 1107 1023 l 257,7,-1
 905 1023 l 257,4,-1
413 1023 m 257,8,-1
 340 822 l 257,9,-1
 926 822 l 257,10,-1
 999 1023 l 257,11,-1
 413 1023 l 257,8,-1
117 200 m 257,12,-1
 44 0 l 257,13,-1
 616 0 l 257,14,-1
 689 200 l 257,15,-1
 117 200 l 257,12,-1
EndSplineSet
EndChar

StartChar: oe
Encoding: 339 339 256
GlifName: oe
Width: 1024
VWidth: 0
GlyphClass: 2
Flags: W
AnchorPoint: "top" 754 1152 basechar 0
AnchorPoint: "base" 362 -128 basechar 0
LayerCount: 2
Fore
SplineSet
646 645 m 257,0,-1
 573 446 l 257,1,-1
 800 446 l 257,2,-1
 873 645 l 257,3,-1
 646 645 l 257,0,-1
985 1023 m 257,4,-1
 775 445 l 257,5,-1
 975 445 l 257,6,-1
 1185 1023 l 257,7,-1
 985 1023 l 257,4,-1
289 1023 m 257,8,-1
 -83 0 l 257,9,-1
 117 0 l 257,10,-1
 489 1023 l 257,11,-1
 289 1023 l 257,8,-1
637 1023 m 257,12,-1
 265 0 l 257,13,-1
 465 0 l 257,14,-1
 837 1023 l 257,15,-1
 637 1023 l 257,12,-1
344 1023 m 257,16,-1
 271 823 l 257,17,-1
 972 823 l 257,18,-1
 1045 1023 l 257,19,-1
 344 1023 l 257,16,-1
36 200 m 257,20,-1
 -37 0 l 257,21,-1
 813 0 l 257,22,-1
 886 200 l 257,23,-1
 36 200 l 257,20,-1
EndSplineSet
EndChar

StartChar: ogonek
Encoding: 731 731 257
GlifName: ogonek
Width: 1024
VWidth: 0
GlyphClass: 2
Flags: W
LayerCount: 2
Fore
SplineSet
210 -288 m 257,0,-1
 167 -406 l 257,1,-1
 709 -406 l 257,2,-1
 752 -288 l 257,3,-1
 210 -288 l 257,0,-1
315 0 m 257,4,-1
 167 -406 l 257,5,-1
 285 -406 l 257,6,-1
 433 0 l 257,7,-1
 315 0 l 257,4,-1
315 0 m 257,8,-1
 271 -121 l 257,9,-1
 813 -121 l 257,10,-1
 857 0 l 257,11,-1
 315 0 l 257,8,-1
EndSplineSet
EndChar

StartChar: one
Encoding: 49 49 262
GlifName: one
Width: 1024
VWidth: 0
GlyphClass: 2
Flags: W
LayerCount: 2
Fore
SplineSet
131 0 m 257,0,-1
 330 0 l 257,1,-1
 893 1548 l 257,2,-1
 694 1548 l 257,3,-1
 131 0 l 257,0,-1
698 1548 m 257,4,-1
 392 1252 l 257,5,-1
 506 1152 l 257,6,-1
 812 1449 l 257,7,-1
 698 1548 l 257,4,-1
EndSplineSet
EndChar

StartChar: onehalf
Encoding: 189 189 263
GlifName: onehalf
Width: 1024
VWidth: 0
GlyphClass: 2
Flags: W
LayerCount: 2
Fore
SplineSet
984 1483 m 257,0,-1
 -124 6 l 257,1,-1
 40 -30 l 257,2,-1
 1148 1447 l 257,3,-1
 984 1483 l 257,0,-1
353 863 m 257,4,-1
 436 863 l 257,5,-1
 686 1548 l 257,6,-1
 603 1548 l 257,7,-1
 353 863 l 257,4,-1
605 1548 m 257,8,-1
 476 1419 l 257,9,-1
 521 1374 l 257,10,-1
 651 1506 l 257,11,-1
 605 1548 l 257,8,-1
615 603 m 257,12,-1
 814 603 l 257,13,-1
 742 407 l 257,14,-1
 545 407 l 257,15,-1
 397 0 l 257,16,-1
 654 0 l 257,17,-1
 687 90 l 257,18,-1
 496 90 l 257,19,-1
 578 317 l 257,20,-1
 774 317 l 257,21,-1
 911 693 l 257,22,-1
 647 693 l 257,23,-1
 615 603 l 257,12,-1
EndSplineSet
EndChar

StartChar: onequarter
Encoding: 188 188 264
GlifName: onequarter
Width: 1024
VWidth: 0
GlyphClass: 2
Flags: W
LayerCount: 2
Fore
SplineSet
1022 1480 m 257,0,-1
 -101 10 l 257,1,-1
 2 10 l 257,2,-1
 1125 1480 l 257,3,-1
 1022 1480 l 257,0,-1
504 1045 m 257,4,-1
 558 1045 l 257,5,-1
 741 1548 l 257,6,-1
 687 1548 l 257,7,-1
 504 1045 l 257,4,-1
692 1548 m 257,8,-1
 539 1428 l 257,9,-1
 545 1391 l 257,10,-1
 717 1537 l 257,11,-1
 692 1548 l 257,8,-1
523 379 m 257,12,-1
 828 379 l 257,13,-1
 692 7 l 257,14,-1
 751 7 l 257,15,-1
 1028 768 l 257,16,-1
 968 768 l 257,17,-1
 851 445 l 257,18,-1
 606 445 l 257,19,-1
 724 770 l 257,20,-1
 665 770 l 257,21,-1
 523 379 l 257,12,-1
EndSplineSet
EndChar

StartChar: ordfeminine
Encoding: 170 170 265
GlifName: ordfeminine
Width: 1024
VWidth: 0
GlyphClass: 2
Flags: W
LayerCount: 2
Fore
SplineSet
454 1319 m 257,0,-1
 381 1119 l 257,1,-1
 987 1119 l 257,2,-1
 1060 1319 l 257,3,-1
 454 1319 l 257,0,-1
947 1320 m 257,4,-1
 575 296 l 257,5,-1
 769 296 l 257,6,-1
 1141 1320 l 257,7,-1
 947 1320 l 257,4,-1
303 894 m 257,8,-1
 231 695 l 257,9,-1
 855 695 l 257,10,-1
 927 894 l 257,11,-1
 303 894 l 257,8,-1
294 870 m 257,12,-1
 84 293 l 257,13,-1
 285 293 l 257,14,-1
 495 870 l 257,15,-1
 294 870 l 257,12,-1
156 496 m 257,16,-1
 84 296 l 257,17,-1
 774 296 l 257,18,-1
 846 496 l 257,19,-1
 156 496 l 257,16,-1
-58 162 m 257,20,-1
 -117 0 l 257,21,-1
 751 0 l 257,22,-1
 810 162 l 257,23,-1
 -58 162 l 257,20,-1
EndSplineSet
EndChar

StartChar: ordmasculine
Encoding: 186 186 266
GlifName: ordmasculine
Width: 1024
VWidth: 0
GlyphClass: 2
Flags: W
LayerCount: 2
Fore
SplineSet
369 1023 m 257,0,-1
 -3 0 l 257,1,-1
 197 0 l 257,2,-1
 569 1023 l 257,3,-1
 369 1023 l 257,0,-1
984 1023 m 257,4,-1
 612 0 l 257,5,-1
 814 0 l 257,6,-1
 1186 1023 l 257,7,-1
 984 1023 l 257,4,-1
492 1023 m 257,8,-1
 419 822 l 257,9,-1
 1005 822 l 257,10,-1
 1078 1023 l 257,11,-1
 492 1023 l 257,8,-1
196 200 m 257,12,-1
 124 0 l 257,13,-1
 696 0 l 257,14,-1
 768 200 l 257,15,-1
 196 200 l 257,12,-1
-138 -70 m 257,16,-1
 -162 -136 l 257,17,-1
 862 -136 l 257,18,-1
 886 -70 l 257,19,-1
 -138 -70 l 257,16,-1
EndSplineSet
EndChar

StartChar: oslash
Encoding: 248 248 267
GlifName: oslash
Width: 1024
VWidth: 0
GlyphClass: 2
Flags: W
AnchorPoint: "top" 970 1125 basechar 0
AnchorPoint: "base" 510 -116 basechar 0
LayerCount: 2
Fore
SplineSet
1261 1164 m 257,0,-1
 7 -5 l 257,1,-1
 134 -103 l 257,2,-1
 1388 1066 l 257,3,-1
 1261 1164 l 257,0,-1
476 1023 m 257,4,-1
 104 0 l 257,5,-1
 304 0 l 257,6,-1
 676 1023 l 257,7,-1
 476 1023 l 257,4,-1
1091 1023 m 257,8,-1
 719 0 l 257,9,-1
 921 0 l 257,10,-1
 1293 1023 l 257,11,-1
 1091 1023 l 257,8,-1
599 1023 m 257,12,-1
 526 822 l 257,13,-1
 1112 822 l 257,14,-1
 1185 1023 l 257,15,-1
 599 1023 l 257,12,-1
304 200 m 257,16,-1
 231 0 l 257,17,-1
 803 0 l 257,18,-1
 876 200 l 257,19,-1
 304 200 l 257,16,-1
EndSplineSet
EndChar

StartChar: p
Encoding: 112 112 270
GlifName: p
Width: 1024
VWidth: 0
GlyphClass: 2
Flags: W
AnchorPoint: "base" 45 -475 basechar 0
AnchorPoint: "top" 594 1308 basechar 0
LayerCount: 2
Fore
SplineSet
519 1203 m 257,0,-1
 -67 -406 l 257,1,-1
 133 -406 l 257,2,-1
 719 1203 l 257,3,-1
 519 1203 l 257,0,-1
552 1023 m 257,4,-1
 478 821 l 257,5,-1
 1017 821 l 257,6,-1
 1091 1023 l 257,7,-1
 552 1023 l 257,4,-1
257 202 m 257,8,-1
 183 0 l 257,9,-1
 723 0 l 257,10,-1
 797 202 l 257,11,-1
 257 202 l 257,8,-1
840 876 m 257,12,-1
 585 175 l 257,13,-1
 783 175 l 257,14,-1
 1038 876 l 257,15,-1
 840 876 l 257,12,-1
EndSplineSet
EndChar

StartChar: paragraph
Encoding: 182 182 271
GlifName: paragraph
Width: 1024
VWidth: 0
GlyphClass: 2
Flags: W
LayerCount: 2
Fore
SplineSet
40 1130 m 257,0,-1
 -13 985 l 257,1,-1
 552 985 l 257,2,-1
 605 1130 l 257,3,-1
 40 1130 l 257,0,-1
192 1548 m 257,4,-1
 -7 1000 l 257,5,-1
 153 1000 l 257,6,-1
 352 1548 l 257,7,-1
 192 1548 l 257,4,-1
192 1548 m 257,8,-1
 151 1435 l 257,9,-1
 971 1435 l 257,10,-1
 1012 1548 l 257,11,-1
 192 1548 l 257,8,-1
662 1548 m 257,12,-1
 99 0 l 257,13,-1
 244 0 l 257,14,-1
 807 1548 l 257,15,-1
 662 1548 l 257,12,-1
932 1548 m 257,16,-1
 369 0 l 257,17,-1
 474 0 l 257,18,-1
 1037 1548 l 257,19,-1
 932 1548 l 257,16,-1
EndSplineSet
EndChar

StartChar: parenleft
Encoding: 40 40 272
GlifName: parenleft
Width: 1024
VWidth: 0
GlyphClass: 2
Flags: W
LayerCount: 2
Fore
SplineSet
379 1023 m 257,0,-1
 72 179 l 257,1,-1
 262 179 l 257,2,-1
 569 1023 l 257,3,-1
 379 1023 l 257,0,-1
919 1633 m 257,4,-1
 381 1028 l 257,5,-1
 569 1028 l 257,6,-1
 952 1640 l 257,7,-1
 919 1633 l 257,4,-1
72 179 m 257,8,-1
 203 -406 l 257,9,-1
 235 -406 l 257,10,-1
 262 179 l 257,11,-1
 72 179 l 257,8,-1
EndSplineSet
EndChar

StartChar: parenright
Encoding: 41 41 273
GlifName: parenright
Width: 1024
VWidth: 0
GlyphClass: 2
Flags: W
LayerCount: 2
Fore
SplineSet
748 1023 m 257,0,-1
 441 179 l 257,1,-1
 631 179 l 257,2,-1
 938 1023 l 257,3,-1
 748 1023 l 257,0,-1
827 1629 m 257,4,-1
 748 1023 l 257,5,-1
 938 1023 l 257,6,-1
 865 1629 l 257,7,-1
 827 1629 l 257,4,-1
441 179 m 257,8,-1
 86 -406 l 257,9,-1
 114 -406 l 257,10,-1
 631 179 l 257,11,-1
 441 179 l 257,8,-1
EndSplineSet
EndChar

StartChar: percent
Encoding: 37 37 274
GlifName: percent
Width: 1024
VWidth: 0
GlyphClass: 2
Flags: W
LayerCount: 2
Fore
SplineSet
43 522 m 257,0,-1
 34 377 l 257,1,-1
 981 716 l 257,2,-1
 990 860 l 257,3,-1
 43 522 l 257,0,-1
411 1148 m 257,4,-1
 292 822 l 257,5,-1
 370 822 l 257,6,-1
 489 1148 l 257,7,-1
 411 1148 l 257,4,-1
412 1152 m 257,8,-1
 378 1057 l 257,9,-1
 726 1057 l 257,10,-1
 760 1152 l 257,11,-1
 412 1152 l 257,8,-1
310 871 m 257,12,-1
 280 789 l 257,13,-1
 624 789 l 257,14,-1
 654 871 l 257,15,-1
 310 871 l 257,12,-1
668 1152 m 257,16,-1
 537 791 l 257,17,-1
 629 791 l 257,18,-1
 760 1152 l 257,19,-1
 668 1152 l 257,16,-1
480 436 m 257,20,-1
 361 110 l 257,21,-1
 439 110 l 257,22,-1
 558 436 l 257,23,-1
 480 436 l 257,20,-1
481 440 m 257,24,-1
 446 345 l 257,25,-1
 792 345 l 257,26,-1
 827 440 l 257,27,-1
 481 440 l 257,24,-1
379 159 m 257,28,-1
 349 77 l 257,29,-1
 693 77 l 257,30,-1
 723 159 l 257,31,-1
 379 159 l 257,28,-1
735 440 m 257,32,-1
 604 79 l 257,33,-1
 696 79 l 257,34,-1
 827 440 l 257,35,-1
 735 440 l 257,32,-1
EndSplineSet
EndChar

StartChar: period
Encoding: 46 46 275
GlifName: period
Width: 1024
VWidth: 0
GlyphClass: 2
Flags: W
LayerCount: 2
Fore
SplineSet
425 246 m 257,0,-1
 335 0 l 257,1,-1
 599 0 l 257,2,-1
 689 246 l 257,3,-1
 425 246 l 257,0,-1
EndSplineSet
EndChar

StartChar: periodcentered
Encoding: 183 183 276
GlifName: periodcentered
Width: 1024
VWidth: 0
GlyphClass: 2
Flags: W
LayerCount: 2
Fore
SplineSet
424 1146 m 257,0,-1
 335 899 l 257,1,-1
 600 899 l 257,2,-1
 689 1146 l 257,3,-1
 424 1146 l 257,0,-1
EndSplineSet
EndChar

StartChar: perthousand
Encoding: 8240 8240 277
GlifName: perthousand
Width: 1024
VWidth: 0
GlyphClass: 2
Flags: W
LayerCount: 2
Fore
SplineSet
651 436 m 257,0,-1
 532 110 l 257,1,-1
 610 110 l 257,2,-1
 729 436 l 257,3,-1
 651 436 l 257,0,-1
652 440 m 257,4,-1
 618 345 l 257,5,-1
 964 345 l 257,6,-1
 998 440 l 257,7,-1
 652 440 l 257,4,-1
550 159 m 257,8,-1
 520 77 l 257,9,-1
 864 77 l 257,10,-1
 894 159 l 257,11,-1
 550 159 l 257,8,-1
906 440 m 257,12,-1
 775 79 l 257,13,-1
 867 79 l 257,14,-1
 998 440 l 257,15,-1
 906 440 l 257,12,-1
36 522 m 257,16,-1
 26 377 l 257,17,-1
 973 716 l 257,18,-1
 981 860 l 257,19,-1
 36 522 l 257,16,-1
404 1148 m 257,20,-1
 286 822 l 257,21,-1
 364 822 l 257,22,-1
 482 1148 l 257,23,-1
 404 1148 l 257,20,-1
406 1152 m 257,24,-1
 371 1057 l 257,25,-1
 717 1057 l 257,26,-1
 752 1152 l 257,27,-1
 406 1152 l 257,24,-1
303 871 m 257,28,-1
 273 789 l 257,29,-1
 617 789 l 257,30,-1
 647 871 l 257,31,-1
 303 871 l 257,28,-1
660 1152 m 257,32,-1
 528 791 l 257,33,-1
 620 791 l 257,34,-1
 752 1152 l 257,35,-1
 660 1152 l 257,32,-1
249 436 m 257,36,-1
 130 110 l 257,37,-1
 208 110 l 257,38,-1
 327 436 l 257,39,-1
 249 436 l 257,36,-1
250 440 m 257,40,-1
 216 345 l 257,41,-1
 564 345 l 257,42,-1
 598 440 l 257,43,-1
 250 440 l 257,40,-1
148 159 m 257,44,-1
 118 77 l 257,45,-1
 462 77 l 257,46,-1
 492 159 l 257,47,-1
 148 159 l 257,44,-1
506 440 m 257,48,-1
 375 79 l 257,49,-1
 467 79 l 257,50,-1
 598 440 l 257,51,-1
 506 440 l 257,48,-1
EndSplineSet
EndChar

StartChar: plus
Encoding: 43 43 278
GlifName: plus
Width: 1024
VWidth: 0
GlyphClass: 2
Flags: W
LayerCount: 2
Fore
SplineSet
567 1221 m 257,0,-1
 183 165 l 257,1,-1
 408 165 l 257,2,-1
 792 1221 l 257,3,-1
 567 1221 l 257,0,-1
99 821 m 257,4,-1
 23 613 l 257,5,-1
 925 613 l 257,6,-1
 1001 821 l 257,7,-1
 99 821 l 257,4,-1
EndSplineSet
EndChar

StartChar: plusminus
Encoding: 177 177 279
GlifName: plusminus
Width: 1024
VWidth: 0
GlyphClass: 2
Flags: W
LayerCount: 2
Fore
SplineSet
-12 108 m 257,0,-1
 -88 -100 l 257,1,-1
 738 -100 l 257,2,-1
 814 108 l 257,3,-1
 -12 108 l 257,0,-1
678 1221 m 257,4,-1
 294 165 l 257,5,-1
 519 165 l 257,6,-1
 903 1221 l 257,7,-1
 678 1221 l 257,4,-1
210 821 m 257,8,-1
 134 613 l 257,9,-1
 1036 613 l 257,10,-1
 1112 821 l 257,11,-1
 210 821 l 257,8,-1
EndSplineSet
EndChar

StartChar: q
Encoding: 113 113 280
GlifName: q
Width: 1024
VWidth: 0
GlyphClass: 2
Flags: W
AnchorPoint: "top" 960 1297 basechar 0
AnchorPoint: "base" 401 -486 basechar 0
LayerCount: 2
Fore
SplineSet
867 1201 m 257,0,-1
 282 -406 l 257,1,-1
 481 -406 l 257,2,-1
 1066 1201 l 257,3,-1
 867 1201 l 257,0,-1
329 1023 m 257,4,-1
 256 823 l 257,5,-1
 905 823 l 257,6,-1
 978 1023 l 257,7,-1
 329 1023 l 257,4,-1
32 203 m 257,8,-1
 -42 0 l 257,9,-1
 574 0 l 257,10,-1
 648 203 l 257,11,-1
 32 203 l 257,8,-1
267 855 m 257,12,-1
 -5 107 l 257,13,-1
 195 107 l 257,14,-1
 467 855 l 257,15,-1
 267 855 l 257,12,-1
371 -268 m 257,16,-1
 321 -406 l 257,17,-1
 557 -406 l 257,18,-1
 607 -268 l 257,19,-1
 371 -268 l 257,16,-1
EndSplineSet
EndChar

StartChar: question
Encoding: 63 63 281
GlifName: question
Width: 1024
VWidth: 0
GlyphClass: 2
Flags: W
LayerCount: 2
Fore
SplineSet
94 247 m 257,0,-1
 4 0 l 257,1,-1
 250 0 l 257,2,-1
 340 247 l 257,3,-1
 94 247 l 257,0,-1
381 1519 m 257,4,-1
 314 1333 l 257,5,-1
 950 1333 l 257,6,-1
 1017 1519 l 257,7,-1
 381 1519 l 257,4,-1
826 1514 m 257,8,-1
 626 966 l 257,9,-1
 820 966 l 257,10,-1
 1020 1514 l 257,11,-1
 826 1514 l 257,8,-1
374 1015 m 257,12,-1
 301 816 l 257,13,-1
 765 816 l 257,14,-1
 838 1015 l 257,15,-1
 374 1015 l 257,12,-1
372 1011 m 257,16,-1
 147 392 l 257,17,-1
 395 392 l 257,18,-1
 620 1011 l 257,19,-1
 372 1011 l 257,16,-1
EndSplineSet
EndChar

StartChar: questiondown
Encoding: 191 191 282
GlifName: questiondown
Width: 1024
VWidth: 0
GlyphClass: 2
Flags: W
LayerCount: 2
Fore
SplineSet
930 1273 m 257,0,-1
 1020 1519 l 257,1,-1
 770 1519 l 257,2,-1
 680 1272 l 257,3,-1
 930 1273 l 257,0,-1
644 0 m 257,4,-1
 711 186 l 257,5,-1
 74 186 l 257,6,-1
 7 0 l 257,7,-1
 644 0 l 257,4,-1
198 5 m 257,8,-1
 398 553 l 257,9,-1
 204 553 l 257,10,-1
 4 5 l 257,11,-1
 198 5 l 257,8,-1
650 504 m 257,12,-1
 723 703 l 257,13,-1
 259 703 l 257,14,-1
 186 504 l 257,15,-1
 650 504 l 257,12,-1
652 508 m 257,16,-1
 877 1127 l 257,17,-1
 629 1127 l 257,18,-1
 404 508 l 257,19,-1
 652 508 l 257,16,-1
EndSplineSet
EndChar

StartChar: quotedbl
Encoding: 34 34 283
GlifName: quotedbl
Width: 1024
VWidth: 0
GlyphClass: 2
Flags: W
LayerCount: 2
Fore
SplineSet
195 1326 m 257,0,-1
 339 1326 l 257,1,-1
 429 1574 l 257,2,-1
 285 1574 l 257,3,-1
 195 1326 l 257,0,-1
595 1326 m 257,4,-1
 739 1326 l 257,5,-1
 829 1574 l 257,6,-1
 685 1574 l 257,7,-1
 595 1326 l 257,4,-1
EndSplineSet
EndChar

StartChar: quotedblbase
Encoding: 8222 8222 284
GlifName: quotedblbase
Width: 1024
VWidth: 0
GlyphClass: 2
Flags: W
LayerCount: 2
Fore
SplineSet
268 237 m 257,0,-1
 184 8 l 257,1,-1
 432 8 l 257,2,-1
 516 237 l 257,3,-1
 268 237 l 257,0,-1
330 135 m 257,4,-1
 109 -146 l 257,5,-1
 230 -206 l 257,6,-1
 427 0 l 257,7,-1
 330 135 l 257,4,-1
667 237 m 257,8,-1
 583 8 l 257,9,-1
 831 8 l 257,10,-1
 915 237 l 257,11,-1
 667 237 l 257,8,-1
729 135 m 257,12,-1
 508 -146 l 257,13,-1
 629 -206 l 257,14,-1
 826 0 l 257,15,-1
 729 135 l 257,12,-1
EndSplineSet
EndChar

StartChar: quotedblleft
Encoding: 8220 8220 285
GlifName: quotedblleft
Width: 1024
VWidth: 0
GlyphClass: 2
Flags: W
LayerCount: 2
Fore
SplineSet
388 1842 m 257,0,-1
 472 2071 l 257,1,-1
 224 2071 l 257,2,-1
 140 1842 l 257,3,-1
 388 1842 l 257,0,-1
327 1944 m 257,4,-1
 548 2225 l 257,5,-1
 426 2285 l 257,6,-1
 227 2075 l 257,7,-1
 327 1944 l 257,4,-1
724 1842 m 257,8,-1
 808 2071 l 257,9,-1
 560 2071 l 257,10,-1
 476 1842 l 257,11,-1
 724 1842 l 257,8,-1
663 1944 m 257,12,-1
 884 2225 l 257,13,-1
 762 2285 l 257,14,-1
 563 2075 l 257,15,-1
 663 1944 l 257,12,-1
EndSplineSet
EndChar

StartChar: quotedblright
Encoding: 8221 8221 286
GlifName: quotedblright
Width: 1024
VWidth: 0
GlyphClass: 2
Flags: W
LayerCount: 2
Fore
SplineSet
626 2285 m 257,0,-1
 542 2056 l 257,1,-1
 790 2056 l 257,2,-1
 874 2285 l 257,3,-1
 626 2285 l 257,0,-1
689 2183 m 257,4,-1
 468 1902 l 257,5,-1
 588 1842 l 257,6,-1
 787 2052 l 257,7,-1
 689 2183 l 257,4,-1
308 2285 m 257,8,-1
 224 2056 l 257,9,-1
 472 2056 l 257,10,-1
 556 2285 l 257,11,-1
 308 2285 l 257,8,-1
371 2183 m 257,12,-1
 150 1902 l 257,13,-1
 270 1842 l 257,14,-1
 469 2052 l 257,15,-1
 371 2183 l 257,12,-1
EndSplineSet
EndChar

StartChar: quoteleft
Encoding: 8216 8216 287
GlifName: quoteleft
Width: 1024
VWidth: 0
GlyphClass: 2
Flags: W
LayerCount: 2
Fore
SplineSet
556 1842 m 257,0,-1
 640 2071 l 257,1,-1
 392 2071 l 257,2,-1
 308 1842 l 257,3,-1
 556 1842 l 257,0,-1
495 1944 m 257,4,-1
 716 2225 l 257,5,-1
 594 2285 l 257,6,-1
 395 2075 l 257,7,-1
 495 1944 l 257,4,-1
EndSplineSet
EndChar

StartChar: quoteright
Encoding: 8217 8217 288
GlifName: quoteright
Width: 1024
VWidth: 0
GlyphClass: 2
Flags: W
LayerCount: 2
Fore
SplineSet
468 2285 m 257,0,-1
 384 2056 l 257,1,-1
 632 2056 l 257,2,-1
 716 2285 l 257,3,-1
 468 2285 l 257,0,-1
529 2183 m 257,4,-1
 308 1902 l 257,5,-1
 430 1842 l 257,6,-1
 629 2052 l 257,7,-1
 529 2183 l 257,4,-1
EndSplineSet
EndChar

StartChar: quotesinglbase
Encoding: 8218 8218 289
GlifName: quotesinglbase
Width: 1024
VWidth: 0
GlyphClass: 2
Flags: W
LayerCount: 2
Fore
SplineSet
468 237 m 257,0,-1
 384 8 l 257,1,-1
 632 8 l 257,2,-1
 716 237 l 257,3,-1
 468 237 l 257,0,-1
529 135 m 257,4,-1
 308 -146 l 257,5,-1
 430 -206 l 257,6,-1
 627 0 l 257,7,-1
 529 135 l 257,4,-1
EndSplineSet
EndChar

StartChar: quotesingle
Encoding: 39 39 290
GlifName: quotesingle
Width: 1024
VWidth: 0
GlyphClass: 2
Flags: W
LayerCount: 2
Fore
SplineSet
489 1496 m 257,0,-1
 405 1264 l 257,1,-1
 535 1264 l 257,2,-1
 619 1496 l 257,3,-1
 489 1496 l 257,0,-1
EndSplineSet
EndChar

StartChar: r
Encoding: 114 114 291
GlifName: r
Width: 1024
VWidth: 0
GlyphClass: 2
Flags: W
AnchorPoint: "top" 504 1174 basechar 0
AnchorPoint: "base" 157 -73 basechar 0
LayerCount: 2
Fore
SplineSet
224 1023 m 257,0,-1
 151 821 l 257,1,-1
 884 821 l 257,2,-1
 957 1023 l 257,3,-1
 224 1023 l 257,0,-1
414 954 m 257,4,-1
 67 0 l 257,5,-1
 267 0 l 257,6,-1
 614 954 l 257,7,-1
 414 954 l 257,4,-1
740 976 m 257,8,-1
 621 650 l 257,9,-1
 821 650 l 257,10,-1
 940 976 l 257,11,-1
 740 976 l 257,8,-1
EndSplineSet
EndChar

StartChar: registered
Encoding: 174 174 294
GlifName: registered
Width: 1024
VWidth: 0
GlyphClass: 2
Flags: W
LayerCount: 2
Fore
SplineSet
493 1032 m 257,0,-1
 300 501 l 257,1,-1
 368 501 l 257,2,-1
 561 1032 l 257,3,-1
 493 1032 l 257,0,-1
518 1032 m 257,4,-1
 493 963 l 257,5,-1
 722 963 l 257,6,-1
 747 1032 l 257,7,-1
 518 1032 l 257,4,-1
687 1032 m 257,8,-1
 603 802 l 257,9,-1
 672 802 l 257,10,-1
 756 1032 l 257,11,-1
 687 1032 l 257,8,-1
457 875 m 257,12,-1
 430 801 l 257,13,-1
 668 801 l 257,14,-1
 695 875 l 257,15,-1
 457 875 l 257,12,-1
480 809 m 257,16,-1
 506 500 l 257,17,-1
 589 500 l 257,18,-1
 550 809 l 257,19,-1
 480 809 l 257,16,-1
321 1537 m 257,20,-1
 -239 0 l 257,21,-1
 -38 0 l 257,22,-1
 522 1537 l 257,23,-1
 321 1537 l 257,20,-1
1060 1537 m 257,24,-1
 500 0 l 257,25,-1
 703 0 l 257,26,-1
 1263 1537 l 257,27,-1
 1060 1537 l 257,24,-1
462 1537 m 257,28,-1
 389 1337 l 257,29,-1
 1032 1337 l 257,30,-1
 1105 1537 l 257,31,-1
 462 1537 l 257,28,-1
-47 204 m 257,32,-1
 -122 0 l 257,33,-1
 551 0 l 257,34,-1
 626 204 l 257,35,-1
 -47 204 l 257,32,-1
EndSplineSet
EndChar

StartChar: ring
Encoding: 730 730 295
GlifName: ring
Width: 1024
VWidth: 0
GlyphClass: 2
Flags: W
LayerCount: 2
Fore
SplineSet
460 1756 m 257,0,-1
 608 1756 l 257,1,-1
 561 1626 l 257,2,-1
 413 1626 l 257,3,-1
 460 1756 l 257,0,-1
388 1847 m 257,4,-1
 276 1537 l 257,5,-1
 636 1537 l 257,6,-1
 748 1847 l 257,7,-1
 388 1847 l 257,4,-1
EndSplineSet
EndChar

StartChar: s
Encoding: 115 115 296
GlifName: s
Width: 1024
VWidth: 0
GlyphClass: 2
Flags: W
AnchorPoint: "top" 711 1124 basechar 0
AnchorPoint: "base" 304 -73 basechar 0
LayerCount: 2
Fore
SplineSet
393 1023 m 257,0,-1
 321 826 l 257,1,-1
 930 826 l 257,2,-1
 1002 1023 l 257,3,-1
 393 1023 l 257,0,-1
393 1023 m 257,4,-1
 289 736 l 257,5,-1
 489 736 l 257,6,-1
 593 1023 l 257,7,-1
 393 1023 l 257,4,-1
95 201 m 257,8,-1
 22 0 l 257,9,-1
 627 0 l 257,10,-1
 700 201 l 257,11,-1
 95 201 l 257,8,-1
532 293 m 257,12,-1
 430 12 l 257,13,-1
 630 12 l 257,14,-1
 732 293 l 257,15,-1
 532 293 l 257,12,-1
290 736 m 257,16,-1
 532 293 l 257,17,-1
 732 293 l 257,18,-1
 490 736 l 257,19,-1
 290 736 l 257,16,-1
EndSplineSet
EndChar

StartChar: section
Encoding: 167 167 301
GlifName: section
Width: 1024
VWidth: 0
GlyphClass: 2
Flags: W
LayerCount: 2
Fore
SplineSet
397 1238 m 257,0,-1
 323 1035 l 257,1,-1
 921 1035 l 257,2,-1
 995 1238 l 257,3,-1
 397 1238 l 257,0,-1
398 1241 m 257,4,-1
 166 605 l 257,5,-1
 368 605 l 257,6,-1
 600 1241 l 257,7,-1
 398 1241 l 257,4,-1
-39 -61 m 257,8,-1
 -112 -260 l 257,9,-1
 596 -260 l 257,10,-1
 669 -61 l 257,11,-1
 -39 -61 l 257,8,-1
432 -259 m 257,12,-1
 633 -259 l 257,13,-1
 761 95 l 257,14,-1
 560 95 l 257,15,-1
 432 -259 l 257,12,-1
166 605 m 257,16,-1
 560 95 l 257,17,-1
 761 95 l 257,18,-1
 368 605 l 257,19,-1
 166 605 l 257,16,-1
538 1626 m 257,20,-1
 464 1423 l 257,21,-1
 1062 1423 l 257,22,-1
 1136 1626 l 257,23,-1
 538 1626 l 257,20,-1
539 1629 m 257,24,-1
 396 1237 l 257,25,-1
 598 1237 l 257,26,-1
 741 1629 l 257,27,-1
 539 1629 l 257,24,-1
78 286 m 257,28,-1
 6 87 l 257,29,-1
 714 87 l 257,30,-1
 786 286 l 257,31,-1
 78 286 l 257,28,-1
549 88 m 257,32,-1
 750 88 l 257,33,-1
 879 442 l 257,34,-1
 678 442 l 257,35,-1
 549 88 l 257,32,-1
396 1237 m 257,36,-1
 678 442 l 257,37,-1
 879 442 l 257,38,-1
 598 1237 l 257,39,-1
 396 1237 l 257,36,-1
EndSplineSet
EndChar

StartChar: semicolon
Encoding: 59 59 302
GlifName: semicolon
Width: 1024
VWidth: 0
GlyphClass: 2
Flags: W
LayerCount: 2
Fore
SplineSet
390 430 m 257,0,-1
 307 201 l 257,1,-1
 555 201 l 257,2,-1
 638 430 l 257,3,-1
 390 430 l 257,0,-1
451 328 m 257,4,-1
 231 47 l 257,5,-1
 353 -13 l 257,6,-1
 552 197 l 257,7,-1
 451 328 l 257,4,-1
527 871 m 257,8,-1
 437 624 l 257,9,-1
 703 624 l 257,10,-1
 793 871 l 257,11,-1
 527 871 l 257,8,-1
EndSplineSet
EndChar

StartChar: seven
Encoding: 55 55 303
GlifName: seven
Width: 1024
VWidth: 0
GlyphClass: 2
Flags: W
LayerCount: 2
Fore
SplineSet
19 1355 m 257,0,-1
 729 1355 l 257,1,-1
 236 0 l 257,2,-1
 439 0 l 257,3,-1
 1005 1557 l 257,4,-1
 92 1557 l 257,5,-1
 19 1355 l 257,0,-1
EndSplineSet
EndChar

StartChar: six
Encoding: 54 54 304
GlifName: six
Width: 1024
VWidth: 0
GlyphClass: 2
Flags: W
LayerCount: 2
Fore
SplineSet
322 1548 m 257,0,-1
 -169 201 l 257,1,-1
 -242 0 l 257,2,-1
 697 0 l 257,3,-1
 1046 959 l 257,4,-1
 310 959 l 257,5,-1
 452 1348 l 257,6,-1
 1193 1348 l 257,7,-1
 1266 1548 l 257,8,-1
 322 1548 l 257,0,-1
766 759 m 257,9,-1
 563 203 l 257,10,-1
 41 203 l 257,11,-1
 244 759 l 257,12,-1
 766 759 l 257,9,-1
EndSplineSet
EndChar

StartChar: slash
Encoding: 47 47 305
GlifName: slash
Width: 1024
VWidth: 0
GlyphClass: 2
Flags: W
LayerCount: 2
Fore
SplineSet
985 1483 m 257,0,-1
 -123 6 l 257,1,-1
 39 -67 l 257,2,-1
 1147 1410 l 257,3,-1
 985 1483 l 257,0,-1
EndSplineSet
EndChar

StartChar: sterling
Encoding: 163 163 307
GlifName: sterling
Width: 1024
VWidth: 0
GlyphClass: 2
Flags: W
LayerCount: 2
Fore
SplineSet
757 1543 m 257,0,-1
 684 1344 l 257,1,-1
 975 1344 l 257,2,-1
 1048 1543 l 257,3,-1
 757 1543 l 257,0,-1
148 770 m 257,4,-1
 76 571 l 257,5,-1
 802 571 l 257,6,-1
 874 770 l 257,7,-1
 148 770 l 257,4,-1
712 1542 m 257,8,-1
 151 0 l 257,9,-1
 349 0 l 257,10,-1
 910 1542 l 257,11,-1
 712 1542 l 257,8,-1
50 202 m 257,12,-1
 -24 0 l 257,13,-1
 702 0 l 257,14,-1
 776 202 l 257,15,-1
 50 202 l 257,12,-1
EndSplineSet
EndChar

StartChar: t
Encoding: 116 116 308
GlifName: t
Width: 1024
VWidth: 0
GlyphClass: 2
Flags: W
AnchorPoint: "top" 805 1649 basechar 0
AnchorPoint: "base" 181 -82 basechar 0
LayerCount: 2
Fore
SplineSet
670 1548 m 257,0,-1
 107 0 l 257,1,-1
 307 0 l 257,2,-1
 870 1548 l 257,3,-1
 670 1548 l 257,0,-1
187 199 m 257,4,-1
 115 0 l 257,5,-1
 506 0 l 257,6,-1
 578 199 l 257,7,-1
 187 199 l 257,4,-1
243 1023 m 257,8,-1
 171 824 l 257,9,-1
 845 824 l 257,10,-1
 917 1023 l 257,11,-1
 243 1023 l 257,8,-1
EndSplineSet
EndChar

StartChar: tcaron
Encoding: 357 357 309
GlifName: tcaron
Width: 1024
VWidth: 0
GlyphClass: 2
Flags: W
LayerCount: 2
Fore
SplineSet
899 1529 m 257,0,-1
 342 0 l 257,1,-1
 543 0 l 257,2,-1
 1100 1529 l 257,3,-1
 899 1529 l 257,0,-1
567 199 m 257,4,-1
 495 0 l 257,5,-1
 886 0 l 257,6,-1
 958 199 l 257,7,-1
 567 199 l 257,4,-1
442 1023 m 257,8,-1
 370 824 l 257,9,-1
 1149 824 l 257,10,-1
 1221 1023 l 257,11,-1
 442 1023 l 257,8,-1
1216 1496 m 257,12,-1
 1142 1291 l 257,13,-1
 1272 1291 l 257,14,-1
 1346 1496 l 257,15,-1
 1216 1496 l 257,12,-1
EndSplineSet
EndChar

StartChar: thorn
Encoding: 254 254 310
GlifName: thorn
Width: 1024
VWidth: 0
GlyphClass: 2
Flags: W
LayerCount: 2
Fore
SplineSet
173 1034 m 257,0,-1
 173 -406 l 257,1,-1
 373 -406 l 257,2,-1
 373 1034 l 257,3,-1
 173 1034 l 257,0,-1
360 667 m 257,4,-1
 360 468 l 257,5,-1
 916 468 l 257,6,-1
 916 667 l 257,7,-1
 360 667 l 257,4,-1
368 6 m 257,8,-1
 368 -195 l 257,9,-1
 914 -195 l 257,10,-1
 914 6 l 257,11,-1
 368 6 l 257,8,-1
716 597 m 257,12,-1
 716 -104 l 257,13,-1
 914 -104 l 257,14,-1
 914 597 l 257,15,-1
 716 597 l 257,12,-1
EndSplineSet
EndChar

StartChar: three
Encoding: 51 51 311
GlifName: three
Width: 1024
VWidth: 0
GlyphClass: 2
Flags: W
LayerCount: 2
Fore
SplineSet
89 736 m 257,0,-1
 747 736 l 257,1,-1
 549 192 l 257,2,-1
 -151 192 l 257,3,-1
 -224 -8 l 257,4,-1
 680 -8 l 257,5,-1
 1248 1553 l 257,6,-1
 374 1553 l 257,7,-1
 301 1353 l 257,8,-1
 969 1353 l 257,9,-1
 818 936 l 257,10,-1
 162 936 l 257,11,-1
 89 736 l 257,0,-1
EndSplineSet
EndChar

StartChar: threequarters
Encoding: 190 190 312
GlifName: threequarters
Width: 1024
VWidth: 0
GlyphClass: 2
Flags: W
LayerCount: 2
Fore
SplineSet
985 1483 m 257,0,-1
 -123 6 l 257,1,-1
 39 -67 l 257,2,-1
 1147 1410 l 257,3,-1
 985 1483 l 257,0,-1
282 1272 m 257,4,-1
 560 1272 l 257,5,-1
 492 1084 l 257,6,-1
 196 1084 l 257,7,-1
 171 1015 l 257,8,-1
 553 1015 l 257,9,-1
 749 1553 l 257,10,-1
 380 1553 l 257,11,-1
 354 1484 l 257,12,-1
 636 1484 l 257,13,-1
 584 1340 l 257,14,-1
 307 1340 l 257,15,-1
 282 1272 l 257,4,-1
509 340 m 257,16,-1
 774 340 l 257,17,-1
 653 7 l 257,18,-1
 734 7 l 257,19,-1
 981 687 l 257,20,-1
 899 687 l 257,21,-1
 805 428 l 257,22,-1
 623 428 l 257,23,-1
 718 689 l 257,24,-1
 636 689 l 257,25,-1
 509 340 l 257,16,-1
EndSplineSet
EndChar

StartChar: tilde
Encoding: 732 732 313
GlifName: tilde
Width: 1024
VWidth: 0
GlyphClass: 2
Flags: W
LayerCount: 2
Fore
SplineSet
410 1607 m 257,0,-1
 381 1528 l 257,1,-1
 643 1479 l 257,2,-1
 672 1558 l 257,3,-1
 410 1607 l 257,0,-1
203 1560 m 257,4,-1
 186 1482 l 257,5,-1
 381 1528 l 257,6,-1
 410 1607 l 257,7,-1
 203 1560 l 257,4,-1
672 1558 m 257,8,-1
 643 1479 l 257,9,-1
 829 1592 l 257,10,-1
 838 1668 l 257,11,-1
 672 1558 l 257,8,-1
EndSplineSet
EndChar

StartChar: tildecomb
Encoding: 771 771 314
GlifName: tildecomb
Width: 0
VWidth: 0
GlyphClass: 4
Flags: W
AnchorPoint: "top" -11 759 mark 0
LayerCount: 2
Fore
SplineSet
-164 969 m 257,0,-1
 -200 870 l 257,1,-1
 128 809 l 257,2,-1
 164 908 l 257,3,-1
 -164 969 l 257,0,-1
-423 911 m 257,4,-1
 -444 813 l 257,5,-1
 -200 870 l 257,6,-1
 -164 969 l 257,7,-1
 -423 911 l 257,4,-1
164 908 m 257,8,-1
 128 809 l 257,9,-1
 360 950 l 257,10,-1
 371 1046 l 257,11,-1
 164 908 l 257,8,-1
EndSplineSet
EndChar

StartChar: two
Encoding: 50 50 316
GlifName: two
Width: 1024
VWidth: 0
GlyphClass: 2
Flags: W
LayerCount: 2
Fore
SplineSet
311 1344 m 257,0,-1
 920 1344 l 257,1,-1
 762 908 l 257,2,-1
 160 908 l 257,3,-1
 -171 0 l 257,4,-1
 617 0 l 257,5,-1
 690 200 l 257,6,-1
 105 200 l 257,7,-1
 290 707 l 257,8,-1
 889 707 l 257,9,-1
 1195 1548 l 257,10,-1
 386 1548 l 257,11,-1
 311 1344 l 257,0,-1
EndSplineSet
EndChar

StartChar: u
Encoding: 117 117 317
GlifName: u
Width: 1024
VWidth: 0
GlyphClass: 2
Flags: W
AnchorPoint: "top" 703 1122 basechar 0
AnchorPoint: "base" 360 -60 basechar 0
LayerCount: 2
Fore
SplineSet
382 1023 m 257,0,-1
 10 0 l 257,1,-1
 211 0 l 257,2,-1
 583 1023 l 257,3,-1
 382 1023 l 257,0,-1
814 1023 m 257,4,-1
 442 0 l 257,5,-1
 642 0 l 257,6,-1
 1014 1023 l 257,7,-1
 814 1023 l 257,4,-1
130 200 m 257,8,-1
 57 0 l 257,9,-1
 759 0 l 257,10,-1
 832 200 l 257,11,-1
 130 200 l 257,8,-1
EndSplineSet
EndChar

StartChar: underscore
Encoding: 95 95 326
GlifName: underscore
Width: 1024
VWidth: 0
GlyphClass: 2
Flags: W
LayerCount: 2
Fore
SplineSet
12 -5 m 257,0,-1
 -12 -71 l 257,1,-1
 1012 -71 l 257,2,-1
 1036 -5 l 257,3,-1
 12 -5 l 257,0,-1
EndSplineSet
EndChar

StartChar: uni00B2
Encoding: 178 178 328
GlifName: uni00B_2
Width: 1024
VWidth: 0
GlyphClass: 2
Flags: W
LayerCount: 2
Fore
SplineSet
372 1455 m 257,0,-1
 720 1455 l 257,1,-1
 649 1259 l 257,2,-1
 305 1259 l 257,3,-1
 156 851 l 257,4,-1
 605 851 l 257,5,-1
 638 940 l 257,6,-1
 305 940 l 257,7,-1
 388 1168 l 257,8,-1
 730 1168 l 257,9,-1
 868 1548 l 257,10,-1
 406 1548 l 257,11,-1
 372 1455 l 257,0,-1
EndSplineSet
EndChar

StartChar: uni00B3
Encoding: 179 179 329
GlifName: uni00B_3
Width: 1024
VWidth: 0
GlyphClass: 2
Flags: W
LayerCount: 2
Fore
SplineSet
225 1215 m 257,0,-1
 677 1215 l 257,1,-1
 595 990 l 257,2,-1
 114 990 l 257,3,-1
 84 908 l 257,4,-1
 705 908 l 257,5,-1
 940 1553 l 257,6,-1
 340 1553 l 257,7,-1
 310 1471 l 257,8,-1
 769 1471 l 257,9,-1
 706 1298 l 257,10,-1
 255 1298 l 257,11,-1
 225 1215 l 257,0,-1
EndSplineSet
EndChar

StartChar: uni00B9
Encoding: 185 185 330
GlifName: uni00B_9
Width: 1024
VWidth: 0
GlyphClass: 2
Flags: W
LayerCount: 2
Fore
SplineSet
321 887 m 257,0,-1
 421 887 l 257,1,-1
 703 1661 l 257,2,-1
 603 1661 l 257,3,-1
 321 887 l 257,0,-1
605 1661 m 257,4,-1
 452 1513 l 257,5,-1
 509 1463 l 257,6,-1
 662 1612 l 257,7,-1
 605 1661 l 257,4,-1
EndSplineSet
EndChar

StartChar: uni018F
Encoding: 399 399 343
GlifName: uni018F_
Width: 1024
VWidth: 0
GlyphClass: 2
Flags: W
AnchorPoint: "top" 1161 1630 basechar 0
AnchorPoint: "base" 647 -117 basechar 0
LayerCount: 2
Fore
SplineSet
804 0 m 257,0,-1
 881 211 l 257,1,-1
 342 211 l 257,2,-1
 265 0 l 257,3,-1
 804 0 l 257,0,-1
854 0 m 257,4,-1
 1416 1543 l 257,5,-1
 1214 1543 l 257,6,-1
 652 0 l 257,7,-1
 854 0 l 257,4,-1
1240 1342 m 257,8,-1
 1314 1543 l 257,9,-1
 732 1543 l 257,10,-1
 658 1342 l 257,11,-1
 1240 1342 l 257,8,-1
1035 689 m 257,12,-1
 1100 868 l 257,13,-1
 446 868 l 257,14,-1
 381 689 l 257,15,-1
 1035 689 l 257,12,-1
473 30 m 257,16,-1
 618 869 l 257,17,-1
 423 869 l 257,18,-1
 278 30 l 257,19,-1
 473 30 l 257,16,-1
EndSplineSet
EndChar

StartChar: uni0192
Encoding: 402 402 344
GlifName: uni0192
Width: 1024
VWidth: 0
GlyphClass: 2
Flags: W
LayerCount: 2
Fore
SplineSet
413 1023 m 257,0,-1
 413 -406 l 257,1,-1
 613 -406 l 257,2,-1
 613 1023 l 257,3,-1
 413 1023 l 257,0,-1
475 1023 m 257,4,-1
 475 831 l 257,5,-1
 957 831 l 257,6,-1
 957 1023 l 257,7,-1
 475 1023 l 257,4,-1
229 559 m 257,8,-1
 229 356 l 257,9,-1
 860 356 l 257,10,-1
 860 559 l 257,11,-1
 229 559 l 257,8,-1
167 -201 m 257,12,-1
 167 -406 l 257,13,-1
 615 -406 l 257,14,-1
 615 -201 l 257,15,-1
 167 -201 l 257,12,-1
EndSplineSet
EndChar

StartChar: uni0237
Encoding: 567 567 391
GlifName: uni0237
Width: 1024
VWidth: 0
GlyphClass: 2
Flags: W
AnchorPoint: "top" 1150 1182 basechar 0
LayerCount: 2
Fore
SplineSet
969 940 m 257,0,-1
 477 -411 l 257,1,-1
 676 -411 l 257,2,-1
 1168 940 l 257,3,-1
 969 940 l 257,0,-1
121 -209 m 257,4,-1
 49 -406 l 257,5,-1
 579 -406 l 257,6,-1
 651 -209 l 257,7,-1
 121 -209 l 257,4,-1
196 -6 m 257,8,-1
 70 -351 l 257,9,-1
 270 -351 l 257,10,-1
 396 -6 l 257,11,-1
 196 -6 l 257,8,-1
EndSplineSet
EndChar

StartChar: uni0259
Encoding: 601 601 392
GlifName: uni0259
Width: 1024
VWidth: 0
GlyphClass: 2
Flags: W
LayerCount: 2
Fore
SplineSet
804 0 m 257,0,-1
 804 211 l 257,1,-1
 240 278 l 257,2,-1
 240 67 l 257,3,-1
 804 0 l 257,0,-1
854 0 m 257,4,-1
 854 1023 l 257,5,-1
 652 1023 l 257,6,-1
 652 0 l 257,7,-1
 854 0 l 257,4,-1
752 822 m 257,8,-1
 752 1023 l 257,9,-1
 170 1023 l 257,10,-1
 170 822 l 257,11,-1
 752 822 l 257,8,-1
784 398 m 257,12,-1
 784 577 l 257,13,-1
 194 577 l 257,14,-1
 194 398 l 257,15,-1
 784 398 l 257,12,-1
437 97 m 257,16,-1
 366 578 l 257,17,-1
 171 578 l 257,18,-1
 242 97 l 257,19,-1
 437 97 l 257,16,-1
EndSplineSet
EndChar

StartChar: uni02C9
Encoding: 713 713 396
GlifName: uni02C_9
Width: 1024
VWidth: 0
GlyphClass: 2
Flags: W
LayerCount: 2
Fore
SplineSet
247 1630 m 257,0,-1
 217 1548 l 257,1,-1
 777 1548 l 257,2,-1
 807 1630 l 257,3,-1
 247 1630 l 257,0,-1
EndSplineSet
EndChar

StartChar: uni02CA
Encoding: 714 714 397
GlifName: uni02C_A_
Width: 1024
VWidth: 0
GlyphClass: 2
Flags: W
LayerCount: 2
Fore
SplineSet
587 1346 m 257,0,-1
 364 1092 l 257,1,-1
 436 1046 l 257,2,-1
 660 1301 l 257,3,-1
 587 1346 l 257,0,-1
EndSplineSet
EndChar

StartChar: uni02CB
Encoding: 715 715 398
GlifName: uni02C_B_
Width: 1024
VWidth: 0
GlyphClass: 2
Flags: W
LayerCount: 2
Fore
SplineSet
441 2107 m 257,0,-1
 475 1871 l 257,1,-1
 583 1917 l 257,2,-1
 550 2154 l 257,3,-1
 441 2107 l 257,0,-1
EndSplineSet
EndChar

StartChar: uni0302
Encoding: 770 770 399
GlifName: uni0302
Width: 0
VWidth: 0
GlyphClass: 4
Flags: W
AnchorPoint: "top" 16 767 mark 0
LayerCount: 2
Fore
SplineSet
144 1060 m 257,0,-1
 84 1060 l 257,1,-1
 -112 813 l 257,2,-1
 -61 788 l 257,3,-1
 144 1060 l 257,0,-1
68 1012 m 257,4,-1
 90 788 l 257,5,-1
 158 810 l 257,6,-1
 144 1060 l 257,7,-1
 68 1012 l 257,4,-1
EndSplineSet
EndChar

StartChar: uni0304
Encoding: 772 772 400
GlifName: uni0304
Width: 0
VWidth: 0
GlyphClass: 4
Flags: W
AnchorPoint: "top" -5 776 mark 0
LayerCount: 2
Fore
SplineSet
-274 891 m 257,0,-1
 -304 809 l 257,1,-1
 256 809 l 257,2,-1
 286 891 l 257,3,-1
 -274 891 l 257,0,-1
EndSplineSet
EndChar

StartChar: uni0305
Encoding: 773 773 401
GlifName: uni0305
Width: 0
VWidth: 0
GlyphClass: 4
Flags: W
AnchorPoint: "top" 538 1464 mark 0
LayerCount: 2
Fore
SplineSet
206 1602 m 257,0,-1
 184 1542 l 257,1,-1
 938 1542 l 257,2,-1
 960 1602 l 257,3,-1
 206 1602 l 257,0,-1
EndSplineSet
EndChar

StartChar: uni0306
Encoding: 774 774 402
GlifName: uni0306
Width: 0
VWidth: 0
GlyphClass: 4
Flags: W
AnchorPoint: "top" -12 826 mark 0
LayerCount: 2
Fore
SplineSet
183 899 m 257,0,-1
 158 831 l 257,1,-1
 348 899 l 257,2,-1
 383 996 l 257,3,-1
 183 899 l 257,0,-1
-141 899 m 257,4,-1
 -166 831 l 257,5,-1
 158 831 l 257,6,-1
 183 899 l 257,7,-1
 -141 899 l 257,4,-1
-282 981 m 257,8,-1
 -312 899 l 257,9,-1
 -166 831 l 257,10,-1
 -141 899 l 257,11,-1
 -282 981 l 257,8,-1
EndSplineSet
EndChar

StartChar: uni0307
Encoding: 775 775 403
GlifName: uni0307
Width: 0
VWidth: 0
GlyphClass: 4
Flags: W
AnchorPoint: "top" -6 790 mark 0
LayerCount: 2
Fore
SplineSet
-63 995 m 257,0,-1
 -136 793 l 257,1,-1
 88 793 l 257,2,-1
 161 995 l 257,3,-1
 -63 995 l 257,0,-1
EndSplineSet
EndChar

StartChar: uni0308
Encoding: 776 776 404
GlifName: uni0308
Width: 0
VWidth: 0
GlyphClass: 4
Flags: W
AnchorPoint: "top" 560 1546 mark 0
LayerCount: 2
Fore
SplineSet
456 1738 m 257,0,-1
 419 1637 l 257,1,-1
 531 1637 l 257,2,-1
 568 1738 l 257,3,-1
 456 1738 l 257,0,-1
698 1738 m 257,4,-1
 661 1637 l 257,5,-1
 773 1637 l 257,6,-1
 810 1738 l 257,7,-1
 698 1738 l 257,4,-1
EndSplineSet
EndChar

StartChar: uni030A
Encoding: 778 778 405
GlifName: uni030A_
Width: 0
VWidth: 0
GlyphClass: 4
Flags: W
AnchorPoint: "top" 4 780 mark 0
LayerCount: 2
Fore
SplineSet
-3 1032 m 257,0,-1
 145 1032 l 257,1,-1
 97 902 l 257,2,-1
 -51 902 l 257,3,-1
 -3 1032 l 257,0,-1
-75 1123 m 257,4,-1
 -188 813 l 257,5,-1
 172 813 l 257,6,-1
 285 1123 l 257,7,-1
 -75 1123 l 257,4,-1
EndSplineSet
EndChar

StartChar: uni030B
Encoding: 779 779 406
GlifName: uni030B_
Width: 0
VWidth: 0
GlyphClass: 4
Flags: W
AnchorPoint: "top" 3 783 mark 0
LayerCount: 2
Fore
SplineSet
-286 815 m 257,0,-1
 -142 815 l 257,1,-1
 39 1063 l 257,2,-1
 -105 1063 l 257,3,-1
 -286 815 l 257,0,-1
114 815 m 257,4,-1
 258 815 l 257,5,-1
 439 1063 l 257,6,-1
 295 1063 l 257,7,-1
 114 815 l 257,4,-1
EndSplineSet
EndChar

StartChar: uni030C
Encoding: 780 780 407
GlifName: uni030C_
Width: 0
VWidth: 0
GlyphClass: 4
Flags: W
AnchorPoint: "top" -18 757 mark 0
LayerCount: 2
Fore
SplineSet
17 807 m 257,0,-1
 10 1079 l 257,1,-1
 -59 1054 l 257,2,-1
 -43 807 l 257,3,-1
 17 807 l 257,0,-1
-24 855 m 257,4,-1
 17 807 l 257,5,-1
 213 1057 l 257,6,-1
 161 1079 l 257,7,-1
 -24 855 l 257,4,-1
EndSplineSet
EndChar

StartChar: uni030F
Encoding: 783 783 408
GlifName: uni030F_
Width: 0
VWidth: 0
GlyphClass: 4
Flags: W
AnchorPoint: "top" -2 773 mark 0
LayerCount: 2
Fore
SplineSet
31 1032 m 257,0,-1
 65 796 l 257,1,-1
 172 842 l 257,2,-1
 140 1079 l 257,3,-1
 31 1032 l 257,0,-1
-187 1032 m 257,4,-1
 -153 796 l 257,5,-1
 -46 842 l 257,6,-1
 -78 1079 l 257,7,-1
 -187 1032 l 257,4,-1
EndSplineSet
EndChar

StartChar: uni0311
Encoding: 785 785 409
GlifName: uni0311
Width: 0
VWidth: 0
GlyphClass: 4
Flags: W
AnchorPoint: "top" 0 786 mark 0
LayerCount: 2
Fore
SplineSet
-202 831 m 257,0,-1
 -178 899 l 257,1,-1
 -367 831 l 257,2,-1
 -403 734 l 257,3,-1
 -202 831 l 257,0,-1
122 831 m 257,4,-1
 146 899 l 257,5,-1
 -178 899 l 257,6,-1
 -202 831 l 257,7,-1
 122 831 l 257,4,-1
263 749 m 257,8,-1
 293 831 l 257,9,-1
 146 899 l 257,10,-1
 122 831 l 257,11,-1
 263 749 l 257,8,-1
EndSplineSet
EndChar

StartChar: uni0326
Encoding: 806 806 410
GlifName: uni0326
Width: 0
VWidth: 0
GlyphClass: 4
Flags: W
AnchorPoint: "base" 22 -5 mark 0
LayerCount: 2
Fore
SplineSet
-114 0 m 257,0,-1
 -198 -230 l 257,1,-1
 50 -230 l 257,2,-1
 134 0 l 257,3,-1
 -114 0 l 257,0,-1
-53 -103 m 257,4,-1
 -273 -384 l 257,5,-1
 -152 -444 l 257,6,-1
 46 -234 l 257,7,-1
 -53 -103 l 257,4,-1
EndSplineSet
EndChar

StartChar: uni0327
Encoding: 807 807 411
GlifName: uni0327
Width: 0
VWidth: 0
GlyphClass: 4
Flags: W
AnchorPoint: "base" -446 90 mark 0
LayerCount: 2
Fore
SplineSet
-158 180 m 257,0,-1
 -276 -144 l 257,1,-1
 -120 -144 l 257,2,-1
 -2 180 l 257,3,-1
 -158 180 l 257,0,-1
-327 -288 m 257,4,-1
 -370 -406 l 257,5,-1
 76 -406 l 257,6,-1
 119 -288 l 257,7,-1
 -327 -288 l 257,4,-1
72 0 m 257,8,-1
 -64 -372 l 257,9,-1
 88 -372 l 257,10,-1
 224 0 l 257,11,-1
 72 0 l 257,8,-1
-222 0 m 257,12,-1
 -279 -156 l 257,13,-1
 167 -156 l 257,14,-1
 224 0 l 257,15,-1
 -222 0 l 257,12,-1
EndSplineSet
EndChar

StartChar: uni0328
Encoding: 808 808 412
GlifName: uni0328
Width: 0
VWidth: 0
GlyphClass: 4
Flags: W
AnchorPoint: "base" -167 0 mark 0
LayerCount: 2
Fore
SplineSet
-376 -288 m 257,0,-1
 -419 -406 l 257,1,-1
 123 -406 l 257,2,-1
 166 -288 l 257,3,-1
 -376 -288 l 257,0,-1
-271 0 m 257,4,-1
 -419 -406 l 257,5,-1
 -301 -406 l 257,6,-1
 -153 0 l 257,7,-1
 -271 0 l 257,4,-1
-271 0 m 257,8,-1
 -315 -121 l 257,9,-1
 227 -121 l 257,10,-1
 271 0 l 257,11,-1
 -271 0 l 257,8,-1
EndSplineSet
EndChar

StartChar: uni0331
Encoding: 817 817 413
GlifName: uni0331
Width: 0
VWidth: 0
GlyphClass: 4
Flags: W
AnchorPoint: "base" 4 -163 mark 0
LayerCount: 2
Fore
SplineSet
-342 -170 m 257,0,-1
 -370 -248 l 257,1,-1
 190 -248 l 257,2,-1
 218 -170 l 257,3,-1
 -342 -170 l 257,0,-1
EndSplineSet
EndChar

StartChar: uni0900
Encoding: 2304 2304 414
GlifName: uni0900
Width: 0
VWidth: 0
GlyphClass: 4
Flags: W
AnchorPoint: "abvm_deva" 642 1648 mark 0
LayerCount: 2
Fore
SplineSet
371 2124 m 257,0,-1
 195 1639 l 257,1,-1
 394 1639 l 257,2,-1
 570 2124 l 257,3,-1
 371 2124 l 257,0,-1
417 2124 m 257,4,-1
 345 1925 l 257,5,-1
 979 1925 l 257,6,-1
 1051 2124 l 257,7,-1
 417 2124 l 257,4,-1
589 1865 m 257,8,-1
 516 1665 l 257,9,-1
 716 1665 l 257,10,-1
 789 1865 l 257,11,-1
 589 1865 l 257,8,-1
975 2124 m 257,12,-1
 797 1636 l 257,13,-1
 997 1636 l 257,14,-1
 1175 2124 l 257,15,-1
 975 2124 l 257,12,-1
EndSplineSet
EndChar

StartChar: uni0901
Encoding: 2305 2305 415
GlifName: uni0901
Width: 0
VWidth: 0
GlyphClass: 4
Flags: W
AnchorPoint: "abvm_deva" 589 1618 mark 0
LayerCount: 2
Fore
SplineSet
371 2124 m 257,0,-1
 195 1639 l 257,1,-1
 394 1639 l 257,2,-1
 570 2124 l 257,3,-1
 371 2124 l 257,0,-1
314 1842 m 257,4,-1
 241 1641 l 257,5,-1
 875 1641 l 257,6,-1
 948 1842 l 257,7,-1
 314 1842 l 257,4,-1
663 2095 m 257,8,-1
 590 1895 l 257,9,-1
 790 1895 l 257,10,-1
 863 2095 l 257,11,-1
 663 2095 l 257,8,-1
978 2132 m 257,12,-1
 799 1641 l 257,13,-1
 999 1641 l 257,14,-1
 1178 2132 l 257,15,-1
 978 2132 l 257,12,-1
EndSplineSet
EndChar

StartChar: uni0902
Encoding: 2306 2306 416
GlifName: uni0902
Width: 0
VWidth: 0
GlyphClass: 4
Flags: W
AnchorPoint: "abvm_deva" 284 1607 mark 0
LayerCount: 2
Fore
SplineSet
569 1839 m 257,0,-1
 497 1639 l 257,1,-1
 697 1639 l 257,2,-1
 769 1839 l 257,3,-1
 569 1839 l 257,0,-1
EndSplineSet
EndChar

StartChar: uni0903
Encoding: 2307 2307 417
GlifName: uni0903
Width: 1024
VWidth: 0
GlyphClass: 2
Flags: W
LayerCount: 2
Fore
SplineSet
648 649 m 257,0,-1
 575 449 l 257,1,-1
 775 449 l 257,2,-1
 848 649 l 257,3,-1
 648 649 l 257,0,-1
891 1317 m 257,4,-1
 819 1117 l 257,5,-1
 1019 1117 l 257,6,-1
 1091 1317 l 257,7,-1
 891 1317 l 257,4,-1
EndSplineSet
EndChar

StartChar: uni0904
Encoding: 2308 2308 418
GlifName: uni0904
Width: 1024
VWidth: 0
GlyphClass: 2
Flags: W
AnchorPoint: "abvm_deva" 1354 1972 basechar 0
LayerCount: 2
Fore
SplineSet
1050 2155 m 257,0,-1
 934 1836 l 257,1,-1
 1132 1836 l 257,2,-1
 1248 2155 l 257,3,-1
 1050 2155 l 257,0,-1
981 1967 m 257,4,-1
 908 1768 l 257,5,-1
 1592 1768 l 257,6,-1
 1664 1967 l 257,7,-1
 981 1967 l 257,4,-1
1461 1956 m 257,8,-1
 1301 1516 l 257,9,-1
 1502 1516 l 257,10,-1
 1662 1956 l 257,11,-1
 1461 1956 l 257,8,-1
1279 1548 m 257,12,-1
 1206 1347 l 257,13,-1
 1515 1347 l 257,14,-1
 1588 1548 l 257,15,-1
 1279 1548 l 257,12,-1
1293 1419 m 257,16,-1
 777 0 l 257,17,-1
 976 0 l 257,18,-1
 1492 1419 l 257,19,-1
 1293 1419 l 257,16,-1
613 1548 m 257,20,-1
 541 1348 l 257,21,-1
 1064 1348 l 257,22,-1
 1136 1548 l 257,23,-1
 613 1548 l 257,20,-1
962 1548 m 257,24,-1
 450 140 l 257,25,-1
 650 140 l 257,26,-1
 1162 1548 l 257,27,-1
 962 1548 l 257,24,-1
459 894 m 257,28,-1
 386 693 l 257,29,-1
 1083 693 l 257,30,-1
 1156 894 l 257,31,-1
 459 894 l 257,28,-1
98 201 m 257,32,-1
 25 0 l 257,33,-1
 599 0 l 257,34,-1
 672 201 l 257,35,-1
 98 201 l 257,32,-1
EndSplineSet
EndChar

StartChar: uni0905
Encoding: 2309 2309 419
GlifName: uni0905
Width: 1024
VWidth: 0
GlyphClass: 2
Flags: W
AnchorPoint: "abvm_deva" 1441 1618 basechar 0
LayerCount: 2
Fore
SplineSet
1279 1548 m 257,0,-1
 1207 1348 l 257,1,-1
 1518 1348 l 257,2,-1
 1590 1548 l 257,3,-1
 1279 1548 l 257,0,-1
1293 1419 m 257,4,-1
 777 0 l 257,5,-1
 976 0 l 257,6,-1
 1492 1419 l 257,7,-1
 1293 1419 l 257,4,-1
613 1548 m 257,8,-1
 541 1348 l 257,9,-1
 1064 1348 l 257,10,-1
 1136 1548 l 257,11,-1
 613 1548 l 257,8,-1
962 1548 m 257,12,-1
 450 140 l 257,13,-1
 650 140 l 257,14,-1
 1162 1548 l 257,15,-1
 962 1548 l 257,12,-1
459 894 m 257,16,-1
 386 693 l 257,17,-1
 1083 693 l 257,18,-1
 1156 894 l 257,19,-1
 459 894 l 257,16,-1
98 201 m 257,20,-1
 25 0 l 257,21,-1
 599 0 l 257,22,-1
 672 201 l 257,23,-1
 98 201 l 257,20,-1
EndSplineSet
EndChar

StartChar: uni0906
Encoding: 2310 2310 420
GlifName: uni0906
Width: 1024
VWidth: 0
GlyphClass: 2
Flags: W
AnchorPoint: "abvm_deva" 1347 1606 basechar 0
LayerCount: 2
Fore
SplineSet
1091 1548 m 257,0,-1
 1019 1348 l 257,1,-1
 1516 1348 l 257,2,-1
 1588 1548 l 257,3,-1
 1091 1548 l 257,0,-1
1060 1419 m 257,4,-1
 544 0 l 257,5,-1
 743 0 l 257,6,-1
 1259 1419 l 257,7,-1
 1060 1419 l 257,4,-1
588 1548 m 257,8,-1
 516 1348 l 257,9,-1
 876 1348 l 257,10,-1
 948 1548 l 257,11,-1
 588 1548 l 257,8,-1
774 1548 m 257,12,-1
 262 140 l 257,13,-1
 462 140 l 257,14,-1
 974 1548 l 257,15,-1
 774 1548 l 257,12,-1
434 894 m 257,16,-1
 361 693 l 257,17,-1
 895 693 l 257,18,-1
 968 894 l 257,19,-1
 434 894 l 257,16,-1
73 201 m 257,20,-1
 0 0 l 257,21,-1
 411 0 l 257,22,-1
 484 201 l 257,23,-1
 73 201 l 257,20,-1
1328 1420 m 257,24,-1
 811 0 l 257,25,-1
 1010 0 l 257,26,-1
 1527 1420 l 257,27,-1
 1328 1420 l 257,24,-1
EndSplineSet
EndChar

StartChar: uni0907
Encoding: 2311 2311 421
GlifName: uni0907
Width: 1024
VWidth: 0
GlyphClass: 2
Flags: W
AnchorPoint: "abvm_deva" 1212 1600 basechar 0
LayerCount: 2
Fore
SplineSet
563 1548 m 257,0,-1
 491 1348 l 257,1,-1
 1516 1348 l 257,2,-1
 1588 1548 l 257,3,-1
 563 1548 l 257,0,-1
1103 1530 m 257,4,-1
 950 1110 l 257,5,-1
 1150 1110 l 257,6,-1
 1303 1530 l 257,7,-1
 1103 1530 l 257,4,-1
604 1205 m 257,8,-1
 530 1004 l 257,9,-1
 1111 1004 l 257,10,-1
 1185 1205 l 257,11,-1
 604 1205 l 257,8,-1
595 1181 m 257,12,-1
 434 738 l 257,13,-1
 604 738 l 257,14,-1
 765 1181 l 257,15,-1
 595 1181 l 257,12,-1
486 881 m 257,16,-1
 413 681 l 257,17,-1
 1008 681 l 257,18,-1
 1081 881 l 257,19,-1
 486 881 l 257,16,-1
960 881 m 257,20,-1
 740 278 l 257,21,-1
 939 278 l 257,22,-1
 1159 881 l 257,23,-1
 960 881 l 257,20,-1
251 298 m 257,24,-1
 178 97 l 257,25,-1
 873 97 l 257,26,-1
 946 298 l 257,27,-1
 251 298 l 257,24,-1
367 298 m 257,28,-1
 170 -244 l 257,29,-1
 370 -244 l 257,30,-1
 567 298 l 257,31,-1
 367 298 l 257,28,-1
EndSplineSet
EndChar

StartChar: uni0908
Encoding: 2312 2312 422
GlifName: uni0908
Width: 1024
VWidth: 0
GlyphClass: 2
Flags: W
AnchorPoint: "abvm_deva" 1371 1624 basechar 0
LayerCount: 2
Fore
SplineSet
563 1548 m 257,0,-1
 491 1348 l 257,1,-1
 1516 1348 l 257,2,-1
 1588 1548 l 257,3,-1
 563 1548 l 257,0,-1
1109 1548 m 257,4,-1
 948 1104 l 257,5,-1
 1148 1104 l 257,6,-1
 1309 1548 l 257,7,-1
 1109 1548 l 257,4,-1
604 1205 m 257,8,-1
 530 1004 l 257,9,-1
 1111 1004 l 257,10,-1
 1185 1205 l 257,11,-1
 604 1205 l 257,8,-1
595 1181 m 257,12,-1
 434 738 l 257,13,-1
 634 738 l 257,14,-1
 795 1181 l 257,15,-1
 595 1181 l 257,12,-1
486 881 m 257,16,-1
 413 681 l 257,17,-1
 1008 681 l 257,18,-1
 1081 881 l 257,19,-1
 486 881 l 257,16,-1
978 881 m 257,20,-1
 761 285 l 257,21,-1
 942 285 l 257,22,-1
 1159 881 l 257,23,-1
 978 881 l 257,20,-1
251 298 m 257,24,-1
 178 97 l 257,25,-1
 876 97 l 257,26,-1
 949 298 l 257,27,-1
 251 298 l 257,24,-1
367 298 m 257,28,-1
 170 -244 l 257,29,-1
 393 -244 l 257,30,-1
 590 298 l 257,31,-1
 367 298 l 257,28,-1
912 1770 m 257,32,-1
 1033 1423 l 257,33,-1
 1237 1537 l 257,34,-1
 1116 1886 l 257,35,-1
 912 1770 l 257,32,-1
EndSplineSet
EndChar

StartChar: uni0909
Encoding: 2313 2313 423
GlifName: uni0909
Width: 1024
VWidth: 0
GlyphClass: 2
Flags: W
AnchorPoint: "abvm_deva" 1143 1606 basechar 0
LayerCount: 2
Fore
SplineSet
563 1548 m 257,0,-1
 491 1348 l 257,1,-1
 1517 1348 l 257,2,-1
 1589 1548 l 257,3,-1
 563 1548 l 257,0,-1
1037 1530 m 257,4,-1
 844 1001 l 257,5,-1
 1043 1001 l 257,6,-1
 1236 1530 l 257,7,-1
 1037 1530 l 257,4,-1
615 1044 m 257,8,-1
 543 845 l 257,9,-1
 1185 845 l 257,10,-1
 1257 1044 l 257,11,-1
 615 1044 l 257,8,-1
1040 994 m 257,12,-1
 678 0 l 257,13,-1
 878 0 l 257,14,-1
 1240 994 l 257,15,-1
 1040 994 l 257,12,-1
203 201 m 257,16,-1
 130 0 l 257,17,-1
 867 0 l 257,18,-1
 940 201 l 257,19,-1
 203 201 l 257,16,-1
262 363 m 257,20,-1
 143 36 l 257,21,-1
 343 36 l 257,22,-1
 462 363 l 257,23,-1
 262 363 l 257,20,-1
EndSplineSet
EndChar

StartChar: uni090A
Encoding: 2314 2314 424
GlifName: uni090A_
Width: 1024
VWidth: 0
GlyphClass: 2
Flags: W
AnchorPoint: "abvm_deva" 1103 1612 basechar 0
LayerCount: 2
Fore
SplineSet
563 1548 m 257,0,-1
 491 1348 l 257,1,-1
 1516 1348 l 257,2,-1
 1588 1548 l 257,3,-1
 563 1548 l 257,0,-1
865 1530 m 257,4,-1
 672 1001 l 257,5,-1
 871 1001 l 257,6,-1
 1064 1530 l 257,7,-1
 865 1530 l 257,4,-1
531 1044 m 257,8,-1
 459 845 l 257,9,-1
 1282 845 l 257,10,-1
 1354 1044 l 257,11,-1
 531 1044 l 257,8,-1
849 994 m 257,12,-1
 491 11 l 257,13,-1
 691 11 l 257,14,-1
 1049 994 l 257,15,-1
 849 994 l 257,12,-1
120 204 m 257,16,-1
 48 5 l 257,17,-1
 686 5 l 257,18,-1
 758 204 l 257,19,-1
 120 204 l 257,16,-1
179 366 m 257,20,-1
 60 39 l 257,21,-1
 260 39 l 257,22,-1
 379 366 l 257,23,-1
 179 366 l 257,20,-1
1119 946 m 257,24,-1
 854 217 l 257,25,-1
 1053 217 l 257,26,-1
 1318 946 l 257,27,-1
 1119 946 l 257,24,-1
EndSplineSet
EndChar

StartChar: uni090B
Encoding: 2315 2315 425
GlifName: uni090B_
Width: 1024
VWidth: 0
GlyphClass: 2
Flags: W
AnchorPoint: "abvm_deva" 1182 1600 basechar 0
LayerCount: 2
Fore
SplineSet
563 1548 m 257,0,-1
 490 1346 l 257,1,-1
 1517 1346 l 257,2,-1
 1590 1548 l 257,3,-1
 563 1548 l 257,0,-1
1073 1525 m 257,4,-1
 518 0 l 257,5,-1
 717 0 l 257,6,-1
 1272 1525 l 257,7,-1
 1073 1525 l 257,4,-1
402 1044 m 257,8,-1
 330 845 l 257,9,-1
 634 845 l 257,10,-1
 706 1044 l 257,11,-1
 402 1044 l 257,8,-1
692 496 m 257,12,-1
 238 329 l 257,13,-1
 250 136 l 257,14,-1
 703 303 l 257,15,-1
 692 496 l 257,12,-1
706 1044 m 257,16,-1
 634 846 l 257,17,-1
 878 742 l 257,18,-1
 952 944 l 257,19,-1
 706 1044 l 257,16,-1
1021 897 m 257,20,-1
 949 699 l 257,21,-1
 1264 699 l 257,22,-1
 1336 897 l 257,23,-1
 1021 897 l 257,20,-1
1114 897 m 257,24,-1
 883 262 l 257,25,-1
 1082 262 l 257,26,-1
 1313 897 l 257,27,-1
 1114 897 l 257,24,-1
1032 462 m 257,28,-1
 959 262 l 257,29,-1
 1123 262 l 257,30,-1
 1196 462 l 257,31,-1
 1032 462 l 257,28,-1
EndSplineSet
EndChar

StartChar: uni090C
Encoding: 2316 2316 426
GlifName: uni090C_
Width: 1024
VWidth: 0
GlyphClass: 2
Flags: W
AnchorPoint: "abvm_deva" 1196 1588 basechar 0
LayerCount: 2
Fore
SplineSet
563 1548 m 257,0,-1
 491 1350 l 257,1,-1
 1517 1350 l 257,2,-1
 1589 1548 l 257,3,-1
 563 1548 l 257,0,-1
1112 1524 m 257,4,-1
 808 689 l 257,5,-1
 1008 689 l 257,6,-1
 1312 1524 l 257,7,-1
 1112 1524 l 257,4,-1
1233 791 m 257,8,-1
 329 791 l 257,9,-1
 256 590 l 257,10,-1
 1160 590 l 257,11,-1
 1233 791 l 257,8,-1
325 777 m 257,12,-1
 134 252 l 257,13,-1
 335 252 l 257,14,-1
 526 777 l 257,15,-1
 325 777 l 257,12,-1
681 791 m 257,16,-1
 551 433 l 257,17,-1
 752 433 l 257,18,-1
 882 791 l 257,19,-1
 681 791 l 257,16,-1
1033 791 m 257,20,-1
 771 72 l 257,21,-1
 971 72 l 257,22,-1
 1233 791 l 257,23,-1
 1033 791 l 257,20,-1
915 260 m 257,24,-1
 846 72 l 257,25,-1
 1047 72 l 257,26,-1
 1116 260 l 257,27,-1
 915 260 l 257,24,-1
EndSplineSet
EndChar

StartChar: uni090D
Encoding: 2317 2317 427
GlifName: uni090D_
Width: 1024
VWidth: 0
GlyphClass: 2
Flags: W
AnchorPoint: "abvm_deva" 1240 2104 basechar 0
LayerCount: 2
Fore
SplineSet
563 1548 m 257,0,-1
 491 1348 l 257,1,-1
 1517 1348 l 257,2,-1
 1589 1548 l 257,3,-1
 563 1548 l 257,0,-1
1292 1548 m 257,4,-1
 1013 779 l 257,5,-1
 1212 779 l 257,6,-1
 1491 1548 l 257,7,-1
 1292 1548 l 257,4,-1
940 839 m 257,8,-1
 868 639 l 257,9,-1
 1161 639 l 257,10,-1
 1233 839 l 257,11,-1
 940 839 l 257,8,-1
703 1542 m 257,12,-1
 265 338 l 257,13,-1
 464 338 l 257,14,-1
 902 1542 l 257,15,-1
 703 1542 l 257,12,-1
323 496 m 257,16,-1
 250 297 l 257,17,-1
 857 297 l 257,18,-1
 930 496 l 257,19,-1
 323 496 l 257,16,-1
680 358 m 257,20,-1
 514 -98 l 257,21,-1
 713 -98 l 257,22,-1
 879 358 l 257,23,-1
 680 358 l 257,20,-1
424 101 m 257,24,-1
 351 -98 l 257,25,-1
 711 -98 l 257,26,-1
 784 101 l 257,27,-1
 424 101 l 257,24,-1
930 2124 m 257,28,-1
 754 1639 l 257,29,-1
 953 1639 l 257,30,-1
 1129 2124 l 257,31,-1
 930 2124 l 257,28,-1
873 1840 m 257,32,-1
 800 1641 l 257,33,-1
 1394 1641 l 257,34,-1
 1467 1840 l 257,35,-1
 873 1840 l 257,32,-1
1398 2132 m 257,36,-1
 1219 1641 l 257,37,-1
 1418 1641 l 257,38,-1
 1597 2132 l 257,39,-1
 1398 2132 l 257,36,-1
EndSplineSet
EndChar

StartChar: uni090E
Encoding: 2318 2318 428
GlifName: uni090E_
Width: 1024
VWidth: 0
GlyphClass: 2
Flags: W
AnchorPoint: "abvm_deva" 1641 1606 basechar 0
LayerCount: 2
Fore
SplineSet
563 1548 m 257,0,-1
 491 1348 l 257,1,-1
 1517 1348 l 257,2,-1
 1589 1548 l 257,3,-1
 563 1548 l 257,0,-1
1240 1403 m 257,4,-1
 1013 779 l 257,5,-1
 1212 779 l 257,6,-1
 1439 1403 l 257,7,-1
 1240 1403 l 257,4,-1
991 979 m 257,8,-1
 919 779 l 257,9,-1
 1212 779 l 257,10,-1
 1284 979 l 257,11,-1
 991 979 l 257,8,-1
703 1542 m 257,12,-1
 265 338 l 257,13,-1
 464 338 l 257,14,-1
 902 1542 l 257,15,-1
 703 1542 l 257,12,-1
272 358 m 257,16,-1
 200 159 l 257,17,-1
 800 159 l 257,18,-1
 872 358 l 257,19,-1
 272 358 l 257,16,-1
671 358 m 257,20,-1
 505 -98 l 257,21,-1
 706 -98 l 257,22,-1
 872 358 l 257,23,-1
 671 358 l 257,20,-1
368 -38 m 257,24,-1
 295 -238 l 257,25,-1
 655 -238 l 257,26,-1
 728 -38 l 257,27,-1
 368 -38 l 257,24,-1
1021 2062 m 257,28,-1
 934 1823 l 257,29,-1
 1134 1823 l 257,30,-1
 1221 2062 l 257,31,-1
 1021 2062 l 257,28,-1
949 1868 m 257,32,-1
 876 1667 l 257,33,-1
 1559 1667 l 257,34,-1
 1632 1868 l 257,35,-1
 949 1868 l 257,32,-1
1426 1858 m 257,36,-1
 1309 1537 l 257,37,-1
 1511 1537 l 257,38,-1
 1628 1858 l 257,39,-1
 1426 1858 l 257,36,-1
EndSplineSet
EndChar

StartChar: uni090F
Encoding: 2319 2319 429
GlifName: uni090F_
Width: 1024
VWidth: 0
GlyphClass: 2
Flags: W
AnchorPoint: "abvm_deva" 1115 1630 basechar 0
LayerCount: 2
Fore
SplineSet
563 1548 m 257,0,-1
 491 1348 l 257,1,-1
 1517 1348 l 257,2,-1
 1589 1548 l 257,3,-1
 563 1548 l 257,0,-1
1287 1548 m 257,4,-1
 1009 782 l 257,5,-1
 1209 782 l 257,6,-1
 1487 1548 l 257,7,-1
 1287 1548 l 257,4,-1
987 979 m 257,8,-1
 915 779 l 257,9,-1
 1208 779 l 257,10,-1
 1280 979 l 257,11,-1
 987 979 l 257,8,-1
699 1542 m 257,12,-1
 261 338 l 257,13,-1
 461 338 l 257,14,-1
 899 1542 l 257,15,-1
 699 1542 l 257,12,-1
319 497 m 257,16,-1
 246 297 l 257,17,-1
 846 297 l 257,18,-1
 919 497 l 257,19,-1
 319 497 l 257,16,-1
717 473 m 257,20,-1
 509 -98 l 257,21,-1
 709 -98 l 257,22,-1
 917 473 l 257,23,-1
 717 473 l 257,20,-1
420 102 m 257,24,-1
 347 -98 l 257,25,-1
 707 -98 l 257,26,-1
 780 102 l 257,27,-1
 420 102 l 257,24,-1
EndSplineSet
EndChar

StartChar: uni0910
Encoding: 2320 2320 430
GlifName: uni0910
Width: 1024
VWidth: 0
GlyphClass: 2
Flags: W
AnchorPoint: "abvm_deva" 1555 1702 basechar 0
LayerCount: 2
Fore
SplineSet
563 1548 m 257,0,-1
 491 1348 l 257,1,-1
 1517 1348 l 257,2,-1
 1589 1548 l 257,3,-1
 563 1548 l 257,0,-1
1287 1548 m 257,4,-1
 1008 779 l 257,5,-1
 1208 779 l 257,6,-1
 1487 1548 l 257,7,-1
 1287 1548 l 257,4,-1
987 979 m 257,8,-1
 915 779 l 257,9,-1
 1208 779 l 257,10,-1
 1280 979 l 257,11,-1
 987 979 l 257,8,-1
699 1542 m 257,12,-1
 261 338 l 257,13,-1
 461 338 l 257,14,-1
 899 1542 l 257,15,-1
 699 1542 l 257,12,-1
319 497 m 257,16,-1
 246 297 l 257,17,-1
 846 297 l 257,18,-1
 919 497 l 257,19,-1
 319 497 l 257,16,-1
710 473 m 257,20,-1
 502 -98 l 257,21,-1
 702 -98 l 257,22,-1
 910 473 l 257,23,-1
 710 473 l 257,20,-1
420 102 m 257,24,-1
 347 -98 l 257,25,-1
 707 -98 l 257,26,-1
 780 102 l 257,27,-1
 420 102 l 257,24,-1
1127 1883 m 257,28,-1
 1280 1433 l 257,29,-1
 1485 1548 l 257,30,-1
 1333 1998 l 257,31,-1
 1127 1883 l 257,28,-1
EndSplineSet
EndChar

StartChar: uni0911
Encoding: 2321 2321 431
GlifName: uni0911
Width: 1024
VWidth: 0
GlyphClass: 2
Flags: W
AnchorPoint: "abvm_deva" 1564 2170 basechar 0
LayerCount: 2
Fore
SplineSet
1091 1548 m 257,0,-1
 1019 1348 l 257,1,-1
 1516 1348 l 257,2,-1
 1588 1548 l 257,3,-1
 1091 1548 l 257,0,-1
1060 1419 m 257,4,-1
 544 0 l 257,5,-1
 743 0 l 257,6,-1
 1259 1419 l 257,7,-1
 1060 1419 l 257,4,-1
588 1548 m 257,8,-1
 516 1348 l 257,9,-1
 876 1348 l 257,10,-1
 948 1548 l 257,11,-1
 588 1548 l 257,8,-1
774 1548 m 257,12,-1
 262 140 l 257,13,-1
 462 140 l 257,14,-1
 974 1548 l 257,15,-1
 774 1548 l 257,12,-1
434 894 m 257,16,-1
 361 693 l 257,17,-1
 895 693 l 257,18,-1
 968 894 l 257,19,-1
 434 894 l 257,16,-1
73 201 m 257,20,-1
 0 0 l 257,21,-1
 411 0 l 257,22,-1
 484 201 l 257,23,-1
 73 201 l 257,20,-1
1328 1420 m 257,24,-1
 811 0 l 257,25,-1
 1010 0 l 257,26,-1
 1527 1420 l 257,27,-1
 1328 1420 l 257,24,-1
1291 2085 m 257,28,-1
 1129 1639 l 257,29,-1
 1329 1639 l 257,30,-1
 1491 2085 l 257,31,-1
 1291 2085 l 257,28,-1
1201 1839 m 257,32,-1
 1128 1638 l 257,33,-1
 1619 1638 l 257,34,-1
 1692 1839 l 257,35,-1
 1201 1839 l 257,32,-1
1581 2083 m 257,36,-1
 1420 1641 l 257,37,-1
 1620 1641 l 257,38,-1
 1781 2083 l 257,39,-1
 1581 2083 l 257,36,-1
EndSplineSet
EndChar

StartChar: uni0912
Encoding: 2322 2322 432
GlifName: uni0912
Width: 1024
VWidth: 0
GlyphClass: 2
Flags: W
AnchorPoint: "abvm_deva" 1654 1628 basechar 0
LayerCount: 2
Fore
SplineSet
1091 1548 m 257,0,-1
 1019 1348 l 257,1,-1
 1516 1348 l 257,2,-1
 1588 1548 l 257,3,-1
 1091 1548 l 257,0,-1
1065 1419 m 257,4,-1
 549 0 l 257,5,-1
 748 0 l 257,6,-1
 1264 1419 l 257,7,-1
 1065 1419 l 257,4,-1
588 1548 m 257,8,-1
 516 1348 l 257,9,-1
 876 1348 l 257,10,-1
 948 1548 l 257,11,-1
 588 1548 l 257,8,-1
774 1548 m 257,12,-1
 262 140 l 257,13,-1
 462 140 l 257,14,-1
 974 1548 l 257,15,-1
 774 1548 l 257,12,-1
434 894 m 257,16,-1
 361 693 l 257,17,-1
 895 693 l 257,18,-1
 968 894 l 257,19,-1
 434 894 l 257,16,-1
73 201 m 257,20,-1
 0 0 l 257,21,-1
 411 0 l 257,22,-1
 484 201 l 257,23,-1
 73 201 l 257,20,-1
1328 1420 m 257,24,-1
 811 0 l 257,25,-1
 1010 0 l 257,26,-1
 1527 1420 l 257,27,-1
 1328 1420 l 257,24,-1
1050 2155 m 257,28,-1
 934 1836 l 257,29,-1
 1132 1836 l 257,30,-1
 1248 2155 l 257,31,-1
 1050 2155 l 257,28,-1
981 1967 m 257,32,-1
 908 1768 l 257,33,-1
 1592 1768 l 257,34,-1
 1664 1967 l 257,35,-1
 981 1967 l 257,32,-1
1461 1956 m 257,36,-1
 1301 1516 l 257,37,-1
 1502 1516 l 257,38,-1
 1662 1956 l 257,39,-1
 1461 1956 l 257,36,-1
EndSplineSet
EndChar

StartChar: uni0913
Encoding: 2323 2323 433
GlifName: uni0913
Width: 1024
VWidth: 0
GlyphClass: 2
Flags: W
AnchorPoint: "abvm_deva" 1608 1582 basechar 0
LayerCount: 2
Fore
SplineSet
1091 1548 m 257,0,-1
 1019 1348 l 257,1,-1
 1516 1348 l 257,2,-1
 1588 1548 l 257,3,-1
 1091 1548 l 257,0,-1
1060 1419 m 257,4,-1
 544 0 l 257,5,-1
 743 0 l 257,6,-1
 1259 1419 l 257,7,-1
 1060 1419 l 257,4,-1
588 1548 m 257,8,-1
 516 1348 l 257,9,-1
 876 1348 l 257,10,-1
 948 1548 l 257,11,-1
 588 1548 l 257,8,-1
774 1548 m 257,12,-1
 262 140 l 257,13,-1
 462 140 l 257,14,-1
 974 1548 l 257,15,-1
 774 1548 l 257,12,-1
434 894 m 257,16,-1
 361 693 l 257,17,-1
 895 693 l 257,18,-1
 968 894 l 257,19,-1
 434 894 l 257,16,-1
78 201 m 257,20,-1
 5 0 l 257,21,-1
 411 0 l 257,22,-1
 484 201 l 257,23,-1
 78 201 l 257,20,-1
1329 1423 m 257,24,-1
 811 0 l 257,25,-1
 1010 0 l 257,26,-1
 1528 1423 l 257,27,-1
 1329 1423 l 257,24,-1
1282 1768 m 257,28,-1
 1331 1458 l 257,29,-1
 1541 1548 l 257,30,-1
 1493 1861 l 257,31,-1
 1282 1768 l 257,28,-1
EndSplineSet
EndChar

StartChar: uni0914
Encoding: 2324 2324 434
GlifName: uni0914
Width: 1024
VWidth: 0
GlyphClass: 2
Flags: W
AnchorPoint: "abvm_deva" 1619 1564 basechar 0
LayerCount: 2
Fore
SplineSet
1091 1548 m 257,0,-1
 1019 1348 l 257,1,-1
 1516 1348 l 257,2,-1
 1588 1548 l 257,3,-1
 1091 1548 l 257,0,-1
1060 1419 m 257,4,-1
 544 0 l 257,5,-1
 743 0 l 257,6,-1
 1259 1419 l 257,7,-1
 1060 1419 l 257,4,-1
588 1548 m 257,8,-1
 516 1348 l 257,9,-1
 876 1348 l 257,10,-1
 948 1548 l 257,11,-1
 588 1548 l 257,8,-1
774 1548 m 257,12,-1
 262 140 l 257,13,-1
 462 140 l 257,14,-1
 974 1548 l 257,15,-1
 774 1548 l 257,12,-1
434 894 m 257,16,-1
 361 693 l 257,17,-1
 895 693 l 257,18,-1
 968 894 l 257,19,-1
 434 894 l 257,16,-1
85 201 m 257,20,-1
 12 0 l 257,21,-1
 411 0 l 257,22,-1
 484 201 l 257,23,-1
 85 201 l 257,20,-1
1328 1420 m 257,24,-1
 811 0 l 257,25,-1
 1010 0 l 257,26,-1
 1527 1420 l 257,27,-1
 1328 1420 l 257,24,-1
976 1750 m 257,28,-1
 1182 1548 l 257,29,-1
 1474 1548 l 257,30,-1
 1168 1903 l 257,31,-1
 976 1750 l 257,28,-1
1437 1949 m 257,32,-1
 1345 1522 l 257,33,-1
 1566 1548 l 257,34,-1
 1649 1988 l 257,35,-1
 1437 1949 l 257,32,-1
EndSplineSet
EndChar

StartChar: uni0915
Encoding: 2325 2325 435
GlifName: uni0915
Width: 1024
VWidth: 0
GlyphClass: 2
Flags: W
AnchorPoint: "abvm_deva" 1204 1617 basechar 0
AnchorPoint: "blwm_deva" 607 -25 basechar 0
LayerCount: 2
Fore
SplineSet
563 1548 m 257,0,-1
 491 1348 l 257,1,-1
 1516 1348 l 257,2,-1
 1588 1548 l 257,3,-1
 563 1548 l 257,0,-1
1074 1516 m 257,4,-1
 526 10 l 257,5,-1
 726 10 l 257,6,-1
 1274 1516 l 257,7,-1
 1074 1516 l 257,4,-1
507 1029 m 257,8,-1
 433 828 l 257,9,-1
 796 828 l 257,10,-1
 870 1029 l 257,11,-1
 507 1029 l 257,8,-1
492 989 m 257,12,-1
 293 443 l 257,13,-1
 491 443 l 257,14,-1
 690 989 l 257,15,-1
 492 989 l 257,12,-1
385 647 m 257,16,-1
 311 443 l 257,17,-1
 737 443 l 257,18,-1
 811 647 l 257,19,-1
 385 647 l 257,16,-1
946 874 m 257,20,-1
 874 675 l 257,21,-1
 1180 675 l 257,22,-1
 1252 874 l 257,23,-1
 946 874 l 257,20,-1
1103 874 m 257,24,-1
 997 582 l 257,25,-1
 1196 582 l 257,26,-1
 1302 874 l 257,27,-1
 1103 874 l 257,24,-1
EndSplineSet
EndChar

StartChar: uni0915_uni0930_uni094D.vatu
Encoding: 65536 -1 436
GlifName: uni0915_uni0930_uni094D_.vatu
Width: 1024
VWidth: 0
GlyphClass: 3
Flags: W
LayerCount: 2
Fore
SplineSet
563 1548 m 257,0,-1
 490 1347 l 257,1,-1
 1506 1347 l 257,2,-1
 1579 1548 l 257,3,-1
 563 1548 l 257,0,-1
1074 1516 m 257,4,-1
 526 10 l 257,5,-1
 726 10 l 257,6,-1
 1274 1516 l 257,7,-1
 1074 1516 l 257,4,-1
507 1029 m 257,8,-1
 433 828 l 257,9,-1
 915 828 l 257,10,-1
 989 1029 l 257,11,-1
 507 1029 l 257,8,-1
495 989 m 257,12,-1
 296 443 l 257,13,-1
 494 443 l 257,14,-1
 693 989 l 257,15,-1
 495 989 l 257,12,-1
384 643 m 257,16,-1
 310 439 l 257,17,-1
 736 439 l 257,18,-1
 810 643 l 257,19,-1
 384 643 l 257,16,-1
946 874 m 257,20,-1
 874 675 l 257,21,-1
 1180 675 l 257,22,-1
 1252 874 l 257,23,-1
 946 874 l 257,20,-1
1105 879 m 257,24,-1
 999 587 l 257,25,-1
 1198 587 l 257,26,-1
 1304 879 l 257,27,-1
 1105 879 l 257,24,-1
75 0 m 257,28,-1
 332 0 l 257,29,-1
 750 215 l 257,30,-1
 823 416 l 257,31,-1
 75 0 l 257,28,-1
EndSplineSet
Ligature2: "rkrfRakarVariantsinDevanagari2lookup0 subtable" uni0915 uni094D uni0930
EndChar

StartChar: uni0915_uni094D.half
Encoding: 65537 -1 437
GlifName: uni0915_uni094D_.half
Width: 1024
VWidth: 0
GlyphClass: 2
Flags: W
LayerCount: 2
Fore
SplineSet
563 1548 m 257,0,-1
 490 1347 l 257,1,-1
 1506 1347 l 257,2,-1
 1579 1548 l 257,3,-1
 563 1548 l 257,0,-1
1074 1516 m 257,4,-1
 526 10 l 257,5,-1
 726 10 l 257,6,-1
 1274 1516 l 257,7,-1
 1074 1516 l 257,4,-1
507 1029 m 257,8,-1
 433 828 l 257,9,-1
 915 828 l 257,10,-1
 989 1029 l 257,11,-1
 507 1029 l 257,8,-1
495 989 m 257,12,-1
 296 443 l 257,13,-1
 494 443 l 257,14,-1
 693 989 l 257,15,-1
 495 989 l 257,12,-1
384 643 m 257,16,-1
 310 439 l 257,17,-1
 736 439 l 257,18,-1
 810 643 l 257,19,-1
 384 643 l 257,16,-1
946 874 m 257,20,-1
 874 675 l 257,21,-1
 1259 675 l 257,22,-1
 1331 874 l 257,23,-1
 946 874 l 257,20,-1
EndSplineSet
Ligature2: "halfHalfFormsinDevanagari2lookup0 subtable" uni0915 uni094D
EndChar

StartChar: uni0915_uni094D.haln
Encoding: 65538 -1 438
GlifName: uni0915_uni094D_.haln
Width: 1024
VWidth: 0
GlyphClass: 3
Flags: W
LayerCount: 2
Fore
SplineSet
564 1548 m 257,0,-1
 489 1348 l 257,1,-1
 1516 1348 l 257,2,-1
 1591 1548 l 257,3,-1
 564 1548 l 257,0,-1
1076 1516 m 257,4,-1
 511 10 l 257,5,-1
 711 10 l 257,6,-1
 1276 1516 l 257,7,-1
 1076 1516 l 257,4,-1
504 1029 m 257,8,-1
 428 828 l 257,9,-1
 791 828 l 257,10,-1
 867 1029 l 257,11,-1
 504 1029 l 257,8,-1
489 989 m 257,12,-1
 284 443 l 257,13,-1
 482 443 l 257,14,-1
 687 989 l 257,15,-1
 489 989 l 257,12,-1
378 647 m 257,16,-1
 302 443 l 257,17,-1
 728 443 l 257,18,-1
 804 647 l 257,19,-1
 378 647 l 257,16,-1
941 874 m 257,20,-1
 867 675 l 257,21,-1
 1173 675 l 257,22,-1
 1247 874 l 257,23,-1
 941 874 l 257,20,-1
1098 874 m 257,24,-1
 989 582 l 257,25,-1
 1188 582 l 257,26,-1
 1297 874 l 257,27,-1
 1098 874 l 257,24,-1
709 -22 m 257,28,-1
 635 -218 l 257,29,-1
 992 -218 l 257,30,-1
 1066 -22 l 257,31,-1
 709 -22 l 257,28,-1
864 -183 m 257,32,-1
 1049 -588 l 257,33,-1
 1254 -425 l 257,34,-1
 1068 -21 l 257,35,-1
 864 -183 l 257,32,-1
EndSplineSet
Ligature2: "halnHalantFormsinDevanagari2lookup0 subtable" uni0915 uni094D
EndChar

StartChar: uni0915_uni094D_uni0937.akhn
Encoding: 65539 -1 439
GlifName: uni0915_uni094D__uni0937.akhn
Width: 1024
VWidth: 0
GlyphClass: 3
Flags: W
LayerCount: 2
Fore
SplineSet
1228 1548 m 257,0,-1
 1157 1351 l 257,1,-1
 1516 1351 l 257,2,-1
 1587 1548 l 257,3,-1
 1228 1548 l 257,0,-1
1272 1511 m 257,4,-1
 722 0 l 257,5,-1
 921 0 l 257,6,-1
 1471 1511 l 257,7,-1
 1272 1511 l 257,4,-1
440 1078 m 257,8,-1
 368 878 l 257,9,-1
 1241 878 l 257,10,-1
 1313 1078 l 257,11,-1
 440 1078 l 257,8,-1
419 1023 m 257,12,-1
 620 1023 l 257,13,-1
 766 1422 l 257,14,-1
 565 1422 l 257,15,-1
 419 1023 l 257,12,-1
570 1435 m 257,16,-1
 498 1235 l 257,17,-1
 1016 1235 l 257,18,-1
 1089 1435 l 257,19,-1
 570 1435 l 257,16,-1
886 1422 m 257,20,-1
 689 882 l 257,21,-1
 887 882 l 257,22,-1
 1084 1422 l 257,23,-1
 886 1422 l 257,20,-1
389 635 m 257,24,-1
 586 635 l 257,25,-1
 885 880 l 257,26,-1
 687 880 l 257,27,-1
 389 635 l 257,24,-1
389 635 m 257,28,-1
 231 200 l 257,29,-1
 430 200 l 257,30,-1
 588 635 l 257,31,-1
 389 635 l 257,28,-1
292 367 m 257,32,-1
 218 166 l 257,33,-1
 942 166 l 257,34,-1
 1016 367 l 257,35,-1
 292 367 l 257,32,-1
EndSplineSet
Ligature2: "akhnAkhandinDevanagari2lookup0 subtable" uni0915 uni094D uni0937
EndChar

StartChar: uni0915_uni094D_uni0937.half
Encoding: 65540 -1 440
GlifName: uni0915_uni094D__uni0937.half
Width: 1024
VWidth: 0
GlyphClass: 3
Flags: W
LayerCount: 2
Fore
SplineSet
1218 1548 m 257,0,-1
 1147 1351 l 257,1,-1
 1506 1351 l 257,2,-1
 1577 1548 l 257,3,-1
 1218 1548 l 257,0,-1
430 1078 m 257,4,-1
 358 878 l 257,5,-1
 1431 878 l 257,6,-1
 1503 1078 l 257,7,-1
 430 1078 l 257,4,-1
409 1023 m 257,8,-1
 610 1023 l 257,9,-1
 756 1422 l 257,10,-1
 555 1422 l 257,11,-1
 409 1023 l 257,8,-1
560 1435 m 257,12,-1
 488 1235 l 257,13,-1
 1006 1235 l 257,14,-1
 1079 1435 l 257,15,-1
 560 1435 l 257,12,-1
876 1422 m 257,16,-1
 679 882 l 257,17,-1
 877 882 l 257,18,-1
 1074 1422 l 257,19,-1
 876 1422 l 257,16,-1
379 635 m 257,20,-1
 576 635 l 257,21,-1
 875 880 l 257,22,-1
 677 880 l 257,23,-1
 379 635 l 257,20,-1
379 635 m 257,24,-1
 221 200 l 257,25,-1
 420 200 l 257,26,-1
 578 635 l 257,27,-1
 379 635 l 257,24,-1
282 367 m 257,28,-1
 208 166 l 257,29,-1
 1132 166 l 257,30,-1
 1206 367 l 257,31,-1
 282 367 l 257,28,-1
EndSplineSet
Ligature2: "halfHalfFormsinDevanagari2lookup0 subtable" uni0915_uni094D_uni0937.akhn uni094D
EndChar

StartChar: uni0915_uni094D_uni0937_uni094D
Encoding: 65541 -1 441
GlifName: uni0915_uni094D__uni0937_uni094D_
Width: 1024
VWidth: 0
GlyphClass: 2
Flags: W
LayerCount: 2
Fore
SplineSet
1220 1548 m 257,0,-1
 1146 1351 l 257,1,-1
 1505 1351 l 257,2,-1
 1579 1548 l 257,3,-1
 1220 1548 l 257,0,-1
1263 1511 m 257,4,-1
 696 0 l 257,5,-1
 895 0 l 257,6,-1
 1462 1511 l 257,7,-1
 1263 1511 l 257,4,-1
427 1078 m 257,8,-1
 352 878 l 257,9,-1
 1225 878 l 257,10,-1
 1300 1078 l 257,11,-1
 427 1078 l 257,8,-1
405 1023 m 257,12,-1
 606 1023 l 257,13,-1
 756 1422 l 257,14,-1
 555 1422 l 257,15,-1
 405 1023 l 257,12,-1
561 1435 m 257,16,-1
 486 1235 l 257,17,-1
 1005 1235 l 257,18,-1
 1080 1435 l 257,19,-1
 561 1435 l 257,16,-1
876 1422 m 257,20,-1
 673 882 l 257,21,-1
 871 882 l 257,22,-1
 1074 1422 l 257,23,-1
 876 1422 l 257,20,-1
370 635 m 257,24,-1
 567 635 l 257,25,-1
 869 880 l 257,26,-1
 671 880 l 257,27,-1
 370 635 l 257,24,-1
370 635 m 257,28,-1
 207 200 l 257,29,-1
 406 200 l 257,30,-1
 569 635 l 257,31,-1
 370 635 l 257,28,-1
270 367 m 257,32,-1
 194 166 l 257,33,-1
 918 166 l 257,34,-1
 994 367 l 257,35,-1
 270 367 l 257,32,-1
573 -22 m 257,36,-1
 500 -218 l 257,37,-1
 857 -218 l 257,38,-1
 930 -22 l 257,39,-1
 573 -22 l 257,36,-1
729 -183 m 257,40,-1
 914 -588 l 257,41,-1
 1119 -425 l 257,42,-1
 933 -21 l 257,43,-1
 729 -183 l 257,40,-1
EndSplineSet
Ligature2: "halnHalantFormsinDevanagari2lookup0 subtable" uni0915_uni094D_uni0937.akhn uni094D
EndChar

StartChar: uni0916
Encoding: 2326 2326 442
GlifName: uni0916
Width: 1024
VWidth: 0
GlyphClass: 2
Flags: W
AnchorPoint: "abvm_deva" 1336 1593 basechar 0
AnchorPoint: "blwm_deva" 789 -39 basechar 0
LayerCount: 2
Fore
SplineSet
556 1548 m 257,0,-1
 484 1349 l 257,1,-1
 1514 1349 l 257,2,-1
 1586 1548 l 257,3,-1
 556 1548 l 257,0,-1
1241 1514 m 257,4,-1
 690 0 l 257,5,-1
 890 0 l 257,6,-1
 1441 1514 l 257,7,-1
 1241 1514 l 257,4,-1
785 979 m 257,8,-1
 713 779 l 257,9,-1
 941 779 l 257,10,-1
 1013 979 l 257,11,-1
 785 979 l 257,8,-1
755 979 m 257,12,-1
 565 457 l 257,13,-1
 765 457 l 257,14,-1
 955 979 l 257,15,-1
 755 979 l 257,12,-1
606 568 m 257,16,-1
 533 368 l 257,17,-1
 876 368 l 257,18,-1
 949 568 l 257,19,-1
 606 568 l 257,16,-1
638 1441 m 257,20,-1
 158 120 l 257,21,-1
 358 120 l 257,22,-1
 838 1441 l 257,23,-1
 638 1441 l 257,20,-1
276 734 m 257,24,-1
 203 534 l 257,25,-1
 507 534 l 257,26,-1
 580 734 l 257,27,-1
 276 734 l 257,24,-1
211 270 m 257,28,-1
 138 70 l 257,29,-1
 852 70 l 257,30,-1
 925 270 l 257,31,-1
 211 270 l 257,28,-1
EndSplineSet
EndChar

StartChar: uni0916_uni0930_uni094D.vatu
Encoding: 65542 -1 443
GlifName: uni0916_uni0930_uni094D_.vatu
Width: 1024
VWidth: 0
GlyphClass: 3
Flags: W
LayerCount: 2
Fore
SplineSet
75 0 m 257,0,-1
 332 0 l 257,1,-1
 750 215 l 257,2,-1
 823 416 l 257,3,-1
 75 0 l 257,0,-1
556 1548 m 257,4,-1
 484 1349 l 257,5,-1
 1514 1349 l 257,6,-1
 1586 1548 l 257,7,-1
 556 1548 l 257,4,-1
1241 1514 m 257,8,-1
 690 0 l 257,9,-1
 890 0 l 257,10,-1
 1441 1514 l 257,11,-1
 1241 1514 l 257,8,-1
846 1145 m 257,12,-1
 773 945 l 257,13,-1
 1001 945 l 257,14,-1
 1074 1145 l 257,15,-1
 846 1145 l 257,12,-1
816 1145 m 257,16,-1
 626 623 l 257,17,-1
 826 623 l 257,18,-1
 1016 1145 l 257,19,-1
 816 1145 l 257,16,-1
666 734 m 257,20,-1
 593 534 l 257,21,-1
 936 534 l 257,22,-1
 1009 734 l 257,23,-1
 666 734 l 257,20,-1
638 1441 m 257,24,-1
 218 286 l 257,25,-1
 418 286 l 257,26,-1
 838 1441 l 257,27,-1
 638 1441 l 257,24,-1
337 900 m 257,28,-1
 264 700 l 257,29,-1
 568 700 l 257,30,-1
 641 900 l 257,31,-1
 337 900 l 257,28,-1
272 436 m 257,32,-1
 199 236 l 257,33,-1
 913 236 l 257,34,-1
 986 436 l 257,35,-1
 272 436 l 257,32,-1
EndSplineSet
Ligature2: "rkrfRakarVariantsinDevanagari2lookup0 subtable" uni0916 uni094D uni0930
EndChar

StartChar: uni0916_uni094D.half
Encoding: 65543 -1 444
GlifName: uni0916_uni094D_.half
Width: 1024
VWidth: 0
GlyphClass: 2
Flags: W
LayerCount: 2
Fore
SplineSet
556 1548 m 257,0,-1
 484 1349 l 257,1,-1
 1514 1349 l 257,2,-1
 1586 1548 l 257,3,-1
 556 1548 l 257,0,-1
979 979 m 257,4,-1
 907 779 l 257,5,-1
 1135 779 l 257,6,-1
 1207 979 l 257,7,-1
 979 979 l 257,4,-1
949 979 m 257,8,-1
 759 457 l 257,9,-1
 959 457 l 257,10,-1
 1149 979 l 257,11,-1
 949 979 l 257,8,-1
800 568 m 257,12,-1
 727 368 l 257,13,-1
 1149 368 l 257,14,-1
 1222 568 l 257,15,-1
 800 568 l 257,12,-1
832 1441 m 257,16,-1
 352 120 l 257,17,-1
 552 120 l 257,18,-1
 1032 1441 l 257,19,-1
 832 1441 l 257,16,-1
470 734 m 257,20,-1
 397 534 l 257,21,-1
 701 534 l 257,22,-1
 774 734 l 257,23,-1
 470 734 l 257,20,-1
405 270 m 257,24,-1
 332 70 l 257,25,-1
 1046 70 l 257,26,-1
 1119 270 l 257,27,-1
 405 270 l 257,24,-1
EndSplineSet
Ligature2: "halfHalfFormsinDevanagari2lookup0 subtable" uni0916 uni094D
EndChar

StartChar: uni0916_uni094D.haln
Encoding: 65544 -1 445
GlifName: uni0916_uni094D_.haln
Width: 1024
VWidth: 0
GlyphClass: 3
Flags: W
LayerCount: 2
Fore
SplineSet
566 1548 m 257,0,-1
 491 1349 l 257,1,-1
 1521 1349 l 257,2,-1
 1596 1548 l 257,3,-1
 566 1548 l 257,0,-1
1250 1514 m 257,4,-1
 682 0 l 257,5,-1
 882 0 l 257,6,-1
 1450 1514 l 257,7,-1
 1250 1514 l 257,4,-1
788 979 m 257,8,-1
 713 779 l 257,9,-1
 941 779 l 257,10,-1
 1016 979 l 257,11,-1
 788 979 l 257,8,-1
758 979 m 257,12,-1
 562 457 l 257,13,-1
 762 457 l 257,14,-1
 958 979 l 257,15,-1
 758 979 l 257,12,-1
604 568 m 257,16,-1
 529 368 l 257,17,-1
 872 368 l 257,18,-1
 947 568 l 257,19,-1
 604 568 l 257,16,-1
647 1441 m 257,20,-1
 151 120 l 257,21,-1
 351 120 l 257,22,-1
 847 1441 l 257,23,-1
 647 1441 l 257,20,-1
276 734 m 257,24,-1
 201 534 l 257,25,-1
 505 534 l 257,26,-1
 580 734 l 257,27,-1
 276 734 l 257,24,-1
206 270 m 257,28,-1
 131 70 l 257,29,-1
 845 70 l 257,30,-1
 920 270 l 257,31,-1
 206 270 l 257,28,-1
483 -22 m 257,32,-1
 410 -218 l 257,33,-1
 767 -218 l 257,34,-1
 840 -22 l 257,35,-1
 483 -22 l 257,32,-1
639 -183 m 257,36,-1
 824 -588 l 257,37,-1
 1029 -425 l 257,38,-1
 843 -21 l 257,39,-1
 639 -183 l 257,36,-1
EndSplineSet
Ligature2: "halnHalantFormsinDevanagari2lookup0 subtable" uni0916 uni094D
EndChar

StartChar: uni0917
Encoding: 2327 2327 446
GlifName: uni0917
Width: 1024
VWidth: 0
GlyphClass: 2
Flags: W
AnchorPoint: "abvm_deva" 1430 1607 basechar 0
AnchorPoint: "blwm_deva" 835 -50 basechar 0
LayerCount: 2
Fore
SplineSet
412 853 m 257,0,-1
 611 853 l 257,1,-1
 681 1044 l 257,2,-1
 482 1044 l 257,3,-1
 412 853 l 257,0,-1
423 882 m 257,4,-1
 351 683 l 257,5,-1
 827 683 l 257,6,-1
 899 882 l 257,7,-1
 423 882 l 257,4,-1
942 1548 m 257,8,-1
 675 812 l 257,9,-1
 874 812 l 257,10,-1
 1141 1548 l 257,11,-1
 942 1548 l 257,8,-1
1588 1548 m 257,12,-1
 824 1548 l 257,13,-1
 752 1348 l 257,14,-1
 1516 1348 l 257,15,-1
 1588 1548 l 257,12,-1
1286 1523 m 257,16,-1
 732 0 l 257,17,-1
 931 0 l 257,18,-1
 1485 1523 l 257,19,-1
 1286 1523 l 257,16,-1
EndSplineSet
EndChar

StartChar: uni0917_uni0930_uni094D.vatu
Encoding: 65545 -1 447
GlifName: uni0917_uni0930_uni094D_.vatu
Width: 1024
VWidth: 0
GlyphClass: 3
Flags: W
LayerCount: 2
Fore
SplineSet
153 0 m 257,0,-1
 410 0 l 257,1,-1
 828 215 l 257,2,-1
 901 416 l 257,3,-1
 153 0 l 257,0,-1
412 853 m 257,4,-1
 611 853 l 257,5,-1
 681 1044 l 257,6,-1
 482 1044 l 257,7,-1
 412 853 l 257,4,-1
423 882 m 257,8,-1
 351 683 l 257,9,-1
 827 683 l 257,10,-1
 899 882 l 257,11,-1
 423 882 l 257,8,-1
942 1548 m 257,12,-1
 675 812 l 257,13,-1
 874 812 l 257,14,-1
 1141 1548 l 257,15,-1
 942 1548 l 257,12,-1
1575 1548 m 257,16,-1
 824 1548 l 257,17,-1
 752 1348 l 257,18,-1
 1503 1348 l 257,19,-1
 1575 1548 l 257,16,-1
1286 1523 m 257,20,-1
 732 0 l 257,21,-1
 931 0 l 257,22,-1
 1485 1523 l 257,23,-1
 1286 1523 l 257,20,-1
EndSplineSet
Ligature2: "rkrfRakarVariantsinDevanagari2lookup0 subtable" uni0917 uni094D uni0930
EndChar

StartChar: uni0917_uni094D.half
Encoding: 65546 -1 448
GlifName: uni0917_uni094D_.half
Width: 1024
VWidth: 0
GlyphClass: 3
Flags: W
LayerCount: 2
Fore
SplineSet
412 853 m 257,0,-1
 611 853 l 257,1,-1
 681 1044 l 257,2,-1
 482 1044 l 257,3,-1
 412 853 l 257,0,-1
423 882 m 257,4,-1
 351 683 l 257,5,-1
 827 683 l 257,6,-1
 899 882 l 257,7,-1
 423 882 l 257,4,-1
942 1548 m 257,8,-1
 675 812 l 257,9,-1
 874 812 l 257,10,-1
 1141 1548 l 257,11,-1
 942 1548 l 257,8,-1
1575 1548 m 257,12,-1
 824 1548 l 257,13,-1
 752 1348 l 257,14,-1
 1503 1348 l 257,15,-1
 1575 1548 l 257,12,-1
EndSplineSet
Ligature2: "halfHalfFormsinDevanagari2lookup0 subtable" uni0917 uni094D
EndChar

StartChar: uni0917_uni094D.haln
Encoding: 65547 -1 449
GlifName: uni0917_uni094D_.haln
Width: 1024
VWidth: 0
GlyphClass: 3
Flags: W
LayerCount: 2
Fore
SplineSet
399 853 m 257,0,-1
 598 853 l 257,1,-1
 670 1044 l 257,2,-1
 471 1044 l 257,3,-1
 399 853 l 257,0,-1
410 882 m 257,4,-1
 335 683 l 257,5,-1
 811 683 l 257,6,-1
 886 882 l 257,7,-1
 410 882 l 257,4,-1
937 1548 m 257,8,-1
 661 812 l 257,9,-1
 860 812 l 257,10,-1
 1136 1548 l 257,11,-1
 937 1548 l 257,8,-1
1583 1548 m 257,12,-1
 819 1548 l 257,13,-1
 744 1348 l 257,14,-1
 1508 1348 l 257,15,-1
 1583 1548 l 257,12,-1
1281 1523 m 257,16,-1
 709 0 l 257,17,-1
 908 0 l 257,18,-1
 1480 1523 l 257,19,-1
 1281 1523 l 257,16,-1
786 -22 m 257,20,-1
 712 -218 l 257,21,-1
 1069 -218 l 257,22,-1
 1143 -22 l 257,23,-1
 786 -22 l 257,20,-1
941 -183 m 257,24,-1
 1126 -588 l 257,25,-1
 1332 -425 l 257,26,-1
 1145 -21 l 257,27,-1
 941 -183 l 257,24,-1
EndSplineSet
Ligature2: "halnHalantFormsinDevanagari2lookup0 subtable" uni0917 uni094D
EndChar

StartChar: uni0918
Encoding: 2328 2328 450
GlifName: uni0918
Width: 1024
VWidth: 0
GlyphClass: 2
Flags: W
AnchorPoint: "abvm_deva" 1321 1618 basechar 0
AnchorPoint: "blwm_deva" 807 -77 basechar 0
LayerCount: 2
Fore
SplineSet
563 1548 m 257,0,-1
 491 1348 l 257,1,-1
 1517 1348 l 257,2,-1
 1589 1548 l 257,3,-1
 563 1548 l 257,0,-1
1255 1522 m 257,4,-1
 706 13 l 257,5,-1
 906 13 l 257,6,-1
 1455 1522 l 257,7,-1
 1255 1522 l 257,4,-1
724 1515 m 257,8,-1
 494 883 l 257,9,-1
 693 883 l 257,10,-1
 923 1515 l 257,11,-1
 724 1515 l 257,8,-1
601 917 m 257,12,-1
 528 717 l 257,13,-1
 772 717 l 257,14,-1
 845 917 l 257,15,-1
 601 917 l 257,12,-1
350 469 m 257,16,-1
 277 269 l 257,17,-1
 975 269 l 257,18,-1
 1048 469 l 257,19,-1
 350 469 l 257,16,-1
271 269 m 257,20,-1
 470 269 l 257,21,-1
 650 764 l 257,22,-1
 451 764 l 257,23,-1
 271 269 l 257,20,-1
EndSplineSet
EndChar

StartChar: uni0918_uni0930_uni094D.vatu
Encoding: 65548 -1 451
GlifName: uni0918_uni0930_uni094D_.vatu
Width: 1024
VWidth: 0
GlyphClass: 3
Flags: W
LayerCount: 2
Fore
SplineSet
129 0 m 257,0,-1
 386 0 l 257,1,-1
 804 215 l 257,2,-1
 877 416 l 257,3,-1
 129 0 l 257,0,-1
566 1554 m 257,4,-1
 493 1354 l 257,5,-1
 1515 1354 l 257,6,-1
 1588 1554 l 257,7,-1
 566 1554 l 257,4,-1
1255 1522 m 257,8,-1
 706 13 l 257,9,-1
 906 13 l 257,10,-1
 1455 1522 l 257,11,-1
 1255 1522 l 257,8,-1
724 1515 m 257,12,-1
 494 883 l 257,13,-1
 693 883 l 257,14,-1
 923 1515 l 257,15,-1
 724 1515 l 257,12,-1
601 917 m 257,16,-1
 528 717 l 257,17,-1
 772 717 l 257,18,-1
 845 917 l 257,19,-1
 601 917 l 257,16,-1
350 469 m 257,20,-1
 277 269 l 257,21,-1
 975 269 l 257,22,-1
 1048 469 l 257,23,-1
 350 469 l 257,20,-1
271 269 m 257,24,-1
 470 269 l 257,25,-1
 650 764 l 257,26,-1
 451 764 l 257,27,-1
 271 269 l 257,24,-1
EndSplineSet
Ligature2: "rkrfRakarVariantsinDevanagari2lookup0 subtable" uni0918 uni094D uni0930
EndChar

StartChar: uni0918_uni094D.half
Encoding: 65549 -1 452
GlifName: uni0918_uni094D_.half
Width: 1024
VWidth: 0
GlyphClass: 3
Flags: W
LayerCount: 2
Fore
SplineSet
566 1554 m 257,0,-1
 493 1354 l 257,1,-1
 1515 1354 l 257,2,-1
 1588 1554 l 257,3,-1
 566 1554 l 257,0,-1
724 1515 m 257,4,-1
 494 883 l 257,5,-1
 693 883 l 257,6,-1
 923 1515 l 257,7,-1
 724 1515 l 257,4,-1
601 917 m 257,8,-1
 528 717 l 257,9,-1
 772 717 l 257,10,-1
 845 917 l 257,11,-1
 601 917 l 257,8,-1
350 469 m 257,12,-1
 277 269 l 257,13,-1
 1112 269 l 257,14,-1
 1185 469 l 257,15,-1
 350 469 l 257,12,-1
271 269 m 257,16,-1
 470 269 l 257,17,-1
 650 764 l 257,18,-1
 451 764 l 257,19,-1
 271 269 l 257,16,-1
EndSplineSet
Ligature2: "halfHalfFormsinDevanagari2lookup0 subtable" uni0918 uni094D
EndChar

StartChar: uni0918_uni094D.haln
Encoding: 65550 -1 453
GlifName: uni0918_uni094D_.haln
Width: 1024
VWidth: 0
GlyphClass: 3
Flags: W
LayerCount: 2
Fore
SplineSet
566 1548 m 257,0,-1
 491 1348 l 257,1,-1
 1517 1348 l 257,2,-1
 1592 1548 l 257,3,-1
 566 1548 l 257,0,-1
1257 1522 m 257,4,-1
 691 13 l 257,5,-1
 891 13 l 257,6,-1
 1457 1522 l 257,7,-1
 1257 1522 l 257,4,-1
726 1515 m 257,8,-1
 489 883 l 257,9,-1
 688 883 l 257,10,-1
 925 1515 l 257,11,-1
 726 1515 l 257,8,-1
596 917 m 257,12,-1
 521 717 l 257,13,-1
 765 717 l 257,14,-1
 840 917 l 257,15,-1
 596 917 l 257,12,-1
340 469 m 257,16,-1
 265 269 l 257,17,-1
 963 269 l 257,18,-1
 1038 469 l 257,19,-1
 340 469 l 257,16,-1
259 269 m 257,20,-1
 458 269 l 257,21,-1
 644 764 l 257,22,-1
 445 764 l 257,23,-1
 259 269 l 257,20,-1
673 -22 m 257,24,-1
 600 -218 l 257,25,-1
 957 -218 l 257,26,-1
 1030 -22 l 257,27,-1
 673 -22 l 257,24,-1
829 -183 m 257,28,-1
 1014 -588 l 257,29,-1
 1219 -425 l 257,30,-1
 1033 -21 l 257,31,-1
 829 -183 l 257,28,-1
EndSplineSet
Ligature2: "halnHalantFormsinDevanagari2lookup0 subtable" uni0918 uni094D
EndChar

StartChar: uni0919
Encoding: 2329 2329 454
GlifName: uni0919
Width: 1024
VWidth: 0
GlyphClass: 2
Flags: W
AnchorPoint: "abvm_deva" 1206 1582 basechar 0
AnchorPoint: "blwm_deva" 656 -89 basechar 0
LayerCount: 2
Fore
SplineSet
563 1548 m 257,0,-1
 491 1350 l 257,1,-1
 1516 1350 l 257,2,-1
 1588 1548 l 257,3,-1
 563 1548 l 257,0,-1
1071 1543 m 257,4,-1
 881 1023 l 257,5,-1
 1081 1023 l 257,6,-1
 1271 1543 l 257,7,-1
 1071 1543 l 257,4,-1
1146 1226 m 257,8,-1
 672 1226 l 257,9,-1
 598 1023 l 257,10,-1
 1072 1023 l 257,11,-1
 1146 1226 l 257,8,-1
619 1083 m 257,12,-1
 454 629 l 257,13,-1
 659 629 l 257,14,-1
 824 1083 l 257,15,-1
 619 1083 l 257,12,-1
523 820 m 257,16,-1
 451 620 l 257,17,-1
 1012 620 l 257,18,-1
 1084 820 l 257,19,-1
 523 820 l 257,16,-1
834 680 m 257,20,-1
 597 29 l 257,21,-1
 797 29 l 257,22,-1
 1034 680 l 257,23,-1
 834 680 l 257,20,-1
185 201 m 257,24,-1
 112 0 l 257,25,-1
 787 0 l 257,26,-1
 860 201 l 257,27,-1
 185 201 l 257,24,-1
266 423 m 257,28,-1
 115 8 l 257,29,-1
 316 8 l 257,30,-1
 467 423 l 257,31,-1
 266 423 l 257,28,-1
1190 1037 m 257,32,-1
 1137 890 l 257,33,-1
 1294 890 l 257,34,-1
 1347 1037 l 257,35,-1
 1190 1037 l 257,32,-1
EndSplineSet
EndChar

StartChar: uni0919_uni0930_uni094D.vatu
Encoding: 65551 -1 455
GlifName: uni0919_uni0930_uni094D_.vatu
Width: 1024
VWidth: 0
GlyphClass: 3
Flags: W
LayerCount: 2
Fore
SplineSet
381 112 m 257,0,-1
 466 -268 l 257,1,-1
 748 -268 l 257,2,-1
 564 281 l 257,3,-1
 381 112 l 257,0,-1
564 281 m 257,4,-1
 -46 -277 l 257,5,-1
 175 -277 l 257,6,-1
 619 116 l 257,7,-1
 564 281 l 257,4,-1
566 1554 m 257,8,-1
 493 1354 l 257,9,-1
 1515 1354 l 257,10,-1
 1588 1554 l 257,11,-1
 566 1554 l 257,8,-1
1071 1543 m 257,12,-1
 905 1088 l 257,13,-1
 1105 1088 l 257,14,-1
 1271 1543 l 257,15,-1
 1071 1543 l 257,12,-1
1169 1288 m 257,16,-1
 695 1288 l 257,17,-1
 622 1088 l 257,18,-1
 1096 1088 l 257,19,-1
 1169 1288 l 257,16,-1
642 1145 m 257,20,-1
 477 691 l 257,21,-1
 682 691 l 257,22,-1
 847 1145 l 257,23,-1
 642 1145 l 257,20,-1
546 882 m 257,24,-1
 473 682 l 257,25,-1
 1034 682 l 257,26,-1
 1107 882 l 257,27,-1
 546 882 l 257,24,-1
856 742 m 257,28,-1
 706 331 l 257,29,-1
 906 331 l 257,30,-1
 1056 742 l 257,31,-1
 856 742 l 257,28,-1
295 503 m 257,32,-1
 222 302 l 257,33,-1
 897 302 l 257,34,-1
 970 503 l 257,35,-1
 295 503 l 257,32,-1
345 639 m 257,36,-1
 225 310 l 257,37,-1
 426 310 l 257,38,-1
 546 639 l 257,39,-1
 345 639 l 257,36,-1
1213 1099 m 257,40,-1
 1160 952 l 257,41,-1
 1316 952 l 257,42,-1
 1370 1099 l 257,43,-1
 1213 1099 l 257,40,-1
EndSplineSet
Ligature2: "rkrfRakarVariantsinDevanagari2lookup0 subtable" uni0919 uni094D uni0930
EndChar

StartChar: uni0919_uni094D.half
Encoding: 65552 -1 456
GlifName: uni0919_uni094D_.half
Width: 1024
VWidth: 0
GlyphClass: 3
Flags: W
LayerCount: 2
Fore
SplineSet
566 1554 m 257,0,-1
 493 1354 l 257,1,-1
 1515 1354 l 257,2,-1
 1588 1554 l 257,3,-1
 566 1554 l 257,0,-1
1071 1543 m 257,4,-1
 881 1023 l 257,5,-1
 1081 1023 l 257,6,-1
 1271 1543 l 257,7,-1
 1071 1543 l 257,4,-1
1146 1226 m 257,8,-1
 672 1226 l 257,9,-1
 598 1023 l 257,10,-1
 1072 1023 l 257,11,-1
 1146 1226 l 257,8,-1
619 1083 m 257,12,-1
 454 629 l 257,13,-1
 659 629 l 257,14,-1
 824 1083 l 257,15,-1
 619 1083 l 257,12,-1
523 820 m 257,16,-1
 451 620 l 257,17,-1
 1012 620 l 257,18,-1
 1084 820 l 257,19,-1
 523 820 l 257,16,-1
834 680 m 257,20,-1
 646 165 l 257,21,-1
 846 165 l 257,22,-1
 1034 680 l 257,23,-1
 834 680 l 257,20,-1
235 337 m 257,24,-1
 162 136 l 257,25,-1
 836 136 l 257,26,-1
 910 337 l 257,27,-1
 235 337 l 257,24,-1
315 559 m 257,28,-1
 164 144 l 257,29,-1
 365 144 l 257,30,-1
 516 559 l 257,31,-1
 315 559 l 257,28,-1
1190 1037 m 257,32,-1
 1137 890 l 257,33,-1
 1294 890 l 257,34,-1
 1347 1037 l 257,35,-1
 1190 1037 l 257,32,-1
359 55 m 257,36,-1
 164 -141 l 257,37,-1
 521 -141 l 257,38,-1
 716 55 l 257,39,-1
 359 55 l 257,36,-1
510 -106 m 257,40,-1
 700 -511 l 257,41,-1
 903 -348 l 257,42,-1
 712 56 l 257,43,-1
 510 -106 l 257,40,-1
EndSplineSet
Ligature2: "halfHalfFormsinDevanagari2lookup0 subtable" uni0919 uni094D
EndChar

StartChar: uni0919_uni094D.haln
Encoding: 65553 -1 457
GlifName: uni0919_uni094D_.haln
Width: 1024
VWidth: 0
GlyphClass: 3
Flags: W
LayerCount: 2
Fore
SplineSet
566 1548 m 257,0,-1
 491 1350 l 257,1,-1
 1516 1350 l 257,2,-1
 1591 1548 l 257,3,-1
 566 1548 l 257,0,-1
1073 1543 m 257,4,-1
 878 1023 l 257,5,-1
 1078 1023 l 257,6,-1
 1273 1543 l 257,7,-1
 1073 1543 l 257,4,-1
1145 1226 m 257,8,-1
 671 1226 l 257,9,-1
 595 1023 l 257,10,-1
 1069 1023 l 257,11,-1
 1145 1226 l 257,8,-1
616 1083 m 257,12,-1
 446 629 l 257,13,-1
 651 629 l 257,14,-1
 821 1083 l 257,15,-1
 616 1083 l 257,12,-1
517 820 m 257,16,-1
 442 620 l 257,17,-1
 1003 620 l 257,18,-1
 1078 820 l 257,19,-1
 517 820 l 257,16,-1
826 680 m 257,20,-1
 582 29 l 257,21,-1
 782 29 l 257,22,-1
 1026 680 l 257,23,-1
 826 680 l 257,20,-1
172 201 m 257,24,-1
 97 0 l 257,25,-1
 772 0 l 257,26,-1
 847 201 l 257,27,-1
 172 201 l 257,24,-1
255 423 m 257,28,-1
 100 8 l 257,29,-1
 301 8 l 257,30,-1
 456 423 l 257,31,-1
 255 423 l 257,28,-1
1187 1037 m 257,32,-1
 1132 890 l 257,33,-1
 1289 890 l 257,34,-1
 1344 1037 l 257,35,-1
 1187 1037 l 257,32,-1
436 -22 m 257,36,-1
 363 -218 l 257,37,-1
 720 -218 l 257,38,-1
 793 -22 l 257,39,-1
 436 -22 l 257,36,-1
592 -183 m 257,40,-1
 777 -588 l 257,41,-1
 982 -425 l 257,42,-1
 796 -21 l 257,43,-1
 592 -183 l 257,40,-1
EndSplineSet
Ligature2: "halnHalantFormsinDevanagari2lookup0 subtable" uni0919 uni094D
EndChar

StartChar: uni091A
Encoding: 2330 2330 458
GlifName: uni091A_
Width: 1024
VWidth: 0
GlyphClass: 2
Flags: W
AnchorPoint: "abvm_deva" 1311 1624 basechar 0
AnchorPoint: "blwm_deva" 723 -122 basechar 0
LayerCount: 2
Fore
SplineSet
563 1548 m 257,0,-1
 492 1351 l 257,1,-1
 1517 1351 l 257,2,-1
 1588 1548 l 257,3,-1
 563 1548 l 257,0,-1
1201 1553 m 257,4,-1
 636 0 l 257,5,-1
 836 0 l 257,6,-1
 1401 1553 l 257,7,-1
 1201 1553 l 257,4,-1
905 280 m 257,8,-1
 978 480 l 257,9,-1
 471 480 l 257,10,-1
 398 280 l 257,11,-1
 905 280 l 257,8,-1
601 837 m 257,12,-1
 449 421 l 257,13,-1
 649 421 l 257,14,-1
 801 837 l 257,15,-1
 601 837 l 257,12,-1
433 991 m 257,16,-1
 360 791 l 257,17,-1
 856 791 l 257,18,-1
 929 991 l 257,19,-1
 433 991 l 257,16,-1
EndSplineSet
EndChar

StartChar: uni091A_uni0930_uni094D.vatu
Encoding: 65554 -1 459
GlifName: uni091A__uni0930_uni094D_.vatu
Width: 1024
VWidth: 0
GlyphClass: 2
Flags: W
LayerCount: 2
Fore
SplineSet
129 0 m 257,0,-1
 386 0 l 257,1,-1
 804 215 l 257,2,-1
 877 416 l 257,3,-1
 129 0 l 257,0,-1
566 1556 m 257,4,-1
 494 1356 l 257,5,-1
 1516 1356 l 257,6,-1
 1588 1556 l 257,7,-1
 566 1556 l 257,4,-1
1201 1553 m 257,8,-1
 636 0 l 257,9,-1
 836 0 l 257,10,-1
 1401 1553 l 257,11,-1
 1201 1553 l 257,8,-1
905 280 m 257,12,-1
 978 480 l 257,13,-1
 471 480 l 257,14,-1
 398 280 l 257,15,-1
 905 280 l 257,12,-1
601 837 m 257,16,-1
 449 421 l 257,17,-1
 649 421 l 257,18,-1
 801 837 l 257,19,-1
 601 837 l 257,16,-1
433 991 m 257,20,-1
 360 791 l 257,21,-1
 856 791 l 257,22,-1
 929 991 l 257,23,-1
 433 991 l 257,20,-1
EndSplineSet
Ligature2: "rkrfRakarVariantsinDevanagari2lookup0 subtable" uni091A uni094D uni0930
EndChar

StartChar: uni091A_uni094D.half
Encoding: 65555 -1 460
GlifName: uni091A__uni094D_.half
Width: 1024
VWidth: 0
GlyphClass: 3
Flags: W
LayerCount: 2
Fore
SplineSet
566 1556 m 257,0,-1
 494 1356 l 257,1,-1
 1516 1356 l 257,2,-1
 1588 1556 l 257,3,-1
 566 1556 l 257,0,-1
1155 280 m 257,4,-1
 1228 480 l 257,5,-1
 471 480 l 257,6,-1
 398 280 l 257,7,-1
 1155 280 l 257,4,-1
601 837 m 257,8,-1
 449 421 l 257,9,-1
 649 421 l 257,10,-1
 801 837 l 257,11,-1
 601 837 l 257,8,-1
433 991 m 257,12,-1
 360 791 l 257,13,-1
 856 791 l 257,14,-1
 929 991 l 257,15,-1
 433 991 l 257,12,-1
EndSplineSet
Ligature2: "halfHalfFormsinDevanagari2lookup0 subtable" uni091A uni094D
EndChar

StartChar: uni091A_uni094D.haln
Encoding: 65556 -1 461
GlifName: uni091A__uni094D_.haln
Width: 1024
VWidth: 0
GlyphClass: 3
Flags: W
LayerCount: 2
Fore
SplineSet
565 1548 m 257,0,-1
 491 1351 l 257,1,-1
 1516 1351 l 257,2,-1
 1590 1548 l 257,3,-1
 565 1548 l 257,0,-1
1203 1553 m 257,4,-1
 620 0 l 257,5,-1
 820 0 l 257,6,-1
 1403 1553 l 257,7,-1
 1203 1553 l 257,4,-1
892 280 m 257,8,-1
 967 480 l 257,9,-1
 460 480 l 257,10,-1
 385 280 l 257,11,-1
 892 280 l 257,8,-1
594 837 m 257,12,-1
 438 421 l 257,13,-1
 638 421 l 257,14,-1
 794 837 l 257,15,-1
 594 837 l 257,12,-1
428 991 m 257,16,-1
 353 791 l 257,17,-1
 849 791 l 257,18,-1
 924 991 l 257,19,-1
 428 991 l 257,16,-1
807 -22 m 257,20,-1
 733 -218 l 257,21,-1
 1090 -218 l 257,22,-1
 1164 -22 l 257,23,-1
 807 -22 l 257,20,-1
962 -183 m 257,24,-1
 1147 -588 l 257,25,-1
 1352 -425 l 257,26,-1
 1166 -21 l 257,27,-1
 962 -183 l 257,24,-1
EndSplineSet
Ligature2: "halnHalantFormsinDevanagari2lookup0 subtable" uni091A uni094D
EndChar

StartChar: uni091B
Encoding: 2331 2331 462
GlifName: uni091B_
Width: 1024
VWidth: 0
GlyphClass: 2
Flags: W
AnchorPoint: "abvm_deva" 1182 1600 basechar 0
AnchorPoint: "blwm_deva" 635 -32 basechar 0
LayerCount: 2
Fore
SplineSet
563 1548 m 257,0,-1
 491 1350 l 257,1,-1
 1517 1350 l 257,2,-1
 1589 1548 l 257,3,-1
 563 1548 l 257,0,-1
844 1130 m 257,4,-1
 503 1130 l 257,5,-1
 431 931 l 257,6,-1
 772 931 l 257,7,-1
 844 1130 l 257,4,-1
500 1130 m 257,8,-1
 302 584 l 257,9,-1
 502 584 l 257,10,-1
 700 1130 l 257,11,-1
 500 1130 l 257,8,-1
400 639 m 257,12,-1
 327 439 l 257,13,-1
 577 439 l 257,14,-1
 650 639 l 257,15,-1
 400 639 l 257,12,-1
263 493 m 257,16,-1
 84 0 l 257,17,-1
 284 0 l 257,18,-1
 463 493 l 257,19,-1
 263 493 l 257,16,-1
156 199 m 257,20,-1
 84 0 l 257,21,-1
 719 0 l 257,22,-1
 791 199 l 257,23,-1
 156 199 l 257,20,-1
520 6 m 257,24,-1
 721 6 l 257,25,-1
 1270 1515 l 257,26,-1
 1069 1515 l 257,27,-1
 520 6 l 257,24,-1
1026 1007 m 257,28,-1
 953 808 l 257,29,-1
 1291 808 l 257,30,-1
 1364 1007 l 257,31,-1
 1026 1007 l 257,28,-1
1112 868 m 257,32,-1
 967 471 l 257,33,-1
 1168 471 l 257,34,-1
 1313 868 l 257,35,-1
 1112 868 l 257,32,-1
EndSplineSet
EndChar

StartChar: uni091B_uni0930_uni094D.vatu
Encoding: 65557 -1 463
GlifName: uni091B__uni0930_uni094D_.vatu
Width: 1024
VWidth: 0
GlyphClass: 3
Flags: W
LayerCount: 2
Fore
SplineSet
100 0 m 257,0,-1
 357 0 l 257,1,-1
 775 215 l 257,2,-1
 848 416 l 257,3,-1
 100 0 l 257,0,-1
560 1555 m 257,4,-1
 487 1355 l 257,5,-1
 1509 1355 l 257,6,-1
 1582 1555 l 257,7,-1
 560 1555 l 257,4,-1
872 1206 m 257,8,-1
 531 1206 l 257,9,-1
 459 1007 l 257,10,-1
 800 1007 l 257,11,-1
 872 1206 l 257,8,-1
528 1206 m 257,12,-1
 361 746 l 257,13,-1
 561 746 l 257,14,-1
 728 1206 l 257,15,-1
 528 1206 l 257,12,-1
459 801 m 257,16,-1
 386 601 l 257,17,-1
 636 601 l 257,18,-1
 709 801 l 257,19,-1
 459 801 l 257,16,-1
322 655 m 257,20,-1
 169 234 l 257,21,-1
 369 234 l 257,22,-1
 522 655 l 257,23,-1
 322 655 l 257,20,-1
242 433 m 257,24,-1
 169 234 l 257,25,-1
 804 234 l 257,26,-1
 877 433 l 257,27,-1
 242 433 l 257,24,-1
518 0 m 257,28,-1
 719 0 l 257,29,-1
 1245 1446 l 257,30,-1
 1044 1446 l 257,31,-1
 518 0 l 257,28,-1
1026 1007 m 257,32,-1
 953 808 l 257,33,-1
 1291 808 l 257,34,-1
 1364 1007 l 257,35,-1
 1026 1007 l 257,32,-1
1112 868 m 257,36,-1
 967 471 l 257,37,-1
 1168 471 l 257,38,-1
 1313 868 l 257,39,-1
 1112 868 l 257,36,-1
EndSplineSet
Ligature2: "rkrfRakarVariantsinDevanagari2lookup0 subtable" uni091B uni094D uni0930
EndChar

StartChar: uni091B_uni094D.half
Encoding: 65558 -1 464
GlifName: uni091B__uni094D_.half
Width: 1024
VWidth: 0
GlyphClass: 3
Flags: W
LayerCount: 2
Fore
SplineSet
560 1555 m 257,0,-1
 487 1355 l 257,1,-1
 1509 1355 l 257,2,-1
 1582 1555 l 257,3,-1
 560 1555 l 257,0,-1
1094 1130 m 257,4,-1
 753 1130 l 257,5,-1
 681 931 l 257,6,-1
 1022 931 l 257,7,-1
 1094 1130 l 257,4,-1
750 1130 m 257,8,-1
 552 584 l 257,9,-1
 752 584 l 257,10,-1
 950 1130 l 257,11,-1
 750 1130 l 257,8,-1
650 639 m 257,12,-1
 577 439 l 257,13,-1
 827 439 l 257,14,-1
 900 639 l 257,15,-1
 650 639 l 257,12,-1
513 493 m 257,16,-1
 334 0 l 257,17,-1
 534 0 l 257,18,-1
 713 493 l 257,19,-1
 513 493 l 257,16,-1
406 199 m 257,20,-1
 334 0 l 257,21,-1
 1019 0 l 257,22,-1
 1091 199 l 257,23,-1
 406 199 l 257,20,-1
EndSplineSet
Ligature2: "halfHalfFormsinDevanagari2lookup0 subtable" uni091B uni094D
EndChar

StartChar: uni091B_uni094D.haln
Encoding: 65559 -1 465
GlifName: uni091B__uni094D_.haln
Width: 1024
VWidth: 0
GlyphClass: 3
Flags: W
LayerCount: 2
Fore
SplineSet
565 1548 m 257,0,-1
 491 1350 l 257,1,-1
 1517 1350 l 257,2,-1
 1591 1548 l 257,3,-1
 565 1548 l 257,0,-1
841 1130 m 257,4,-1
 500 1130 l 257,5,-1
 425 931 l 257,6,-1
 766 931 l 257,7,-1
 841 1130 l 257,4,-1
497 1130 m 257,8,-1
 292 584 l 257,9,-1
 492 584 l 257,10,-1
 697 1130 l 257,11,-1
 497 1130 l 257,8,-1
391 639 m 257,12,-1
 316 439 l 257,13,-1
 566 439 l 257,14,-1
 641 639 l 257,15,-1
 391 639 l 257,12,-1
253 493 m 257,16,-1
 68 0 l 257,17,-1
 268 0 l 257,18,-1
 453 493 l 257,19,-1
 253 493 l 257,16,-1
143 199 m 257,20,-1
 68 0 l 257,21,-1
 703 0 l 257,22,-1
 778 199 l 257,23,-1
 143 199 l 257,20,-1
504 6 m 257,24,-1
 705 6 l 257,25,-1
 1272 1515 l 257,26,-1
 1071 1515 l 257,27,-1
 504 6 l 257,24,-1
1021 1007 m 257,28,-1
 946 808 l 257,29,-1
 1284 808 l 257,30,-1
 1359 1007 l 257,31,-1
 1021 1007 l 257,28,-1
1106 868 m 257,32,-1
 957 471 l 257,33,-1
 1158 471 l 257,34,-1
 1307 868 l 257,35,-1
 1106 868 l 257,32,-1
248 -13 m 257,36,-1
 175 -209 l 257,37,-1
 532 -209 l 257,38,-1
 605 -13 l 257,39,-1
 248 -13 l 257,36,-1
404 -174 m 257,40,-1
 589 -579 l 257,41,-1
 794 -416 l 257,42,-1
 607 -12 l 257,43,-1
 404 -174 l 257,40,-1
EndSplineSet
Ligature2: "halnHalantFormsinDevanagari2lookup0 subtable" uni091B uni094D
EndChar

StartChar: uni091C
Encoding: 2332 2332 466
GlifName: uni091C_
Width: 1024
VWidth: 0
GlyphClass: 2
Flags: W
AnchorPoint: "abvm_deva" 1342 1594 basechar 0
AnchorPoint: "blwm_deva" 718 -134 basechar 0
LayerCount: 2
Fore
SplineSet
563 1548 m 257,0,-1
 491 1348 l 257,1,-1
 1517 1348 l 257,2,-1
 1589 1548 l 257,3,-1
 563 1548 l 257,0,-1
1241 1548 m 257,4,-1
 674 -12 l 257,5,-1
 873 -12 l 257,6,-1
 1440 1548 l 257,7,-1
 1241 1548 l 257,4,-1
710 860 m 257,8,-1
 638 663 l 257,9,-1
 1052 663 l 257,10,-1
 1124 860 l 257,11,-1
 710 860 l 257,8,-1
664 860 m 257,12,-1
 501 413 l 257,13,-1
 701 413 l 257,14,-1
 864 860 l 257,15,-1
 664 860 l 257,12,-1
247 567 m 257,16,-1
 175 367 l 257,17,-1
 685 367 l 257,18,-1
 757 567 l 257,19,-1
 247 567 l 257,16,-1
306 727 m 257,20,-1
 226 509 l 257,21,-1
 426 509 l 257,22,-1
 506 727 l 257,23,-1
 306 727 l 257,20,-1
EndSplineSet
EndChar

StartChar: uni091C_uni0930_uni094D.vatu
Encoding: 65560 -1 467
GlifName: uni091C__uni0930_uni094D_.vatu
Width: 1024
VWidth: 0
GlyphClass: 2
Flags: W
LayerCount: 2
Fore
SplineSet
129 0 m 257,0,-1
 386 0 l 257,1,-1
 804 215 l 257,2,-1
 877 416 l 257,3,-1
 129 0 l 257,0,-1
529 1548 m 257,4,-1
 457 1350 l 257,5,-1
 1515 1350 l 257,6,-1
 1587 1548 l 257,7,-1
 529 1548 l 257,4,-1
1241 1548 m 257,8,-1
 674 -12 l 257,9,-1
 873 -12 l 257,10,-1
 1440 1548 l 257,11,-1
 1241 1548 l 257,8,-1
710 860 m 257,12,-1
 638 663 l 257,13,-1
 1052 663 l 257,14,-1
 1124 860 l 257,15,-1
 710 860 l 257,12,-1
664 860 m 257,16,-1
 501 413 l 257,17,-1
 701 413 l 257,18,-1
 864 860 l 257,19,-1
 664 860 l 257,16,-1
247 567 m 257,20,-1
 175 367 l 257,21,-1
 685 367 l 257,22,-1
 757 567 l 257,23,-1
 247 567 l 257,20,-1
306 727 m 257,24,-1
 226 509 l 257,25,-1
 426 509 l 257,26,-1
 506 727 l 257,27,-1
 306 727 l 257,24,-1
EndSplineSet
Ligature2: "rkrfRakarVariantsinDevanagari2lookup0 subtable" uni091C uni094D uni0930
EndChar

StartChar: uni091C_uni094D.half
Encoding: 65561 -1 468
GlifName: uni091C__uni094D_.half
Width: 1024
VWidth: 0
GlyphClass: 3
Flags: W
LayerCount: 2
Fore
SplineSet
529 1548 m 257,0,-1
 457 1350 l 257,1,-1
 1515 1350 l 257,2,-1
 1587 1548 l 257,3,-1
 529 1548 l 257,0,-1
860 860 m 257,4,-1
 788 663 l 257,5,-1
 1302 663 l 257,6,-1
 1374 860 l 257,7,-1
 860 860 l 257,4,-1
814 860 m 257,8,-1
 651 413 l 257,9,-1
 851 413 l 257,10,-1
 1014 860 l 257,11,-1
 814 860 l 257,8,-1
397 567 m 257,12,-1
 325 367 l 257,13,-1
 835 367 l 257,14,-1
 907 567 l 257,15,-1
 397 567 l 257,12,-1
456 727 m 257,16,-1
 376 509 l 257,17,-1
 576 509 l 257,18,-1
 656 727 l 257,19,-1
 456 727 l 257,16,-1
EndSplineSet
Ligature2: "halfHalfFormsinDevanagari2lookup0 subtable" uni091C uni094D
EndChar

StartChar: uni091C_uni094D.haln
Encoding: 65562 -1 469
GlifName: uni091C__uni094D_.haln
Width: 1024
VWidth: 0
GlyphClass: 3
Flags: W
LayerCount: 2
Fore
SplineSet
565 1548 m 257,0,-1
 490 1348 l 257,1,-1
 1516 1348 l 257,2,-1
 1591 1548 l 257,3,-1
 565 1548 l 257,0,-1
1243 1548 m 257,4,-1
 658 -12 l 257,5,-1
 857 -12 l 257,6,-1
 1442 1548 l 257,7,-1
 1243 1548 l 257,4,-1
704 860 m 257,8,-1
 630 663 l 257,9,-1
 1044 663 l 257,10,-1
 1118 860 l 257,11,-1
 704 860 l 257,8,-1
658 860 m 257,12,-1
 490 413 l 257,13,-1
 690 413 l 257,14,-1
 858 860 l 257,15,-1
 658 860 l 257,12,-1
238 567 m 257,16,-1
 163 367 l 257,17,-1
 673 367 l 257,18,-1
 748 567 l 257,19,-1
 238 567 l 257,16,-1
298 727 m 257,20,-1
 216 509 l 257,21,-1
 416 509 l 257,22,-1
 498 727 l 257,23,-1
 298 727 l 257,20,-1
528 -22 m 257,24,-1
 455 -218 l 257,25,-1
 812 -218 l 257,26,-1
 885 -22 l 257,27,-1
 528 -22 l 257,24,-1
684 -183 m 257,28,-1
 869 -588 l 257,29,-1
 1074 -425 l 257,30,-1
 888 -21 l 257,31,-1
 684 -183 l 257,28,-1
EndSplineSet
Ligature2: "halnHalantFormsinDevanagari2lookup0 subtable" uni091C uni094D
EndChar

StartChar: uni091C_uni094D_uni091E.akhn
Encoding: 65563 -1 470
GlifName: uni091C__uni094D__uni091E_.akhn
Width: 1024
VWidth: 0
GlyphClass: 3
Flags: W
LayerCount: 2
Fore
SplineSet
529 1548 m 257,0,-1
 457 1350 l 257,1,-1
 1515 1350 l 257,2,-1
 1587 1548 l 257,3,-1
 529 1548 l 257,0,-1
1241 1548 m 257,4,-1
 674 -12 l 257,5,-1
 873 -12 l 257,6,-1
 1440 1548 l 257,7,-1
 1241 1548 l 257,4,-1
710 860 m 257,8,-1
 638 663 l 257,9,-1
 1052 663 l 257,10,-1
 1124 860 l 257,11,-1
 710 860 l 257,8,-1
664 860 m 257,12,-1
 501 413 l 257,13,-1
 701 413 l 257,14,-1
 864 860 l 257,15,-1
 664 860 l 257,12,-1
247 567 m 257,16,-1
 175 367 l 257,17,-1
 685 367 l 257,18,-1
 757 567 l 257,19,-1
 247 567 l 257,16,-1
175 368 m 257,20,-1
 216 75 l 257,21,-1
 474 75 l 257,22,-1
 418 368 l 257,23,-1
 175 368 l 257,20,-1
EndSplineSet
Ligature2: "akhnAkhandinDevanagari2lookup0 subtable" uni091C uni094D uni091E
EndChar

StartChar: uni091C_uni094D_uni091E.half
Encoding: 65564 -1 471
GlifName: uni091C__uni094D__uni091E_.half
Width: 1024
VWidth: 0
GlyphClass: 3
Flags: W
LayerCount: 2
Fore
SplineSet
529 1548 m 257,0,-1
 457 1350 l 257,1,-1
 1515 1350 l 257,2,-1
 1587 1548 l 257,3,-1
 529 1548 l 257,0,-1
906 860 m 257,4,-1
 834 663 l 257,5,-1
 1248 663 l 257,6,-1
 1320 860 l 257,7,-1
 906 860 l 257,4,-1
860 860 m 257,8,-1
 697 413 l 257,9,-1
 897 413 l 257,10,-1
 1060 860 l 257,11,-1
 860 860 l 257,8,-1
443 567 m 257,12,-1
 371 367 l 257,13,-1
 881 367 l 257,14,-1
 953 567 l 257,15,-1
 443 567 l 257,12,-1
371 368 m 257,16,-1
 412 75 l 257,17,-1
 670 75 l 257,18,-1
 614 368 l 257,19,-1
 371 368 l 257,16,-1
EndSplineSet
Ligature2: "halfHalfFormsinDevanagari2lookup0 subtable" uni091C_uni094D_uni091E.akhn uni094D
EndChar

StartChar: uni091C_uni094D_uni091E_uni094D
Encoding: 65565 -1 472
GlifName: uni091C__uni094D__uni091E__uni094D_
Width: 1024
VWidth: 0
GlyphClass: 2
Flags: W
LayerCount: 2
Fore
SplineSet
552 1548 m 257,0,-1
 478 1350 l 257,1,-1
 1536 1350 l 257,2,-1
 1610 1548 l 257,3,-1
 552 1548 l 257,0,-1
1264 1548 m 257,4,-1
 679 -12 l 257,5,-1
 878 -12 l 257,6,-1
 1463 1548 l 257,7,-1
 1264 1548 l 257,4,-1
725 860 m 257,8,-1
 651 663 l 257,9,-1
 1065 663 l 257,10,-1
 1139 860 l 257,11,-1
 725 860 l 257,8,-1
679 860 m 257,12,-1
 511 413 l 257,13,-1
 711 413 l 257,14,-1
 879 860 l 257,15,-1
 679 860 l 257,12,-1
259 567 m 257,16,-1
 184 367 l 257,17,-1
 694 367 l 257,18,-1
 769 567 l 257,19,-1
 259 567 l 257,16,-1
185 368 m 257,20,-1
 223 75 l 257,21,-1
 481 75 l 257,22,-1
 428 368 l 257,23,-1
 185 368 l 257,20,-1
641 -22 m 257,24,-1
 567 -218 l 257,25,-1
 924 -218 l 257,26,-1
 998 -22 l 257,27,-1
 641 -22 l 257,24,-1
796 -183 m 257,28,-1
 981 -588 l 257,29,-1
 1186 -425 l 257,30,-1
 1000 -21 l 257,31,-1
 796 -183 l 257,28,-1
EndSplineSet
Ligature2: "halnHalantFormsinDevanagari2lookup0 subtable" uni091C_uni094D_uni091E.akhn uni094D
EndChar

StartChar: uni091D
Encoding: 2333 2333 473
GlifName: uni091D_
Width: 1024
VWidth: 0
GlyphClass: 2
Flags: W
AnchorPoint: "abvm_deva" 1342 1594 basechar 0
AnchorPoint: "blwm_deva" 790 -45 basechar 0
LayerCount: 2
Fore
SplineSet
563 1548 m 257,0,-1
 491 1349 l 257,1,-1
 1517 1349 l 257,2,-1
 1589 1548 l 257,3,-1
 563 1548 l 257,0,-1
1242 1548 m 257,4,-1
 679 0 l 257,5,-1
 880 0 l 257,6,-1
 1443 1548 l 257,7,-1
 1242 1548 l 257,4,-1
1006 1537 m 257,8,-1
 819 1023 l 257,9,-1
 1018 1023 l 257,10,-1
 1205 1537 l 257,11,-1
 1006 1537 l 257,8,-1
570 1223 m 257,12,-1
 497 1023 l 257,13,-1
 1018 1023 l 257,14,-1
 1091 1223 l 257,15,-1
 570 1223 l 257,12,-1
520 1085 m 257,16,-1
 362 651 l 257,17,-1
 562 651 l 257,18,-1
 720 1085 l 257,19,-1
 520 1085 l 257,16,-1
430 837 m 257,20,-1
 357 638 l 257,21,-1
 1106 638 l 257,22,-1
 1179 837 l 257,23,-1
 430 837 l 257,20,-1
670 691 m 257,24,-1
 421 7 l 257,25,-1
 621 7 l 257,26,-1
 870 691 l 257,27,-1
 670 691 l 257,24,-1
198 200 m 257,28,-1
 125 0 l 257,29,-1
 618 0 l 257,30,-1
 691 200 l 257,31,-1
 198 200 l 257,28,-1
148 63 m 257,32,-1
 71 -148 l 257,33,-1
 271 -148 l 257,34,-1
 348 63 l 257,35,-1
 148 63 l 257,32,-1
EndSplineSet
EndChar

StartChar: uni091D_uni0930_uni094D.vatu
Encoding: 65566 -1 474
GlifName: uni091D__uni0930_uni094D_.vatu
Width: 1024
VWidth: 0
GlyphClass: 3
Flags: W
LayerCount: 2
Fore
SplineSet
391 0 m 257,0,-1
 557 0 l 257,1,-1
 868 215 l 257,2,-1
 968 490 l 257,3,-1
 391 0 l 257,0,-1
545 1548 m 257,4,-1
 473 1349 l 257,5,-1
 1514 1349 l 257,6,-1
 1586 1548 l 257,7,-1
 545 1548 l 257,4,-1
1299 1537 m 257,8,-1
 738 -5 l 257,9,-1
 939 -5 l 257,10,-1
 1500 1537 l 257,11,-1
 1299 1537 l 257,8,-1
1006 1537 m 257,12,-1
 819 1023 l 257,13,-1
 1018 1023 l 257,14,-1
 1205 1537 l 257,15,-1
 1006 1537 l 257,12,-1
570 1223 m 257,16,-1
 497 1023 l 257,17,-1
 1018 1023 l 257,18,-1
 1091 1223 l 257,19,-1
 570 1223 l 257,16,-1
485 1218 m 257,20,-1
 279 651 l 257,21,-1
 479 651 l 257,22,-1
 685 1218 l 257,23,-1
 485 1218 l 257,20,-1
434 849 m 257,24,-1
 362 650 l 257,25,-1
 1111 650 l 257,26,-1
 1183 849 l 257,27,-1
 434 849 l 257,24,-1
473 691 m 257,28,-1
 275 147 l 257,29,-1
 475 147 l 257,30,-1
 673 691 l 257,31,-1
 473 691 l 257,28,-1
145 350 m 257,32,-1
 72 147 l 257,33,-1
 454 147 l 257,34,-1
 527 350 l 257,35,-1
 145 350 l 257,32,-1
94 210 m 257,36,-1
 18 0 l 257,37,-1
 218 0 l 257,38,-1
 294 210 l 257,39,-1
 94 210 l 257,36,-1
EndSplineSet
Ligature2: "rkrfRakarVariantsinDevanagari2lookup0 subtable" uni091D uni094D uni0930
EndChar

StartChar: uni091D_uni094D.half
Encoding: 65567 -1 475
GlifName: uni091D__uni094D_.half
Width: 1024
VWidth: 0
GlyphClass: 3
Flags: W
LayerCount: 2
Fore
SplineSet
545 1548 m 257,0,-1
 473 1349 l 257,1,-1
 1514 1349 l 257,2,-1
 1586 1548 l 257,3,-1
 545 1548 l 257,0,-1
1006 1537 m 257,4,-1
 819 1023 l 257,5,-1
 1018 1023 l 257,6,-1
 1205 1537 l 257,7,-1
 1006 1537 l 257,4,-1
570 1223 m 257,8,-1
 497 1023 l 257,9,-1
 1018 1023 l 257,10,-1
 1091 1223 l 257,11,-1
 570 1223 l 257,8,-1
520 1085 m 257,12,-1
 362 651 l 257,13,-1
 562 651 l 257,14,-1
 720 1085 l 257,15,-1
 520 1085 l 257,12,-1
430 837 m 257,16,-1
 357 638 l 257,17,-1
 1306 638 l 257,18,-1
 1379 837 l 257,19,-1
 430 837 l 257,16,-1
670 691 m 257,20,-1
 421 7 l 257,21,-1
 621 7 l 257,22,-1
 870 691 l 257,23,-1
 670 691 l 257,20,-1
199 203 m 257,24,-1
 125 0 l 257,25,-1
 618 0 l 257,26,-1
 692 203 l 257,27,-1
 199 203 l 257,24,-1
148 63 m 257,28,-1
 71 -148 l 257,29,-1
 271 -148 l 257,30,-1
 348 63 l 257,31,-1
 148 63 l 257,28,-1
EndSplineSet
Ligature2: "halfHalfFormsinDevanagari2lookup0 subtable" uni091D uni094D
EndChar

StartChar: uni091D_uni094D.haln
Encoding: 65568 -1 476
GlifName: uni091D__uni094D_.haln
Width: 1024
VWidth: 0
GlyphClass: 3
Flags: W
LayerCount: 2
Fore
SplineSet
566 1548 m 257,0,-1
 491 1349 l 257,1,-1
 1517 1349 l 257,2,-1
 1592 1548 l 257,3,-1
 566 1548 l 257,0,-1
1245 1548 m 257,4,-1
 664 0 l 257,5,-1
 865 0 l 257,6,-1
 1446 1548 l 257,7,-1
 1245 1548 l 257,4,-1
1008 1537 m 257,8,-1
 815 1023 l 257,9,-1
 1014 1023 l 257,10,-1
 1207 1537 l 257,11,-1
 1008 1537 l 257,8,-1
569 1223 m 257,12,-1
 493 1023 l 257,13,-1
 1014 1023 l 257,14,-1
 1090 1223 l 257,15,-1
 569 1223 l 257,12,-1
517 1085 m 257,16,-1
 354 651 l 257,17,-1
 554 651 l 257,18,-1
 717 1085 l 257,19,-1
 517 1085 l 257,16,-1
424 837 m 257,20,-1
 349 638 l 257,21,-1
 1098 638 l 257,22,-1
 1173 837 l 257,23,-1
 424 837 l 257,20,-1
662 691 m 257,24,-1
 405 7 l 257,25,-1
 605 7 l 257,26,-1
 862 691 l 257,27,-1
 662 691 l 257,24,-1
185 200 m 257,28,-1
 110 0 l 257,29,-1
 603 0 l 257,30,-1
 678 200 l 257,31,-1
 185 200 l 257,28,-1
133 63 m 257,32,-1
 54 -148 l 257,33,-1
 254 -148 l 257,34,-1
 333 63 l 257,35,-1
 133 63 l 257,32,-1
375 -22 m 257,36,-1
 302 -218 l 257,37,-1
 659 -218 l 257,38,-1
 732 -22 l 257,39,-1
 375 -22 l 257,36,-1
531 -183 m 257,40,-1
 716 -588 l 257,41,-1
 921 -425 l 257,42,-1
 734 -21 l 257,43,-1
 531 -183 l 257,40,-1
EndSplineSet
Ligature2: "halnHalantFormsinDevanagari2lookup0 subtable" uni091D uni094D
EndChar

StartChar: uni091E
Encoding: 2334 2334 477
GlifName: uni091E_
Width: 1024
VWidth: 0
GlyphClass: 2
Flags: W
AnchorPoint: "abvm_deva" 1416 1600 basechar 0
AnchorPoint: "blwm_deva" 830 -45 basechar 0
LayerCount: 2
Fore
SplineSet
563 1548 m 257,0,-1
 491 1348 l 257,1,-1
 1517 1348 l 257,2,-1
 1589 1548 l 257,3,-1
 563 1548 l 257,0,-1
1294 1537 m 257,4,-1
 732 -8 l 257,5,-1
 932 -8 l 257,6,-1
 1494 1537 l 257,7,-1
 1294 1537 l 257,4,-1
733 737 m 257,8,-1
 660 537 l 257,9,-1
 1027 537 l 257,10,-1
 1100 737 l 257,11,-1
 733 737 l 257,8,-1
433 960 m 257,12,-1
 361 760 l 257,13,-1
 719 760 l 257,14,-1
 791 960 l 257,15,-1
 433 960 l 257,12,-1
760 960 m 257,16,-1
 526 316 l 257,17,-1
 726 316 l 257,18,-1
 960 960 l 257,19,-1
 760 960 l 257,16,-1
228 460 m 257,20,-1
 156 260 l 257,21,-1
 706 260 l 257,22,-1
 778 460 l 257,23,-1
 228 460 l 257,20,-1
EndSplineSet
EndChar

StartChar: uni091E_uni0930_uni094D.vatu
Encoding: 65569 -1 478
GlifName: uni091E__uni0930_uni094D_.vatu
Width: 1024
VWidth: 0
GlyphClass: 3
Flags: W
LayerCount: 2
Fore
SplineSet
168 0 m 257,0,-1
 425 0 l 257,1,-1
 831 182 l 257,2,-1
 904 383 l 257,3,-1
 168 0 l 257,0,-1
558 1548 m 257,4,-1
 486 1348 l 257,5,-1
 1520 1348 l 257,6,-1
 1592 1548 l 257,7,-1
 558 1548 l 257,4,-1
1294 1537 m 257,8,-1
 732 -8 l 257,9,-1
 932 -8 l 257,10,-1
 1494 1537 l 257,11,-1
 1294 1537 l 257,8,-1
733 737 m 257,12,-1
 660 537 l 257,13,-1
 1027 537 l 257,14,-1
 1100 737 l 257,15,-1
 733 737 l 257,12,-1
433 960 m 257,16,-1
 361 760 l 257,17,-1
 719 760 l 257,18,-1
 791 960 l 257,19,-1
 433 960 l 257,16,-1
760 960 m 257,20,-1
 526 316 l 257,21,-1
 726 316 l 257,22,-1
 960 960 l 257,23,-1
 760 960 l 257,20,-1
247 510 m 257,24,-1
 174 310 l 257,25,-1
 724 310 l 257,26,-1
 797 510 l 257,27,-1
 247 510 l 257,24,-1
EndSplineSet
Ligature2: "rkrfRakarVariantsinDevanagari2lookup0 subtable" uni091E uni094D uni0930
EndChar

StartChar: uni091E_uni094D.half
Encoding: 65570 -1 479
GlifName: uni091E__uni094D_.half
Width: 1024
VWidth: 0
GlyphClass: 3
Flags: W
LayerCount: 2
Fore
SplineSet
558 1548 m 257,0,-1
 486 1348 l 257,1,-1
 1520 1348 l 257,2,-1
 1592 1548 l 257,3,-1
 558 1548 l 257,0,-1
933 737 m 257,4,-1
 860 537 l 257,5,-1
 1227 537 l 257,6,-1
 1300 737 l 257,7,-1
 933 737 l 257,4,-1
633 960 m 257,8,-1
 561 760 l 257,9,-1
 919 760 l 257,10,-1
 991 960 l 257,11,-1
 633 960 l 257,8,-1
960 960 m 257,12,-1
 726 316 l 257,13,-1
 926 316 l 257,14,-1
 1160 960 l 257,15,-1
 960 960 l 257,12,-1
428 460 m 257,16,-1
 356 260 l 257,17,-1
 906 260 l 257,18,-1
 978 460 l 257,19,-1
 428 460 l 257,16,-1
EndSplineSet
Ligature2: "halfHalfFormsinDevanagari2lookup0 subtable" uni091E uni094D
EndChar

StartChar: uni091E_uni094D.haln
Encoding: 65571 -1 480
GlifName: uni091E__uni094D_.haln
Width: 1024
VWidth: 0
GlyphClass: 3
Flags: W
LayerCount: 2
Fore
SplineSet
565 1548 m 257,0,-1
 490 1348 l 257,1,-1
 1516 1348 l 257,2,-1
 1591 1548 l 257,3,-1
 565 1548 l 257,0,-1
1296 1537 m 257,4,-1
 716 -8 l 257,5,-1
 916 -8 l 257,6,-1
 1496 1537 l 257,7,-1
 1296 1537 l 257,4,-1
726 737 m 257,8,-1
 651 537 l 257,9,-1
 1018 537 l 257,10,-1
 1093 737 l 257,11,-1
 726 737 l 257,8,-1
428 960 m 257,12,-1
 353 760 l 257,13,-1
 711 760 l 257,14,-1
 786 960 l 257,15,-1
 428 960 l 257,12,-1
755 960 m 257,16,-1
 514 316 l 257,17,-1
 714 316 l 257,18,-1
 955 960 l 257,19,-1
 755 960 l 257,16,-1
218 460 m 257,20,-1
 143 260 l 257,21,-1
 693 260 l 257,22,-1
 768 460 l 257,23,-1
 218 460 l 257,20,-1
500 -22 m 257,24,-1
 426 -218 l 257,25,-1
 783 -218 l 257,26,-1
 857 -22 l 257,27,-1
 500 -22 l 257,24,-1
655 -183 m 257,28,-1
 840 -588 l 257,29,-1
 1046 -425 l 257,30,-1
 859 -21 l 257,31,-1
 655 -183 l 257,28,-1
EndSplineSet
Ligature2: "halnHalantFormsinDevanagari2lookup0 subtable" uni091E uni094D
EndChar

StartChar: uni091F
Encoding: 2335 2335 481
GlifName: uni091F_
Width: 1024
VWidth: 0
GlyphClass: 2
Flags: W
AnchorPoint: "abvm_deva" 1236 1582 basechar 0
AnchorPoint: "blwm_deva" 504 -45 basechar 0
LayerCount: 2
Fore
SplineSet
573 1548 m 257,0,-1
 501 1349 l 257,1,-1
 1515 1349 l 257,2,-1
 1587 1548 l 257,3,-1
 573 1548 l 257,0,-1
1125 1528 m 257,4,-1
 929 988 l 257,5,-1
 1129 988 l 257,6,-1
 1325 1528 l 257,7,-1
 1125 1528 l 257,4,-1
1141 1023 m 257,8,-1
 492 1023 l 257,9,-1
 419 822 l 257,10,-1
 1068 822 l 257,11,-1
 1141 1023 l 257,8,-1
471 1023 m 257,12,-1
 101 5 l 257,13,-1
 301 5 l 257,14,-1
 671 1023 l 257,15,-1
 471 1023 l 257,12,-1
172 201 m 257,16,-1
 99 0 l 257,17,-1
 812 0 l 257,18,-1
 885 201 l 257,19,-1
 172 201 l 257,16,-1
EndSplineSet
EndChar

StartChar: uni091F_uni0930_uni094D.vatu
Encoding: 65572 -1 482
GlifName: uni091F__uni0930_uni094D_.vatu
Width: 1024
VWidth: 0
GlyphClass: 3
Flags: W
LayerCount: 2
Fore
SplineSet
489 213 m 257,0,-1
 574 -167 l 257,1,-1
 856 -167 l 257,2,-1
 672 382 l 257,3,-1
 489 213 l 257,0,-1
672 382 m 257,4,-1
 62 -176 l 257,5,-1
 283 -176 l 257,6,-1
 727 217 l 257,7,-1
 672 382 l 257,4,-1
563 1548 m 257,8,-1
 491 1348 l 257,9,-1
 1517 1348 l 257,10,-1
 1589 1548 l 257,11,-1
 563 1548 l 257,8,-1
1115 1528 m 257,12,-1
 946 1064 l 257,13,-1
 1146 1064 l 257,14,-1
 1315 1528 l 257,15,-1
 1115 1528 l 257,12,-1
1159 1099 m 257,16,-1
 510 1099 l 257,17,-1
 437 898 l 257,18,-1
 1086 898 l 257,19,-1
 1159 1099 l 257,16,-1
489 1100 m 257,20,-1
 236 405 l 257,21,-1
 436 405 l 257,22,-1
 689 1100 l 257,23,-1
 489 1100 l 257,20,-1
308 601 m 257,24,-1
 235 400 l 257,25,-1
 948 400 l 257,26,-1
 1021 601 l 257,27,-1
 308 601 l 257,24,-1
EndSplineSet
Ligature2: "rkrfRakarVariantsinDevanagari2lookup0 subtable" uni091F uni094D uni0930
EndChar

StartChar: uni091F_uni094D.haln
Encoding: 65573 -1 483
GlifName: uni091F__uni094D_.haln
Width: 1024
VWidth: 0
GlyphClass: 3
Flags: W
LayerCount: 2
Fore
SplineSet
566 1548 m 257,0,-1
 491 1349 l 257,1,-1
 1505 1349 l 257,2,-1
 1580 1548 l 257,3,-1
 566 1548 l 257,0,-1
1117 1528 m 257,4,-1
 914 988 l 257,5,-1
 1114 988 l 257,6,-1
 1317 1528 l 257,7,-1
 1117 1528 l 257,4,-1
1128 1023 m 257,8,-1
 479 1023 l 257,9,-1
 403 822 l 257,10,-1
 1052 822 l 257,11,-1
 1128 1023 l 257,8,-1
458 1023 m 257,12,-1
 76 5 l 257,13,-1
 276 5 l 257,14,-1
 658 1023 l 257,15,-1
 458 1023 l 257,12,-1
149 201 m 257,16,-1
 74 0 l 257,17,-1
 787 0 l 257,18,-1
 862 201 l 257,19,-1
 149 201 l 257,16,-1
407 -22 m 257,20,-1
 334 -218 l 257,21,-1
 691 -218 l 257,22,-1
 764 -22 l 257,23,-1
 407 -22 l 257,20,-1
563 -183 m 257,24,-1
 748 -588 l 257,25,-1
 953 -425 l 257,26,-1
 767 -21 l 257,27,-1
 563 -183 l 257,24,-1
EndSplineSet
Ligature2: "halnHalantFormsinDevanagari2lookup0 subtable" uni091F uni094D
EndChar

StartChar: uni0920
Encoding: 2336 2336 484
GlifName: uni0920
Width: 1024
VWidth: 0
GlyphClass: 2
Flags: W
AnchorPoint: "abvm_deva" 1132 1594 basechar 0
AnchorPoint: "blwm_deva" 496 -65 basechar 0
LayerCount: 2
Fore
SplineSet
563 1548 m 257,0,-1
 491 1349 l 257,1,-1
 1516 1349 l 257,2,-1
 1588 1548 l 257,3,-1
 563 1548 l 257,0,-1
951 1484 m 257,4,-1
 783 1023 l 257,5,-1
 983 1023 l 257,6,-1
 1151 1484 l 257,7,-1
 951 1484 l 257,4,-1
462 1035 m 257,8,-1
 389 834 l 257,9,-1
 1267 834 l 257,10,-1
 1340 1035 l 257,11,-1
 462 1035 l 257,8,-1
449 1035 m 257,12,-1
 77 13 l 257,13,-1
 277 13 l 257,14,-1
 649 1035 l 257,15,-1
 449 1035 l 257,12,-1
1140 1035 m 257,16,-1
 763 0 l 257,17,-1
 963 0 l 257,18,-1
 1340 1035 l 257,19,-1
 1140 1035 l 257,16,-1
145 198 m 257,20,-1
 73 0 l 257,21,-1
 943 0 l 257,22,-1
 1015 198 l 257,23,-1
 145 198 l 257,20,-1
EndSplineSet
EndChar

StartChar: uni0920_uni0930_uni094D.vatu
Encoding: 65574 -1 485
GlifName: uni0920_uni0930_uni094D_.vatu
Width: 1024
VWidth: 0
GlyphClass: 3
Flags: W
LayerCount: 2
Fore
SplineSet
514 216 m 257,0,-1
 599 -164 l 257,1,-1
 881 -164 l 257,2,-1
 697 385 l 257,3,-1
 514 216 l 257,0,-1
697 385 m 257,4,-1
 87 -173 l 257,5,-1
 308 -173 l 257,6,-1
 752 220 l 257,7,-1
 697 385 l 257,4,-1
563 1548 m 257,8,-1
 491 1350 l 257,9,-1
 1517 1350 l 257,10,-1
 1589 1548 l 257,11,-1
 563 1548 l 257,8,-1
997 1484 m 257,12,-1
 829 1023 l 257,13,-1
 1029 1023 l 257,14,-1
 1197 1484 l 257,15,-1
 997 1484 l 257,12,-1
462 1035 m 257,16,-1
 389 834 l 257,17,-1
 1267 834 l 257,18,-1
 1340 1035 l 257,19,-1
 462 1035 l 257,16,-1
449 1035 m 257,20,-1
 222 413 l 257,21,-1
 422 413 l 257,22,-1
 649 1035 l 257,23,-1
 449 1035 l 257,20,-1
1140 1035 m 257,24,-1
 908 398 l 257,25,-1
 1108 398 l 257,26,-1
 1340 1035 l 257,27,-1
 1140 1035 l 257,24,-1
291 598 m 257,28,-1
 217 397 l 257,29,-1
 1088 397 l 257,30,-1
 1161 598 l 257,31,-1
 291 598 l 257,28,-1
EndSplineSet
Ligature2: "rkrfRakarVariantsinDevanagari2lookup0 subtable" uni0920 uni094D uni0930
EndChar

StartChar: uni0920_uni094D.haln
Encoding: 65575 -1 486
GlifName: uni0920_uni094D_.haln
Width: 1024
VWidth: 0
GlyphClass: 3
Flags: W
LayerCount: 2
Fore
SplineSet
568 1548 m 257,0,-1
 493 1349 l 257,1,-1
 1518 1349 l 257,2,-1
 1593 1548 l 257,3,-1
 568 1548 l 257,0,-1
955 1484 m 257,4,-1
 782 1023 l 257,5,-1
 982 1023 l 257,6,-1
 1155 1484 l 257,7,-1
 955 1484 l 257,4,-1
461 1035 m 257,8,-1
 385 834 l 257,9,-1
 1263 834 l 257,10,-1
 1339 1035 l 257,11,-1
 461 1035 l 257,8,-1
448 1035 m 257,12,-1
 64 13 l 257,13,-1
 264 13 l 257,14,-1
 648 1035 l 257,15,-1
 448 1035 l 257,12,-1
1139 1035 m 257,16,-1
 750 0 l 257,17,-1
 950 0 l 257,18,-1
 1339 1035 l 257,19,-1
 1139 1035 l 257,16,-1
135 198 m 257,20,-1
 60 0 l 257,21,-1
 930 0 l 257,22,-1
 1005 198 l 257,23,-1
 135 198 l 257,20,-1
380 -22 m 257,24,-1
 307 -218 l 257,25,-1
 664 -218 l 257,26,-1
 737 -22 l 257,27,-1
 380 -22 l 257,24,-1
536 -183 m 257,28,-1
 721 -588 l 257,29,-1
 926 -425 l 257,30,-1
 740 -21 l 257,31,-1
 536 -183 l 257,28,-1
EndSplineSet
Ligature2: "halnHalantFormsinDevanagari2lookup0 subtable" uni0920 uni094D
EndChar

StartChar: uni0921
Encoding: 2337 2337 487
GlifName: uni0921
Width: 1024
VWidth: 0
GlyphClass: 2
Flags: W
AnchorPoint: "abvm_deva" 1449 1606 basechar 0
AnchorPoint: "blwm_deva" 464 -98 basechar 0
LayerCount: 2
Fore
SplineSet
563 1548 m 257,0,-1
 491 1348 l 257,1,-1
 1517 1348 l 257,2,-1
 1589 1548 l 257,3,-1
 563 1548 l 257,0,-1
766 1049 m 257,4,-1
 616 638 l 257,5,-1
 815 638 l 257,6,-1
 965 1049 l 257,7,-1
 766 1049 l 257,4,-1
656 746 m 257,8,-1
 580 538 l 257,9,-1
 1123 538 l 257,10,-1
 1199 746 l 257,11,-1
 656 746 l 257,8,-1
984 703 m 257,12,-1
 730 5 l 257,13,-1
 929 5 l 257,14,-1
 1183 703 l 257,15,-1
 984 703 l 257,12,-1
135 200 m 257,16,-1
 62 0 l 257,17,-1
 927 0 l 257,18,-1
 1000 200 l 257,19,-1
 135 200 l 257,16,-1
182 331 m 257,20,-1
 64 5 l 257,21,-1
 264 5 l 257,22,-1
 382 331 l 257,23,-1
 182 331 l 257,20,-1
797 1134 m 257,24,-1
 721 926 l 257,25,-1
 1264 926 l 257,26,-1
 1340 1134 l 257,27,-1
 797 1134 l 257,24,-1
1234 1391 m 257,28,-1
 1085 980 l 257,29,-1
 1284 980 l 257,30,-1
 1433 1391 l 257,31,-1
 1234 1391 l 257,28,-1
EndSplineSet
EndChar

StartChar: uni0921_uni0930_uni094D.vatu
Encoding: 65576 -1 488
GlifName: uni0921_uni0930_uni094D_.vatu
Width: 1024
VWidth: 0
GlyphClass: 3
Flags: W
LayerCount: 2
Fore
SplineSet
475 134 m 257,0,-1
 600 -137 l 257,1,-1
 882 -137 l 257,2,-1
 641 255 l 257,3,-1
 475 134 l 257,0,-1
641 255 m 257,4,-1
 89 -143 l 257,5,-1
 310 -143 l 257,6,-1
 713 137 l 257,7,-1
 641 255 l 257,4,-1
563 1548 m 257,8,-1
 491 1348 l 257,9,-1
 1517 1348 l 257,10,-1
 1589 1548 l 257,11,-1
 563 1548 l 257,8,-1
795 1129 m 257,12,-1
 659 756 l 257,13,-1
 858 756 l 257,14,-1
 994 1129 l 257,15,-1
 795 1129 l 257,12,-1
698 864 m 257,16,-1
 623 656 l 257,17,-1
 1166 656 l 257,18,-1
 1241 864 l 257,19,-1
 698 864 l 257,16,-1
1027 821 m 257,20,-1
 820 254 l 257,21,-1
 1019 254 l 257,22,-1
 1226 821 l 257,23,-1
 1027 821 l 257,20,-1
225 449 m 257,24,-1
 153 249 l 257,25,-1
 1018 249 l 257,26,-1
 1090 449 l 257,27,-1
 225 449 l 257,24,-1
273 580 m 257,28,-1
 154 254 l 257,29,-1
 354 254 l 257,30,-1
 473 580 l 257,31,-1
 273 580 l 257,28,-1
826 1214 m 257,32,-1
 750 1006 l 257,33,-1
 1293 1006 l 257,34,-1
 1369 1214 l 257,35,-1
 826 1214 l 257,32,-1
1234 1391 m 257,36,-1
 1114 1060 l 257,37,-1
 1313 1060 l 257,38,-1
 1433 1391 l 257,39,-1
 1234 1391 l 257,36,-1
EndSplineSet
Ligature2: "rkrfRakarVariantsinDevanagari2lookup0 subtable" uni0921 uni094D uni0930
EndChar

StartChar: uni0921_uni094D.haln
Encoding: 65577 -1 489
GlifName: uni0921_uni094D_.haln
Width: 1024
VWidth: 0
GlyphClass: 3
Flags: W
LayerCount: 2
Fore
SplineSet
565 1548 m 257,0,-1
 490 1348 l 257,1,-1
 1516 1348 l 257,2,-1
 1591 1548 l 257,3,-1
 565 1548 l 257,0,-1
762 1049 m 257,4,-1
 608 638 l 257,5,-1
 807 638 l 257,6,-1
 961 1049 l 257,7,-1
 762 1049 l 257,4,-1
648 746 m 257,8,-1
 570 538 l 257,9,-1
 1113 538 l 257,10,-1
 1191 746 l 257,11,-1
 648 746 l 257,8,-1
976 703 m 257,12,-1
 714 5 l 257,13,-1
 913 5 l 257,14,-1
 1175 703 l 257,15,-1
 976 703 l 257,12,-1
121 200 m 257,16,-1
 46 0 l 257,17,-1
 911 0 l 257,18,-1
 986 200 l 257,19,-1
 121 200 l 257,16,-1
170 331 m 257,20,-1
 48 5 l 257,21,-1
 248 5 l 257,22,-1
 370 331 l 257,23,-1
 170 331 l 257,20,-1
794 1134 m 257,24,-1
 716 926 l 257,25,-1
 1259 926 l 257,26,-1
 1337 1134 l 257,27,-1
 794 1134 l 257,24,-1
1234 1391 m 257,28,-1
 1080 980 l 257,29,-1
 1279 980 l 257,30,-1
 1433 1391 l 257,31,-1
 1234 1391 l 257,28,-1
360 -22 m 257,32,-1
 287 -218 l 257,33,-1
 644 -218 l 257,34,-1
 717 -22 l 257,35,-1
 360 -22 l 257,32,-1
516 -183 m 257,36,-1
 701 -588 l 257,37,-1
 906 -425 l 257,38,-1
 720 -21 l 257,39,-1
 516 -183 l 257,36,-1
EndSplineSet
Ligature2: "halnHalantFormsinDevanagari2lookup0 subtable" uni0921 uni094D
EndChar

StartChar: uni0922
Encoding: 2338 2338 490
GlifName: uni0922
Width: 1024
VWidth: 0
GlyphClass: 2
Flags: W
AnchorPoint: "abvm_deva" 1274 1588 basechar 0
AnchorPoint: "blwm_deva" 501 -65 basechar 0
LayerCount: 2
Fore
SplineSet
563 1548 m 257,0,-1
 491 1348 l 257,1,-1
 1516 1348 l 257,2,-1
 1588 1548 l 257,3,-1
 563 1548 l 257,0,-1
1125 1528 m 257,4,-1
 929 988 l 257,5,-1
 1129 988 l 257,6,-1
 1325 1528 l 257,7,-1
 1125 1528 l 257,4,-1
1141 1023 m 257,8,-1
 492 1023 l 257,9,-1
 419 822 l 257,10,-1
 1068 822 l 257,11,-1
 1141 1023 l 257,8,-1
471 1023 m 257,12,-1
 101 5 l 257,13,-1
 301 5 l 257,14,-1
 671 1023 l 257,15,-1
 471 1023 l 257,12,-1
172 201 m 257,16,-1
 99 0 l 257,17,-1
 812 0 l 257,18,-1
 885 201 l 257,19,-1
 172 201 l 257,16,-1
811 544 m 257,20,-1
 613 0 l 257,21,-1
 814 0 l 257,22,-1
 1012 544 l 257,23,-1
 811 544 l 257,20,-1
759 547 m 257,24,-1
 686 347 l 257,25,-1
 938 347 l 257,26,-1
 1011 547 l 257,27,-1
 759 547 l 257,24,-1
EndSplineSet
EndChar

StartChar: uni0922_uni0930_uni094D.vatu
Encoding: 65578 -1 491
GlifName: uni0922_uni0930_uni094D_.vatu
Width: 1024
VWidth: 0
GlyphClass: 2
Flags: W
LayerCount: 2
Fore
SplineSet
510 230 m 257,0,-1
 595 -150 l 257,1,-1
 877 -150 l 257,2,-1
 693 399 l 257,3,-1
 510 230 l 257,0,-1
693 399 m 257,4,-1
 83 -159 l 257,5,-1
 304 -159 l 257,6,-1
 748 234 l 257,7,-1
 693 399 l 257,4,-1
573 1548 m 257,8,-1
 501 1348 l 257,9,-1
 1515 1348 l 257,10,-1
 1587 1548 l 257,11,-1
 573 1548 l 257,8,-1
1125 1528 m 257,12,-1
 929 988 l 257,13,-1
 1129 988 l 257,14,-1
 1325 1528 l 257,15,-1
 1125 1528 l 257,12,-1
1194 1169 m 257,16,-1
 545 1169 l 257,17,-1
 472 968 l 257,18,-1
 1121 968 l 257,19,-1
 1194 1169 l 257,16,-1
524 1168 m 257,20,-1
 246 405 l 257,21,-1
 446 405 l 257,22,-1
 724 1168 l 257,23,-1
 524 1168 l 257,20,-1
318 601 m 257,24,-1
 245 400 l 257,25,-1
 958 400 l 257,26,-1
 1031 601 l 257,27,-1
 318 601 l 257,24,-1
920 844 m 257,28,-1
 758 398 l 257,29,-1
 959 398 l 257,30,-1
 1121 844 l 257,31,-1
 920 844 l 257,28,-1
868 847 m 257,32,-1
 795 647 l 257,33,-1
 1047 647 l 257,34,-1
 1120 847 l 257,35,-1
 868 847 l 257,32,-1
EndSplineSet
Ligature2: "rkrfRakarVariantsinDevanagari2lookup0 subtable" uni0922 uni094D uni0930
EndChar

StartChar: uni0922_uni094D.haln
Encoding: 65579 -1 492
GlifName: uni0922_uni094D_.haln
Width: 1024
VWidth: 0
GlyphClass: 3
Flags: W
LayerCount: 2
Fore
SplineSet
565 1548 m 257,0,-1
 490 1348 l 257,1,-1
 1515 1348 l 257,2,-1
 1590 1548 l 257,3,-1
 565 1548 l 257,0,-1
1127 1528 m 257,4,-1
 924 988 l 257,5,-1
 1124 988 l 257,6,-1
 1327 1528 l 257,7,-1
 1127 1528 l 257,4,-1
1137 1023 m 257,8,-1
 488 1023 l 257,9,-1
 413 822 l 257,10,-1
 1062 822 l 257,11,-1
 1137 1023 l 257,8,-1
467 1023 m 257,12,-1
 85 5 l 257,13,-1
 285 5 l 257,14,-1
 667 1023 l 257,15,-1
 467 1023 l 257,12,-1
159 201 m 257,16,-1
 83 0 l 257,17,-1
 796 0 l 257,18,-1
 872 201 l 257,19,-1
 159 201 l 257,16,-1
801 544 m 257,20,-1
 597 0 l 257,21,-1
 798 0 l 257,22,-1
 1002 544 l 257,23,-1
 801 544 l 257,20,-1
749 547 m 257,24,-1
 674 347 l 257,25,-1
 926 347 l 257,26,-1
 1001 547 l 257,27,-1
 749 547 l 257,24,-1
416 -22 m 257,28,-1
 343 -218 l 257,29,-1
 700 -218 l 257,30,-1
 773 -22 l 257,31,-1
 416 -22 l 257,28,-1
572 -183 m 257,32,-1
 757 -588 l 257,33,-1
 962 -425 l 257,34,-1
 776 -21 l 257,35,-1
 572 -183 l 257,32,-1
EndSplineSet
Ligature2: "halnHalantFormsinDevanagari2lookup0 subtable" uni0922 uni094D
EndChar

StartChar: uni0923
Encoding: 2339 2339 493
GlifName: uni0923
Width: 1024
VWidth: 0
GlyphClass: 2
Flags: W
AnchorPoint: "abvm_deva" 1424 1588 basechar 0
AnchorPoint: "blwm_deva" 852 -77 basechar 0
LayerCount: 2
Fore
SplineSet
563 1548 m 257,0,-1
 491 1348 l 257,1,-1
 1516 1348 l 257,2,-1
 1588 1548 l 257,3,-1
 563 1548 l 257,0,-1
1278 1530 m 257,4,-1
 721 0 l 257,5,-1
 921 0 l 257,6,-1
 1478 1530 l 257,7,-1
 1278 1530 l 257,4,-1
671 1543 m 257,8,-1
 420 855 l 257,9,-1
 620 855 l 257,10,-1
 871 1543 l 257,11,-1
 671 1543 l 257,8,-1
1021 1528 m 257,12,-1
 772 844 l 257,13,-1
 972 844 l 257,14,-1
 1221 1528 l 257,15,-1
 1021 1528 l 257,12,-1
481 1023 m 257,16,-1
 409 825 l 257,17,-1
 965 825 l 257,18,-1
 1037 1023 l 257,19,-1
 481 1023 l 257,16,-1
EndSplineSet
EndChar

StartChar: uni0923_uni0930_uni094D.vatu
Encoding: 65580 -1 494
GlifName: uni0923_uni0930_uni094D_.vatu
Width: 1024
VWidth: 0
GlyphClass: 2
Flags: W
LayerCount: 2
Fore
SplineSet
129 0 m 257,0,-1
 386 0 l 257,1,-1
 804 215 l 257,2,-1
 877 416 l 257,3,-1
 129 0 l 257,0,-1
563 1548 m 257,4,-1
 491 1350 l 257,5,-1
 1520 1350 l 257,6,-1
 1592 1548 l 257,7,-1
 563 1548 l 257,4,-1
1278 1530 m 257,8,-1
 721 0 l 257,9,-1
 921 0 l 257,10,-1
 1478 1530 l 257,11,-1
 1278 1530 l 257,8,-1
671 1543 m 257,12,-1
 420 855 l 257,13,-1
 620 855 l 257,14,-1
 871 1543 l 257,15,-1
 671 1543 l 257,12,-1
1021 1528 m 257,16,-1
 772 844 l 257,17,-1
 972 844 l 257,18,-1
 1221 1528 l 257,19,-1
 1021 1528 l 257,16,-1
481 1023 m 257,20,-1
 409 825 l 257,21,-1
 965 825 l 257,22,-1
 1037 1023 l 257,23,-1
 481 1023 l 257,20,-1
EndSplineSet
Ligature2: "rkrfRakarVariantsinDevanagari2lookup0 subtable" uni0923 uni094D uni0930
EndChar

StartChar: uni0923_uni094D.half
Encoding: 65581 -1 495
GlifName: uni0923_uni094D_.half
Width: 1024
VWidth: 0
GlyphClass: 3
Flags: W
LayerCount: 2
Fore
SplineSet
563 1548 m 257,0,-1
 491 1350 l 257,1,-1
 1520 1350 l 257,2,-1
 1592 1548 l 257,3,-1
 563 1548 l 257,0,-1
871 1543 m 257,4,-1
 620 855 l 257,5,-1
 820 855 l 257,6,-1
 1071 1543 l 257,7,-1
 871 1543 l 257,4,-1
1221 1528 m 257,8,-1
 972 844 l 257,9,-1
 1172 844 l 257,10,-1
 1421 1528 l 257,11,-1
 1221 1528 l 257,8,-1
681 1023 m 257,12,-1
 609 825 l 257,13,-1
 1165 825 l 257,14,-1
 1237 1023 l 257,15,-1
 681 1023 l 257,12,-1
EndSplineSet
Ligature2: "halfHalfFormsinDevanagari2lookup0 subtable" uni0923 uni094D
EndChar

StartChar: uni0923_uni094D.haln
Encoding: 65582 -1 496
GlifName: uni0923_uni094D_.haln
Width: 1024
VWidth: 0
GlyphClass: 3
Flags: W
AnchorPoint: "abvm_deva" 1147 1654 basechar 0
AnchorPoint: "blwm_deva" 1092 -153 basechar 0
LayerCount: 2
Fore
SplineSet
565 1548 m 257,0,-1
 490 1348 l 257,1,-1
 1515 1348 l 257,2,-1
 1590 1548 l 257,3,-1
 565 1548 l 257,0,-1
1279 1530 m 257,4,-1
 705 0 l 257,5,-1
 905 0 l 257,6,-1
 1479 1530 l 257,7,-1
 1279 1530 l 257,4,-1
672 1543 m 257,8,-1
 414 855 l 257,9,-1
 614 855 l 257,10,-1
 872 1543 l 257,11,-1
 672 1543 l 257,8,-1
1022 1528 m 257,12,-1
 766 844 l 257,13,-1
 966 844 l 257,14,-1
 1222 1528 l 257,15,-1
 1022 1528 l 257,12,-1
477 1023 m 257,16,-1
 403 825 l 257,17,-1
 959 825 l 257,18,-1
 1033 1023 l 257,19,-1
 477 1023 l 257,16,-1
881 -22 m 257,20,-1
 807 -218 l 257,21,-1
 1164 -218 l 257,22,-1
 1238 -22 l 257,23,-1
 881 -22 l 257,20,-1
1037 -183 m 257,24,-1
 1222 -588 l 257,25,-1
 1427 -425 l 257,26,-1
 1240 -21 l 257,27,-1
 1037 -183 l 257,24,-1
EndSplineSet
Ligature2: "halnHalantFormsinDevanagari2lookup0 subtable" uni0923 uni094D
EndChar

StartChar: uni0924
Encoding: 2340 2340 497
GlifName: uni0924
Width: 1024
VWidth: 0
GlyphClass: 2
Flags: W
AnchorPoint: "abvm_deva" 1320 1582 basechar 0
AnchorPoint: "blwm_deva" 852 -77 basechar 0
LayerCount: 2
Fore
SplineSet
563 1548 m 257,0,-1
 491 1348 l 257,1,-1
 1516 1348 l 257,2,-1
 1588 1548 l 257,3,-1
 563 1548 l 257,0,-1
1180 1511 m 257,4,-1
 630 0 l 257,5,-1
 829 0 l 257,6,-1
 1379 1511 l 257,7,-1
 1180 1511 l 257,4,-1
1071 788 m 257,8,-1
 392 788 l 257,9,-1
 319 588 l 257,10,-1
 998 588 l 257,11,-1
 1071 788 l 257,8,-1
319 588 m 257,12,-1
 227 0 l 257,13,-1
 427 0 l 257,14,-1
 519 588 l 257,15,-1
 319 588 l 257,12,-1
EndSplineSet
EndChar

StartChar: uni0924_uni0930_uni094D.vatu
Encoding: 65583 -1 498
GlifName: uni0924_uni0930_uni094D_.vatu
Width: 1024
VWidth: 0
GlyphClass: 3
Flags: W
AnchorPoint: "abvm_deva" 756 1658 basechar 0
AnchorPoint: "blwm_deva" 701 -149 basechar 0
LayerCount: 2
Fore
SplineSet
129 0 m 257,0,-1
 483 0 l 257,1,-1
 843 322 l 257,2,-1
 916 523 l 257,3,-1
 129 0 l 257,0,-1
539 1562 m 257,4,-1
 466 1362 l 257,5,-1
 1516 1362 l 257,6,-1
 1589 1562 l 257,7,-1
 539 1562 l 257,4,-1
1199 1562 m 257,8,-1
 630 0 l 257,9,-1
 829 0 l 257,10,-1
 1398 1562 l 257,11,-1
 1199 1562 l 257,8,-1
956 546 m 257,12,-1
 700 935 l 257,13,-1
 394 935 l 257,14,-1
 762 405 l 257,15,-1
 956 546 l 257,12,-1
EndSplineSet
Ligature2: "rkrfRakarVariantsinDevanagari2lookup0 subtable" uni0924 uni094D uni0930
EndChar

StartChar: uni0924_uni094D.half
Encoding: 65584 -1 499
GlifName: uni0924_uni094D_.half
Width: 1024
VWidth: 0
GlyphClass: 3
Flags: W
LayerCount: 2
Fore
SplineSet
539 1562 m 257,0,-1
 466 1362 l 257,1,-1
 1516 1362 l 257,2,-1
 1589 1562 l 257,3,-1
 539 1562 l 257,0,-1
1371 788 m 257,4,-1
 692 788 l 257,5,-1
 619 588 l 257,6,-1
 1298 588 l 257,7,-1
 1371 788 l 257,4,-1
619 588 m 257,8,-1
 544 0 l 257,9,-1
 744 0 l 257,10,-1
 819 588 l 257,11,-1
 619 588 l 257,8,-1
EndSplineSet
Ligature2: "halfHalfFormsinDevanagari2lookup0 subtable" uni0924 uni094D
EndChar

StartChar: uni0924_uni094D.haln
Encoding: 65585 -1 500
GlifName: uni0924_uni094D_.haln
Width: 1024
VWidth: 0
GlyphClass: 3
Flags: W
LayerCount: 2
Fore
SplineSet
565 1548 m 257,0,-1
 490 1348 l 257,1,-1
 1515 1348 l 257,2,-1
 1590 1548 l 257,3,-1
 565 1548 l 257,0,-1
1181 1511 m 257,4,-1
 614 0 l 257,5,-1
 813 0 l 257,6,-1
 1380 1511 l 257,7,-1
 1181 1511 l 257,4,-1
1064 788 m 257,8,-1
 385 788 l 257,9,-1
 310 588 l 257,10,-1
 989 588 l 257,11,-1
 1064 788 l 257,8,-1
310 588 m 257,12,-1
 211 0 l 257,13,-1
 411 0 l 257,14,-1
 510 588 l 257,15,-1
 310 588 l 257,12,-1
608 -22 m 257,16,-1
 535 -218 l 257,17,-1
 892 -218 l 257,18,-1
 965 -22 l 257,19,-1
 608 -22 l 257,16,-1
764 -183 m 257,20,-1
 949 -588 l 257,21,-1
 1154 -425 l 257,22,-1
 968 -21 l 257,23,-1
 764 -183 l 257,20,-1
EndSplineSet
Ligature2: "halnHalantFormsinDevanagari2lookup0 subtable" uni0924 uni094D
EndChar

StartChar: uni0924_uni094D_uni0924.pres
Encoding: 65586 -1 501
GlifName: uni0924_uni094D__uni0924.pres
Width: 1024
VWidth: 0
GlyphClass: 3
Flags: W
LayerCount: 2
Fore
SplineSet
536 1554 m 257,0,-1
 463 1354 l 257,1,-1
 1513 1354 l 257,2,-1
 1586 1554 l 257,3,-1
 536 1554 l 257,0,-1
1180 1511 m 257,4,-1
 630 0 l 257,5,-1
 829 0 l 257,6,-1
 1379 1511 l 257,7,-1
 1180 1511 l 257,4,-1
1071 788 m 257,8,-1
 392 788 l 257,9,-1
 319 588 l 257,10,-1
 998 588 l 257,11,-1
 1071 788 l 257,8,-1
319 588 m 257,12,-1
 212 0 l 257,13,-1
 412 0 l 257,14,-1
 518 588 l 257,15,-1
 319 588 l 257,12,-1
1073 1038 m 257,16,-1
 394 1038 l 257,17,-1
 321 838 l 257,18,-1
 1000 838 l 257,19,-1
 1073 1038 l 257,16,-1
EndSplineSet
Ligature2: "presPreBaseSubstitutionsinDevanagari2lookup0 subtable" uni0924_uni094D.half uni0924
EndChar

StartChar: uni0925
Encoding: 2341 2341 502
GlifName: uni0925
Width: 1024
VWidth: 0
GlyphClass: 2
Flags: W
AnchorPoint: "abvm_deva" 1350 1600 basechar 0
AnchorPoint: "blwm_deva" 852 -77 basechar 0
LayerCount: 2
Fore
SplineSet
1209 1548 m 257,0,-1
 1137 1348 l 257,1,-1
 1517 1348 l 257,2,-1
 1589 1548 l 257,3,-1
 1209 1548 l 257,0,-1
1341 1537 m 257,4,-1
 775 -18 l 257,5,-1
 974 -18 l 257,6,-1
 1540 1537 l 257,7,-1
 1341 1537 l 257,4,-1
597 1548 m 257,8,-1
 525 1348 l 257,9,-1
 970 1348 l 257,10,-1
 1042 1548 l 257,11,-1
 597 1548 l 257,8,-1
792 1413 m 257,12,-1
 615 927 l 257,13,-1
 815 927 l 257,14,-1
 992 1413 l 257,15,-1
 792 1413 l 257,12,-1
850 1018 m 257,16,-1
 409 1018 l 257,17,-1
 333 810 l 257,18,-1
 774 810 l 257,19,-1
 850 1018 l 257,16,-1
382 946 m 257,20,-1
 86 132 l 257,21,-1
 285 132 l 257,22,-1
 581 946 l 257,23,-1
 382 946 l 257,20,-1
158 331 m 257,24,-1
 86 132 l 257,25,-1
 1029 132 l 257,26,-1
 1101 331 l 257,27,-1
 158 331 l 257,24,-1
EndSplineSet
EndChar

StartChar: uni0925_uni0930_uni094D.vatu
Encoding: 65587 -1 503
GlifName: uni0925_uni0930_uni094D_.vatu
Width: 1024
VWidth: 0
GlyphClass: 3
Flags: W
LayerCount: 2
Fore
SplineSet
182 0 m 257,0,-1
 439 0 l 257,1,-1
 857 215 l 257,2,-1
 930 416 l 257,3,-1
 182 0 l 257,0,-1
1209 1548 m 257,4,-1
 1137 1350 l 257,5,-1
 1521 1350 l 257,6,-1
 1593 1548 l 257,7,-1
 1209 1548 l 257,4,-1
1341 1537 m 257,8,-1
 775 -18 l 257,9,-1
 974 -18 l 257,10,-1
 1540 1537 l 257,11,-1
 1341 1537 l 257,8,-1
597 1548 m 257,12,-1
 525 1350 l 257,13,-1
 970 1350 l 257,14,-1
 1042 1548 l 257,15,-1
 597 1548 l 257,12,-1
792 1413 m 257,16,-1
 615 927 l 257,17,-1
 815 927 l 257,18,-1
 992 1413 l 257,19,-1
 792 1413 l 257,16,-1
850 1018 m 257,20,-1
 409 1018 l 257,21,-1
 333 810 l 257,22,-1
 774 810 l 257,23,-1
 850 1018 l 257,20,-1
382 946 m 257,24,-1
 126 243 l 257,25,-1
 325 243 l 257,26,-1
 581 946 l 257,27,-1
 382 946 l 257,24,-1
199 442 m 257,28,-1
 126 243 l 257,29,-1
 1069 243 l 257,30,-1
 1142 442 l 257,31,-1
 199 442 l 257,28,-1
EndSplineSet
Ligature2: "rkrfRakarVariantsinDevanagari2lookup0 subtable" uni0925 uni094D uni0930
EndChar

StartChar: uni0925_uni094D.half
Encoding: 65588 -1 504
GlifName: uni0925_uni094D_.half
Width: 1024
VWidth: 0
GlyphClass: 3
Flags: W
LayerCount: 2
Fore
SplineSet
1209 1548 m 257,0,-1
 1137 1350 l 257,1,-1
 1521 1350 l 257,2,-1
 1593 1548 l 257,3,-1
 1209 1548 l 257,0,-1
597 1548 m 257,4,-1
 525 1350 l 257,5,-1
 970 1350 l 257,6,-1
 1042 1548 l 257,7,-1
 597 1548 l 257,4,-1
792 1413 m 257,8,-1
 615 927 l 257,9,-1
 815 927 l 257,10,-1
 992 1413 l 257,11,-1
 792 1413 l 257,8,-1
850 1018 m 257,12,-1
 409 1018 l 257,13,-1
 333 810 l 257,14,-1
 774 810 l 257,15,-1
 850 1018 l 257,12,-1
382 946 m 257,16,-1
 86 132 l 257,17,-1
 285 132 l 257,18,-1
 581 946 l 257,19,-1
 382 946 l 257,16,-1
158 331 m 257,20,-1
 86 132 l 257,21,-1
 1029 132 l 257,22,-1
 1101 331 l 257,23,-1
 158 331 l 257,20,-1
EndSplineSet
Ligature2: "halfHalfFormsinDevanagari2lookup0 subtable" uni0925 uni094D
EndChar

StartChar: uni0925_uni094D.haln
Encoding: 65589 -1 505
GlifName: uni0925_uni094D_.haln
Width: 1024
VWidth: 0
GlyphClass: 3
Flags: W
LayerCount: 2
Fore
SplineSet
1187 1548 m 257,0,-1
 1112 1348 l 257,1,-1
 1492 1348 l 257,2,-1
 1567 1548 l 257,3,-1
 1187 1548 l 257,0,-1
1319 1537 m 257,4,-1
 735 -18 l 257,5,-1
 934 -18 l 257,6,-1
 1518 1537 l 257,7,-1
 1319 1537 l 257,4,-1
575 1548 m 257,8,-1
 500 1348 l 257,9,-1
 945 1348 l 257,10,-1
 1020 1548 l 257,11,-1
 575 1548 l 257,8,-1
768 1413 m 257,12,-1
 586 927 l 257,13,-1
 786 927 l 257,14,-1
 968 1413 l 257,15,-1
 768 1413 l 257,12,-1
821 1018 m 257,16,-1
 380 1018 l 257,17,-1
 302 810 l 257,18,-1
 743 810 l 257,19,-1
 821 1018 l 257,16,-1
353 946 m 257,20,-1
 48 132 l 257,21,-1
 247 132 l 257,22,-1
 552 946 l 257,23,-1
 353 946 l 257,20,-1
122 331 m 257,24,-1
 48 132 l 257,25,-1
 991 132 l 257,26,-1
 1065 331 l 257,27,-1
 122 331 l 257,24,-1
372 -22 m 257,28,-1
 299 -218 l 257,29,-1
 656 -218 l 257,30,-1
 729 -22 l 257,31,-1
 372 -22 l 257,28,-1
528 -183 m 257,32,-1
 713 -588 l 257,33,-1
 918 -425 l 257,34,-1
 732 -21 l 257,35,-1
 528 -183 l 257,32,-1
EndSplineSet
Ligature2: "halnHalantFormsinDevanagari2lookup0 subtable" uni0925 uni094D
EndChar

StartChar: uni0926
Encoding: 2342 2342 506
GlifName: uni0926
Width: 1024
VWidth: 0
GlyphClass: 2
Flags: W
AnchorPoint: "abvm_deva" 1162 1594 basechar 0
AnchorPoint: "blwm_deva" 852 -77 basechar 0
LayerCount: 2
Fore
SplineSet
563 1548 m 257,0,-1
 491 1348 l 257,1,-1
 1516 1348 l 257,2,-1
 1588 1548 l 257,3,-1
 563 1548 l 257,0,-1
1033 1509 m 257,4,-1
 820 923 l 257,5,-1
 1020 923 l 257,6,-1
 1233 1509 l 257,7,-1
 1033 1509 l 257,4,-1
1055 1023 m 257,8,-1
 433 1023 l 257,9,-1
 360 821 l 257,10,-1
 982 821 l 257,11,-1
 1055 1023 l 257,8,-1
420 996 m 257,12,-1
 137 219 l 257,13,-1
 337 219 l 257,14,-1
 620 996 l 257,15,-1
 420 996 l 257,12,-1
183 346 m 257,16,-1
 110 146 l 257,17,-1
 862 146 l 257,18,-1
 935 346 l 257,19,-1
 183 346 l 257,16,-1
761 406 m 257,20,-1
 610 -7 l 257,21,-1
 810 -7 l 257,22,-1
 961 406 l 257,23,-1
 761 406 l 257,20,-1
EndSplineSet
EndChar

